<?xml version="1.0" encoding="utf-8"?>
<!-- Generator: Adobe Illustrator 22.1.0, SVG Export Plug-In . SVG Version: 6.00 Build 0)  -->
<svg version="1.1" id="Layer_1" xmlns="http://www.w3.org/2000/svg" xmlns:xlink="http://www.w3.org/1999/xlink" x="0px" y="0px"
	 viewBox="0 0 400 326" style="enable-background:new 0 0 400 326;" xml:space="preserve">
<style type="text/css">
	.st0{fill:url(#XMLID_393_);}
	.st1{fill:url(#XMLID_394_);}
	.st2{fill:url(#XMLID_395_);}
	.st3{fill:#FFFFFF;}
	.st4{opacity:0.3;fill:#231F20;}
	.st5{fill:url(#XMLID_396_);}
	.st6{fill:#4D2C89;}
	.st7{fill:url(#XMLID_397_);}
	.st8{fill:#BDC3C7;}
	.st9{opacity:0.3;fill:#212121;}
	.st10{fill:url(#XMLID_398_);}
	.st11{fill:url(#XMLID_399_);}
	.st12{fill:url(#XMLID_400_);}
	.st13{fill:url(#XMLID_401_);}
	.st14{fill:#FFF186;}
	.st15{fill:url(#XMLID_402_);}
	.st16{fill:url(#XMLID_403_);}
	.st17{fill:url(#XMLID_404_);}
	.st18{fill:#FFA000;}
	.st19{fill:url(#XMLID_405_);}
	.st20{fill:#212121;}
	.st21{fill:url(#XMLID_406_);}
	.st22{fill:url(#XMLID_407_);}
	.st23{fill:url(#XMLID_408_);}
	.st24{fill:url(#XMLID_409_);}
	.st25{fill:url(#XMLID_410_);}
	.st26{fill:url(#XMLID_411_);}
	.st27{fill:url(#XMLID_412_);}
	.st28{fill:url(#XMLID_413_);}
	.st29{fill:url(#XMLID_414_);}
	.st30{fill:#ECECEC;}
	.st31{fill:#D8D8D8;}
	.st32{fill:#FAFAFA;}
	.st33{fill:#C5C5C5;}
	.st34{fill:#373737;}
	.st35{fill:url(#XMLID_416_);}
	.st36{fill:#58595B;}
	.st37{fill:#414042;}
	.st38{fill:url(#XMLID_417_);}
	.st39{opacity:0.3;fill:#414042;}
	.st40{fill:#231F20;}
	.st41{fill:url(#XMLID_418_);}
	.st42{fill:url(#XMLID_419_);}
	.st43{fill:url(#XMLID_420_);}
	.st44{fill:#FFC107;}
	.st45{fill:url(#XMLID_421_);}
	.st46{fill:url(#XMLID_422_);}
	.st47{fill:url(#XMLID_423_);}
	.st48{fill:url(#XMLID_424_);}
	.st49{fill:url(#XMLID_425_);}
	.st50{fill:url(#XMLID_426_);}
	.st51{fill:url(#XMLID_427_);}
	.st52{fill:url(#XMLID_431_);}
	.st53{fill:url(#XMLID_432_);}
	.st54{fill:url(#XMLID_439_);}
	.st55{fill:url(#XMLID_448_);}
	.st56{fill:url(#XMLID_449_);}
	.st57{opacity:0.2;}
	.st58{opacity:0.35;}
	.st59{fill:#FF5722;}
	.st60{fill:#E6E7E8;}
	.st61{fill:url(#XMLID_450_);}
	.st62{fill:url(#XMLID_451_);}
	.st63{fill:url(#XMLID_452_);}
	.st64{fill:url(#XMLID_453_);}
	.st65{fill:url(#XMLID_454_);}
	.st66{fill:url(#XMLID_455_);}
	.st67{fill:#D1D3D4;}
	.st68{fill:url(#XMLID_456_);}
	.st69{fill:url(#XMLID_457_);}
	.st70{fill:#00ACBF;}
	.st71{fill:url(#XMLID_458_);}
	.st72{fill:url(#XMLID_459_);}
	.st73{fill:url(#XMLID_460_);}
	.st74{fill:url(#XMLID_469_);}
	.st75{fill:url(#XMLID_470_);}
	.st76{fill:url(#XMLID_471_);}
	.st77{fill:url(#XMLID_472_);}
	.st78{fill:url(#XMLID_473_);}
	.st79{fill:url(#XMLID_474_);}
	.st80{fill:url(#XMLID_475_);}
	.st81{fill:url(#XMLID_476_);}
	.st82{fill:url(#XMLID_477_);}
	.st83{fill:url(#XMLID_478_);}
	.st84{fill:url(#XMLID_479_);}
	.st85{fill:url(#XMLID_480_);}
	.st86{fill:url(#XMLID_481_);}
	.st87{fill:url(#XMLID_482_);}
	.st88{fill:url(#XMLID_483_);}
	.st89{fill:#00BEFF;}
</style>
<g id="XMLID_1025_">
	<linearGradient id="XMLID_393_" gradientUnits="userSpaceOnUse" x1="50.0313" y1="286.258" x2="376.1446" y2="19.9717">
		<stop  offset="0" style="stop-color:#0AA4F5"/>
		<stop  offset="4.839605e-02" style="stop-color:#0BA9F6"/>
		<stop  offset="0.6936" style="stop-color:#14E7FC"/>
		<stop  offset="1" style="stop-color:#18FFFF"/>
	</linearGradient>
	<circle id="XMLID_1111_" class="st0" cx="203.1" cy="161.3" r="151.4"/>
	<g id="XMLID_1109_">
		<linearGradient id="XMLID_394_" gradientUnits="userSpaceOnUse" x1="45.5296" y1="91.8717" x2="139.4447" y2="91.8717">
			<stop  offset="0" style="stop-color:#FF9800"/>
			<stop  offset="0.296" style="stop-color:#FFBE00"/>
			<stop  offset="0.5766" style="stop-color:#FFDB00"/>
			<stop  offset="0.8204" style="stop-color:#FFEC00"/>
			<stop  offset="1" style="stop-color:#FFF200"/>
		</linearGradient>
		<path id="XMLID_1110_" class="st1" d="M55.5,98.6L46,88.9c-0.7-0.7-0.7-1.8,0-2.5c0.7-0.7,1.8-0.7,2.5,0l7,7.2l8.2-8.5l8.2,8.5
			l8.2-8.5l8.2,8.5l8.2-8.5l8.2,8.5l8.2-8.5l8.2,8.5l8.2-8.5l9.5,9.8c0.7,0.7,0.7,1.8,0,2.5c-0.7,0.7-1.8,0.7-2.5,0l-7-7.2l-8.2,8.5
			l-8.2-8.5l-8.2,8.5l-8.2-8.5l-8.2,8.5l-8.2-8.5l-8.2,8.5l-8.2-8.5L55.5,98.6z"/>
	</g>
	<g id="XMLID_1107_">
		<linearGradient id="XMLID_395_" gradientUnits="userSpaceOnUse" x1="235.0287" y1="66.4735" x2="336.5014" y2="66.4735">
			<stop  offset="0" style="stop-color:#E040FB"/>
			<stop  offset="5.434531e-02" style="stop-color:#D840F7"/>
			<stop  offset="0.5003" style="stop-color:#9B3DD4"/>
			<stop  offset="0.828" style="stop-color:#753BBF"/>
			<stop  offset="1" style="stop-color:#673AB7"/>
		</linearGradient>
		<path id="XMLID_1108_" class="st2" d="M245.8,73.8l-10.2-10.6c-0.7-0.8-0.7-1.9,0-2.7c0.8-0.7,1.9-0.7,2.7,0l7.5,7.8l8.9-9.2
			l8.9,9.2l8.9-9.2l8.9,9.2l8.9-9.2l8.9,9.2l8.9-9.2l8.9,9.2l8.9-9.2L336,69.7c0.7,0.7,0.7,1.9,0,2.7c-0.7,0.7-1.9,0.7-2.7,0
			l-7.5-7.8l-8.9,9.2l-8.9-9.2l-8.9,9.2l-8.9-9.2l-8.9,9.2l-8.9-9.2l-8.9,9.2l-8.9-9.2L245.8,73.8z"/>
	</g>
	<g id="XMLID_1103_">
		<path id="XMLID_1104_" class="st3" d="M316.9,85.6h-6.3l3.2-5.5L316.9,85.6z M312.7,84.4h2.1l-1-1.8L312.7,84.4z"/>
	</g>
	<g id="XMLID_1099_">
		<path id="XMLID_1100_" class="st3" d="M208.8,90.3L201.7,78h14.1L208.8,90.3z M208.8,84.8l2.3-4h-4.6L208.8,84.8z"/>
	</g>
	<g id="XMLID_1095_">
		<path id="XMLID_1096_" class="st3" d="M119.2,62l-5.8-10.1H125L119.2,62z M119.2,57.4l1.9-3.3h-3.8L119.2,57.4z"/>
	</g>
	<g id="XMLID_1093_">
		<path id="XMLID_1094_" class="st3" d="M154.9,38.9l-8.6-8.9c-0.5-0.5-0.5-1.4,0-1.9c0.5-0.5,1.4-0.5,1.9,0l6.7,6.9l7.6-7.9
			l7.6,7.9l7.6-7.9l7.6,7.9l6.7-6.9c0.5-0.5,1.3-0.5,1.9,0c0.5,0.5,0.5,1.3,0,1.9l-8.6,8.9l-7.6-7.9l-7.6,7.9l-7.6-7.9L154.9,38.9z"
			/>
	</g>
	<g id="XMLID_1089_">
		<path id="XMLID_1090_" class="st3" d="M250.1,43.2c-2.4,0-4.3-1.9-4.3-4.3c0-2.4,1.9-4.3,4.3-4.3c2.4,0,4.3,1.9,4.3,4.3
			C254.4,41.3,252.5,43.2,250.1,43.2z M250.1,36.6c-1.2,0-2.2,1-2.2,2.2s1,2.2,2.2,2.2c1.2,0,2.2-1,2.2-2.2S251.3,36.6,250.1,36.6z"
			/>
	</g>
	<g id="XMLID_1085_">
		<path id="XMLID_1086_" class="st3" d="M63.6,140.3c-1.6,0-2.9-1.3-2.9-2.9c0-1.6,1.3-2.9,2.9-2.9c1.6,0,2.9,1.3,2.9,2.9
			C66.6,139,65.3,140.3,63.6,140.3z M63.6,135.9c-0.8,0-1.5,0.7-1.5,1.5s0.7,1.5,1.5,1.5c0.8,0,1.5-0.7,1.5-1.5
			S64.5,135.9,63.6,135.9z"/>
	</g>
	<g id="XMLID_1081_">
		<path id="XMLID_1082_" class="st3" d="M344.4,160c-1.6,0-2.9-1.3-2.9-2.9c0-1.6,1.3-2.9,2.9-2.9c1.6,0,2.9,1.3,2.9,2.9
			C347.3,158.6,346,160,344.4,160z M344.4,155.5c-0.8,0-1.5,0.7-1.5,1.5s0.7,1.5,1.5,1.5s1.5-0.7,1.5-1.5S345.2,155.5,344.4,155.5z"
			/>
	</g>
	<g id="XMLID_1077_">
		<path id="XMLID_1078_" class="st3" d="M167.1,103.2c-1.5,0-2.8-1.2-2.8-2.8c0-1.5,1.2-2.8,2.8-2.8c1.5,0,2.8,1.2,2.8,2.8
			C169.9,102,168.6,103.2,167.1,103.2z M167.1,99c-0.8,0-1.4,0.6-1.4,1.4c0,0.8,0.6,1.4,1.4,1.4c0.8,0,1.4-0.6,1.4-1.4
			C168.5,99.7,167.9,99,167.1,99z"/>
	</g>
	<g id="XMLID_1073_">
		<path id="XMLID_1074_" class="st3" d="M275.5,108.2c-1.9,0-3.4-1.5-3.4-3.4c0-1.9,1.5-3.4,3.4-3.4c1.9,0,3.4,1.5,3.4,3.4
			C278.9,106.7,277.4,108.2,275.5,108.2z M275.5,103.1c-1,0-1.7,0.8-1.7,1.7c0,1,0.8,1.7,1.7,1.7s1.7-0.8,1.7-1.7
			C277.3,103.9,276.5,103.1,275.5,103.1z"/>
	</g>
	<g id="XMLID_1039_">
		<g id="XMLID_1066_">
			<polygon id="XMLID_1072_" class="st32" points="256,306 151.3,306 158.6,260.8 249.2,260.8 			"/>
			<polygon id="XMLID_1071_" class="st33" points="158.6,260.8 153.1,294.7 253.2,287.4 249.2,260.8 			"/>
			<path id="XMLID_1070_" class="st34" d="M325.2,118.3c0-2.5-2-4.5-4.5-4.5H86.5c-2.5,0-4.5,2-4.5,4.5v136.5c0,2.5,2,4.5,4.5,4.5
				h234.2c2.5,0,4.5-2,4.5-4.5V118.3z"/>
			<path id="XMLID_1069_" class="st30" d="M325.2,251.3v18.5c0,6.6-5.3,11.9-11.9,11.9H93.9c-6.6,0-11.9-5.3-11.9-11.9v-18.5H325.2z
				"/>
			<linearGradient id="XMLID_396_" gradientUnits="userSpaceOnUse" x1="170.5284" y1="225.0698" x2="265.3643" y2="103.4852">
				<stop  offset="0" style="stop-color:#0AA4F5"/>
				<stop  offset="5.460525e-02" style="stop-color:#0FA0F6"/>
				<stop  offset="0.4614" style="stop-color:#3484FA"/>
				<stop  offset="0.7909" style="stop-color:#4B73FD"/>
				<stop  offset="1" style="stop-color:#536DFE"/>
			</linearGradient>
			<rect id="XMLID_1068_" x="92.5" y="124.1" class="st5" width="222.3" height="117"/>
			<path id="XMLID_1067_" class="st30" d="M263.9,316.2H142.7c-2.8,0-5.1-2.3-5.1-5.1l0,0c0-2.8,2.3-5.1,5.1-5.1h121.2
				c2.8,0,5.1,2.3,5.1,5.1l0,0C268.9,313.9,266.7,316.2,263.9,316.2z"/>
		</g>
		<path id="XMLID_1065_" class="st4" d="M325.2,191.7v-50.5l-9.1-11.3h-31.9h-20.8h-11.1h-31.9h-2h-29.9h-31.9h-31.9H92.7
			l-10.7,13.3v47.5c3,2.2,6.8,3.5,10.8,3.5c10.3,0,18.6-8.3,18.6-18.6c0,10.3,8.3,18.6,18.6,18.6c10.3,0,18.6-8.3,18.6-18.6
			c0,10.3,8.3,18.6,18.6,18.6c10.3,0,18.6-8.3,18.6-18.6c0,10.3,8.3,18.6,18.6,18.6c10.3,0,18.6-8.3,18.6-18.6
			c0,10.3,8.3,18.6,18.6,18.6c10.3,0,18.6-8.3,18.6-18.6c0,10.3,8.3,18.6,18.6,18.6c10.3,0,18.6-8.3,18.6-18.6
			c0,10.3,8.3,18.6,18.6,18.6C319.4,194.2,322.5,193.2,325.2,191.7z"/>
		<g id="XMLID_1050_">
			<linearGradient id="XMLID_397_" gradientUnits="userSpaceOnUse" x1="74.2488" y1="167.8233" x2="111.443" y2="167.8233">
				<stop  offset="0" style="stop-color:#BE1E2D"/>
				<stop  offset="0.5865" style="stop-color:#E74226"/>
				<stop  offset="1" style="stop-color:#FF5722"/>
			</linearGradient>
			<path id="XMLID_1064_" class="st7" d="M92.8,188.5L92.8,188.5c-10.3,0-18.6-8.3-18.6-18.6v-22.7h37.2v22.7
				C111.4,180.1,103.1,188.5,92.8,188.5z"/>
			<linearGradient id="XMLID_398_" gradientUnits="userSpaceOnUse" x1="74.2488" y1="135.6612" x2="124.6373" y2="135.6612">
				<stop  offset="0" style="stop-color:#BE1E2D"/>
				<stop  offset="0.5865" style="stop-color:#E74226"/>
				<stop  offset="1" style="stop-color:#FF5722"/>
			</linearGradient>
			<polygon id="XMLID_1063_" class="st10" points="124.6,124.1 92.7,124.1 74.2,147.2 111.4,147.2 			"/>
			<path id="XMLID_1062_" class="st3" d="M130,188.5L130,188.5c-10.3,0-18.6-8.3-18.6-18.6v-22.7h37.2v22.7
				C148.6,180.1,140.3,188.5,130,188.5z"/>
			<polygon id="XMLID_1061_" class="st3" points="156.6,124.1 124.6,124.1 111.4,147.2 148.6,147.2 			"/>
			<linearGradient id="XMLID_399_" gradientUnits="userSpaceOnUse" x1="148.6368" y1="167.8233" x2="185.831" y2="167.8233">
				<stop  offset="0" style="stop-color:#BE1E2D"/>
				<stop  offset="0.5865" style="stop-color:#E74226"/>
				<stop  offset="1" style="stop-color:#FF5722"/>
			</linearGradient>
			<path id="XMLID_1060_" class="st11" d="M167.2,188.5L167.2,188.5c-10.3,0-18.6-8.3-18.6-18.6v-22.7h37.2v22.7
				C185.8,180.1,177.5,188.5,167.2,188.5z"/>
			<linearGradient id="XMLID_400_" gradientUnits="userSpaceOnUse" x1="148.6368" y1="135.6612" x2="188.4693" y2="135.6612">
				<stop  offset="0" style="stop-color:#BE1E2D"/>
				<stop  offset="0.5865" style="stop-color:#E74226"/>
				<stop  offset="1" style="stop-color:#FF5722"/>
			</linearGradient>
			<polygon id="XMLID_1059_" class="st12" points="188.5,124.1 156.6,124.1 148.6,147.2 185.8,147.2 			"/>
			<path id="XMLID_1058_" class="st3" d="M204.4,188.5L204.4,188.5c-10.3,0-18.6-8.3-18.6-18.6v-22.7H223v22.7
				C223,180.1,214.7,188.5,204.4,188.5z"/>
			<polygon id="XMLID_1057_" class="st3" points="220.4,124.1 188.5,124.1 185.8,147.2 223,147.2 			"/>
			<linearGradient id="XMLID_401_" gradientUnits="userSpaceOnUse" x1="223.0248" y1="167.8233" x2="260.2197" y2="167.8233">
				<stop  offset="0" style="stop-color:#BE1E2D"/>
				<stop  offset="0.5865" style="stop-color:#E74226"/>
				<stop  offset="1" style="stop-color:#FF5722"/>
			</linearGradient>
			<path id="XMLID_1056_" class="st13" d="M241.6,188.5L241.6,188.5c-10.3,0-18.6-8.3-18.6-18.6v-22.7h37.2v22.7
				C260.2,180.1,251.9,188.5,241.6,188.5z"/>
			<linearGradient id="XMLID_402_" gradientUnits="userSpaceOnUse" x1="218.3599" y1="135.6612" x2="263.4222" y2="135.6612">
				<stop  offset="0" style="stop-color:#BE1E2D"/>
				<stop  offset="0.5865" style="stop-color:#E74226"/>
				<stop  offset="1" style="stop-color:#FF5722"/>
			</linearGradient>
			<polygon id="XMLID_1055_" class="st15" points="263.4,124.1 218.4,124.1 223,147.2 260.2,147.2 			"/>
			<path id="XMLID_1054_" class="st3" d="M278.8,188.5L278.8,188.5c-10.3,0-18.6-8.3-18.6-18.6v-22.7h37.2v22.7
				C297.4,180.1,289.1,188.5,278.8,188.5z"/>
			<polygon id="XMLID_1053_" class="st3" points="284.2,124.1 252.3,124.1 260.2,147.2 297.4,147.2 			"/>
			<linearGradient id="XMLID_403_" gradientUnits="userSpaceOnUse" x1="297.4139" y1="167.8233" x2="334.6077" y2="167.8233">
				<stop  offset="0" style="stop-color:#BE1E2D"/>
				<stop  offset="0.5865" style="stop-color:#E74226"/>
				<stop  offset="1" style="stop-color:#FF5722"/>
			</linearGradient>
			<path id="XMLID_1052_" class="st16" d="M316,188.5L316,188.5c-10.3,0-18.6-8.3-18.6-18.6v-22.7h37.2v22.7
				C334.6,180.1,326.3,188.5,316,188.5z"/>
			<linearGradient id="XMLID_404_" gradientUnits="userSpaceOnUse" x1="284.219" y1="135.6612" x2="334.6077" y2="135.6612">
				<stop  offset="0" style="stop-color:#BE1E2D"/>
				<stop  offset="0.5865" style="stop-color:#E74226"/>
				<stop  offset="1" style="stop-color:#FF5722"/>
			</linearGradient>
			<polygon id="XMLID_1051_" class="st17" points="316.1,124.1 284.2,124.1 297.4,147.2 334.6,147.2 			"/>
		</g>
		<path id="XMLID_1049_" class="st9" d="M180.6,218.3H112h-0.7H98.8h-6.2h-2.4c-2.6,0-4.6,2.1-4.6,4.6v2.4v90.7h13.2h12.5h0.7h68.5
			c2.6,0,4.6-2.1,4.6-4.6v-88.4C185.1,220.3,183.1,218.3,180.6,218.3z"/>
		<g id="XMLID_1040_">
			<linearGradient id="XMLID_405_" gradientUnits="userSpaceOnUse" x1="80.9174" y1="267.1218" x2="107.2907" y2="267.1218">
				<stop  offset="0" style="stop-color:#FF9800"/>
				<stop  offset="0.296" style="stop-color:#FFBE00"/>
				<stop  offset="0.5766" style="stop-color:#FFDB00"/>
				<stop  offset="0.8204" style="stop-color:#FFEC00"/>
				<stop  offset="1" style="stop-color:#FFF200"/>
			</linearGradient>
			<path id="XMLID_1048_" class="st19" d="M107.3,315.9H80.9v-96.2c0-0.8,0.7-1.5,1.5-1.5h24.9V315.9z"/>
			<linearGradient id="XMLID_406_" gradientUnits="userSpaceOnUse" x1="102.2879" y1="320.666" x2="178.4438" y2="221.1358">
				<stop  offset="0" style="stop-color:#FF9800"/>
				<stop  offset="0.296" style="stop-color:#FFBE00"/>
				<stop  offset="0.5766" style="stop-color:#FFDB00"/>
				<stop  offset="0.8204" style="stop-color:#FFEC00"/>
				<stop  offset="1" style="stop-color:#FFF200"/>
			</linearGradient>
			<path id="XMLID_1047_" class="st21" d="M106.6,315.9h72.8c0.5,0,1-0.4,1-1v-95.7c0-0.5-0.4-1-1-1h-72.9V315.9z"/>
			<path id="XMLID_1046_" class="st44" d="M94.1,315.9H80.9v-96.7c0-0.5,0.4-1,1-1h12.2V315.9z"/>
			<linearGradient id="XMLID_407_" gradientUnits="userSpaceOnUse" x1="80.9174" y1="308.1483" x2="107.2907" y2="308.1483">
				<stop  offset="0" style="stop-color:#FFF200"/>
				<stop  offset="0.1796" style="stop-color:#FFEC00"/>
				<stop  offset="0.4234" style="stop-color:#FFDB00"/>
				<stop  offset="0.704" style="stop-color:#FFBE00"/>
				<stop  offset="1" style="stop-color:#FF9800"/>
			</linearGradient>
			<polygon id="XMLID_1045_" class="st22" points="107.3,315.9 80.9,315.9 80.9,315.9 94.1,300.3 107.3,315.9 			"/>
			<path id="XMLID_1044_" class="st18" d="M128.3,233.8c0,2.5-2,4.6-4.6,4.6c-2.5,0-4.6-2-4.6-4.6c0-2.5,2-4.6,4.6-4.6
				C126.3,229.3,128.3,231.3,128.3,233.8z"/>
			<path id="XMLID_1043_" class="st18" d="M170.4,233.8c0,2.5-2,4.6-4.6,4.6c-2.5,0-4.6-2-4.6-4.6c0-2.5,2-4.6,4.6-4.6
				C168.3,229.3,170.4,231.3,170.4,233.8z"/>
			<g id="XMLID_1041_">
				<path id="XMLID_1042_" class="st20" d="M122,254.2v-20.3c0-0.6,0.5-1,1-1h1.4c0.6,0,1,0.5,1,1v20.3c0,10.7,8.7,19.3,19.3,19.3
					s19.3-8.7,19.3-19.3v-20.3c0-0.6,0.5-1,1-1h1.4c0.6,0,1,0.5,1,1v20.3c0,12.5-10.2,22.7-22.7,22.7
					C132.2,276.9,122,266.7,122,254.2z"/>
			</g>
		</g>
	</g>
	<path id="XMLID_1038_" class="st4" d="M268.9,311.1c0-2.8-2.3-5.1-5.1-5.1H256l-3.7-24.4h61c6.6,0,11.9-5.3,11.9-11.9v-15v-3.5
		v-1.4l-13.9-3.7v-24.6c0-4.8-3.9-8.6-8.6-8.6h-42.8c-4.8,0-8.6,3.9-8.6,8.6v85.9c0,4.8,3.9,8.6,8.6,8.6h4
		C266.7,316.2,268.9,313.9,268.9,311.1z"/>
	<g id="XMLID_1026_">
		<g id="XMLID_1034_">
			<path id="XMLID_1037_" class="st37" d="M315.8,216.8v95.5c0,2.1-1.7,3.8-3.8,3.8h-52.4c-2.1,0-3.8-1.7-3.8-3.8v-95.5
				c0-2.1,1.7-3.8,3.8-3.8h52.4C314.1,213,315.8,214.7,315.8,216.8z"/>
			<path id="XMLID_1036_" class="st44" d="M289.8,289.5v17.7c0,0.3-0.3,0.6-0.6,0.6h-17.7c-0.3,0-0.6-0.3-0.6-0.6v-17.7
				c0-0.3,0.3-0.6,0.6-0.6h17.7C289.6,288.9,289.8,289.2,289.8,289.5z"/>
			
				<rect id="XMLID_1035_" x="250.8" y="252.3" transform="matrix(6.123234e-17 -1 1 6.123234e-17 21.909 532.2173)" class="st3" width="52.5" height="5.8"/>
		</g>
		<path id="XMLID_1033_" class="st9" d="M308.4,245.2l-32.2,8.5v0c0,0,0,0.1,0,0.1c0,0.6,0,1.3,0,1.9c0.9,40.3,29,58.4,31.9,60.2
			c0.3-0.1,0.6-0.2,0.9-0.3c0.9-0.6,2.8-1.9,5.2-4c1-1.5,1.5-3.2,1.5-5.1v-59.4L308.4,245.2z"/>
		<g id="XMLID_1027_">
			<linearGradient id="XMLID_408_" gradientUnits="userSpaceOnUse" x1="280.011" y1="280.6671" x2="344.368" y2="280.6671">
				<stop  offset="0" style="stop-color:#0AA4F5"/>
				<stop  offset="4.839605e-02" style="stop-color:#0BA9F6"/>
				<stop  offset="0.6936" style="stop-color:#14E7FC"/>
				<stop  offset="1" style="stop-color:#18FFFF"/>
			</linearGradient>
			<path id="XMLID_1032_" class="st23" d="M312.2,316.1c0,0-32.2-18.4-32.2-62.3l32.2-8.5l32.2,8.5
				C344.4,296.7,312.2,316.1,312.2,316.1z"/>
			<path id="XMLID_1031_" class="st89" d="M312.2,247.3l32.1,8.5c0-0.7,0-1.3,0-2l-32.2-8.5l-32.2,8.5c0,0.7,0,1.3,0,2L312.2,247.3z
				"/>
			<circle id="XMLID_1030_" class="st3" cx="312.2" cy="278.2" r="16.3"/>
			<g id="XMLID_1028_">
				<polygon id="XMLID_1029_" class="st20" points="309.5,286.8 302.2,279.5 306.4,275.3 309.5,278.4 317.5,270.4 321.7,274.6 				
					"/>
			</g>
		</g>
	</g>
</g>
</svg>
