<?xml version="1.0" encoding="utf-8"?>
<!-- Generator: Adobe Illustrator 22.1.0, SVG Export Plug-In . SVG Version: 6.00 Build 0)  -->
<svg version="1.1" id="Layer_1" xmlns="http://www.w3.org/2000/svg" xmlns:xlink="http://www.w3.org/1999/xlink" x="0px" y="0px"
	 viewBox="0 0 400 326" style="enable-background:new 0 0 400 326;" xml:space="preserve">
<style type="text/css">
	.st0{fill:url(#XMLID_393_);}
	.st1{fill:url(#XMLID_394_);}
	.st2{fill:url(#XMLID_395_);}
	.st3{fill:#FFFFFF;}
	.st4{opacity:0.3;fill:#231F20;}
	.st5{fill:url(#XMLID_396_);}
	.st6{fill:#4D2C89;}
	.st7{fill:url(#XMLID_397_);}
	.st8{fill:#BDC3C7;}
	.st9{opacity:0.3;fill:#212121;}
	.st10{fill:url(#XMLID_398_);}
	.st11{fill:url(#XMLID_399_);}
	.st12{fill:url(#XMLID_400_);}
	.st13{fill:url(#XMLID_401_);}
	.st14{fill:#FFF186;}
	.st15{fill:url(#XMLID_402_);}
	.st16{fill:url(#XMLID_403_);}
	.st17{fill:url(#XMLID_404_);}
	.st18{fill:#FFA000;}
	.st19{fill:url(#XMLID_405_);}
	.st20{fill:#212121;}
	.st21{fill:url(#XMLID_406_);}
	.st22{fill:url(#XMLID_407_);}
	.st23{fill:url(#XMLID_408_);}
	.st24{fill:url(#XMLID_409_);}
	.st25{fill:url(#XMLID_410_);}
	.st26{fill:url(#XMLID_411_);}
	.st27{fill:url(#XMLID_412_);}
	.st28{fill:url(#XMLID_413_);}
	.st29{fill:url(#XMLID_414_);}
	.st30{fill:#ECECEC;}
	.st31{fill:#D8D8D8;}
	.st32{fill:#FAFAFA;}
	.st33{fill:#C5C5C5;}
	.st34{fill:#373737;}
	.st35{fill:url(#XMLID_416_);}
	.st36{fill:#58595B;}
	.st37{fill:#414042;}
	.st38{fill:url(#XMLID_417_);}
	.st39{opacity:0.3;fill:#414042;}
	.st40{fill:#231F20;}
	.st41{fill:url(#XMLID_418_);}
	.st42{fill:url(#XMLID_419_);}
	.st43{fill:url(#XMLID_420_);}
	.st44{fill:#FFC107;}
	.st45{fill:url(#XMLID_421_);}
	.st46{fill:url(#XMLID_422_);}
	.st47{fill:url(#XMLID_423_);}
	.st48{fill:url(#XMLID_424_);}
	.st49{fill:url(#XMLID_425_);}
	.st50{fill:url(#XMLID_426_);}
	.st51{fill:url(#XMLID_427_);}
	.st52{fill:url(#XMLID_431_);}
	.st53{fill:url(#XMLID_432_);}
	.st54{fill:url(#XMLID_439_);}
	.st55{fill:url(#XMLID_448_);}
	.st56{fill:url(#XMLID_449_);}
	.st57{opacity:0.2;}
	.st58{opacity:0.35;}
	.st59{fill:#FF5722;}
	.st60{fill:#E6E7E8;}
	.st61{fill:url(#XMLID_450_);}
	.st62{fill:url(#XMLID_451_);}
	.st63{fill:url(#XMLID_452_);}
	.st64{fill:url(#XMLID_453_);}
	.st65{fill:url(#XMLID_454_);}
	.st66{fill:url(#XMLID_455_);}
	.st67{fill:#D1D3D4;}
	.st68{fill:url(#XMLID_456_);}
	.st69{fill:url(#XMLID_457_);}
	.st70{fill:#00ACBF;}
	.st71{fill:url(#XMLID_458_);}
	.st72{fill:url(#XMLID_459_);}
	.st73{fill:url(#XMLID_460_);}
	.st74{fill:url(#XMLID_469_);}
	.st75{fill:url(#XMLID_470_);}
	.st76{fill:url(#XMLID_471_);}
	.st77{fill:url(#XMLID_472_);}
	.st78{fill:url(#XMLID_473_);}
	.st79{fill:url(#XMLID_474_);}
	.st80{fill:url(#XMLID_475_);}
	.st81{fill:url(#XMLID_476_);}
	.st82{fill:url(#XMLID_477_);}
	.st83{fill:url(#XMLID_478_);}
	.st84{fill:url(#XMLID_479_);}
	.st85{fill:url(#XMLID_480_);}
	.st86{fill:url(#XMLID_481_);}
	.st87{fill:url(#XMLID_482_);}
	.st88{fill:url(#XMLID_483_);}
	.st89{fill:#00BEFF;}
	.st90{fill:url(#XMLID_484_);}
	.st91{opacity:0.1;}
	.st92{fill:url(#XMLID_485_);}
	.st93{fill:url(#XMLID_486_);}
	.st94{fill:url(#XMLID_491_);}
	.st95{fill:url(#XMLID_492_);}
	.st96{fill:url(#XMLID_493_);}
	.st97{fill:url(#XMLID_494_);}
	.st98{fill:url(#XMLID_496_);}
	.st99{fill:url(#XMLID_500_);}
	.st100{fill:url(#XMLID_501_);}
	.st101{fill:url(#XMLID_502_);}
	.st102{fill:url(#XMLID_503_);}
	.st103{opacity:0.25;fill:#212121;}
	.st104{fill:url(#XMLID_504_);}
	.st105{fill:url(#XMLID_505_);}
	.st106{fill:url(#XMLID_506_);}
	.st107{fill:url(#XMLID_507_);}
	.st108{fill:url(#XMLID_508_);}
	.st109{fill:url(#XMLID_509_);}
	.st110{fill:url(#XMLID_510_);}
	.st111{fill:url(#XMLID_511_);}
	.st112{fill:url(#XMLID_512_);}
	.st113{fill:url(#XMLID_513_);}
	.st114{fill:url(#XMLID_515_);}
</style>
<g id="XMLID_1863_">
	<linearGradient id="XMLID_393_" gradientUnits="userSpaceOnUse" x1="55.0165" y1="287.0304" x2="381.1298" y2="20.744">
		<stop  offset="0" style="stop-color:#E040FB"/>
		<stop  offset="0.4073" style="stop-color:#ED7792"/>
		<stop  offset="0.8161" style="stop-color:#FAAC2F"/>
		<stop  offset="1" style="stop-color:#FFC107"/>
	</linearGradient>
	<circle id="XMLID_1962_" class="st0" cx="208.1" cy="162.1" r="151.4"/>
	<g id="XMLID_1960_">
		<path id="XMLID_1961_" class="st3" d="M160.2,49l-7.9-7.4l-7.2,6.7c-0.4,0.4-1.1,0.4-1.4-0.1c-0.4-0.4-0.4-1.1,0.1-1.4l8.6-8
			l7.9,7.4l7.9-7.4l7.9,7.4l7.2-6.7c0.4-0.4,1.1-0.4,1.4,0.1c0.4,0.4,0.4,1.1-0.1,1.4l-8.6,8l-7.9-7.4L160.2,49z"/>
	</g>
	<g id="XMLID_1956_">
		<path id="XMLID_1957_" class="st3" d="M76.2,152.5l-5.2-9h10.4L76.2,152.5z M74.5,145.5l1.7,2.9l1.7-2.9H74.5z"/>
	</g>
	<g id="XMLID_1952_">
		<path id="XMLID_1953_" class="st3" d="M132.3,72.3h-11.6l5.8-10L132.3,72.3z M128.4,70l-1.9-3.3l-1.9,3.3H128.4z"/>
	</g>
	<g id="XMLID_1948_">
		<path id="XMLID_1949_" class="st3" d="M345.7,177.5h-11.6l5.8-10L345.7,177.5z M341.7,175.3l-1.9-3.3l-1.9,3.3H341.7z"/>
	</g>
	<g id="XMLID_1944_">
		<path id="XMLID_1945_" class="st3" d="M95.9,200.4c-2,0-3.7-1.7-3.7-3.7c0-2,1.7-3.7,3.7-3.7c2,0,3.7,1.7,3.7,3.7
			C99.6,198.7,98,200.4,95.9,200.4z M95.9,194.8c-1,0-1.9,0.8-1.9,1.9c0,1,0.8,1.9,1.9,1.9c1,0,1.9-0.8,1.9-1.9
			C97.8,195.6,97,194.8,95.9,194.8z"/>
	</g>
	<g id="XMLID_1940_">
		<path id="XMLID_1941_" class="st3" d="M240.8,39c-2,0-3.7-1.7-3.7-3.7c0-2,1.7-3.7,3.7-3.7c2,0,3.7,1.7,3.7,3.7
			C244.5,37.3,242.9,39,240.8,39z M240.8,33.4c-1,0-1.9,0.8-1.9,1.9c0,1,0.8,1.9,1.9,1.9c1,0,1.9-0.8,1.9-1.9
			C242.7,34.2,241.9,33.4,240.8,33.4z"/>
	</g>
	<g id="XMLID_1936_">
		<path id="XMLID_1937_" class="st3" d="M317.6,115.9c-2.8,0-5.1-2.3-5.1-5.1c0-2.8,2.3-5.1,5.1-5.1c2.8,0,5.1,2.3,5.1,5.1
			C322.7,113.6,320.4,115.9,317.6,115.9z M317.6,108.2c-1.4,0-2.6,1.2-2.6,2.6c0,1.4,1.2,2.6,2.6,2.6c1.4,0,2.6-1.2,2.6-2.6
			C320.2,109.3,319,108.2,317.6,108.2z"/>
	</g>
	<g id="XMLID_1934_">
		<linearGradient id="XMLID_394_" gradientUnits="userSpaceOnUse" x1="262.5492" y1="67.246" x2="365.5142" y2="67.246">
			<stop  offset="0" style="stop-color:#E040FB"/>
			<stop  offset="5.434531e-02" style="stop-color:#D840F7"/>
			<stop  offset="0.5003" style="stop-color:#9B3DD4"/>
			<stop  offset="0.828" style="stop-color:#753BBF"/>
			<stop  offset="1" style="stop-color:#673AB7"/>
		</linearGradient>
		<path id="XMLID_1935_" class="st1" d="M273.5,74.6l-10.4-10.7c-0.7-0.8-0.7-2,0-2.7c0.8-0.7,2-0.7,2.7,0l7.6,7.9l9-9.3l9,9.3
			l9-9.3l9,9.3l9-9.3l9,9.3l9-9.3l9,9.3l9-9.3L365,70.6c0.7,0.8,0.7,2,0,2.7c-0.8,0.7-2,0.7-2.7,0l-7.6-7.9l-9,9.3l-9-9.3l-9,9.3
			l-9-9.3l-9,9.3l-9-9.3l-9,9.3l-9-9.3L273.5,74.6z"/>
	</g>
	<g id="XMLID_1932_">
		<linearGradient id="XMLID_395_" gradientUnits="userSpaceOnUse" x1="34.5279" y1="114.6555" x2="137.4929" y2="114.6555">
			<stop  offset="0" style="stop-color:#FF9800"/>
			<stop  offset="0.296" style="stop-color:#FFBE00"/>
			<stop  offset="0.5766" style="stop-color:#FFDB00"/>
			<stop  offset="0.8204" style="stop-color:#FFEC00"/>
			<stop  offset="1" style="stop-color:#FFF200"/>
		</linearGradient>
		<path id="XMLID_1933_" class="st2" d="M45.5,122.1l-10.4-10.7c-0.7-0.8-0.7-2,0-2.7c0.8-0.7,2-0.7,2.7,0l7.6,7.9l9-9.3l9,9.3
			l9-9.3l9,9.3l9-9.3l9,9.3l9-9.3l9,9.3l9-9.3L137,118c0.7,0.8,0.7,2,0,2.7c-0.8,0.7-2,0.7-2.7,0l-7.6-7.9l-9,9.3l-9-9.3l-9,9.3
			l-9-9.3l-9,9.3l-9-9.3l-9,9.3l-9-9.3L45.5,122.1z"/>
	</g>
	<g id="XMLID_1864_">
		<g id="XMLID_1908_">
			<g id="XMLID_1927_">
				<path id="XMLID_1930_" class="st37" d="M289.3,314.7h-133c-0.9,0-1.7-0.8-1.7-1.7V83.3c0-0.9,0.8-1.7,1.7-1.7h133
					c0.9,0,1.7,0.8,1.7,1.7V313C291,313.9,290.2,314.7,289.3,314.7z"/>
				<rect id="XMLID_1929_" x="167.4" y="117.9" class="st3" width="110.8" height="160.6"/>
				<path id="XMLID_1928_" class="st40" d="M244.2,101.2h-42.9c-0.7,0-1.3-0.6-1.3-1.3v-3.8c0-0.7,0.6-1.3,1.3-1.3h42.9
					c0.7,0,1.3,0.6,1.3,1.3v3.8C245.5,100.6,244.9,101.2,244.2,101.2z"/>
			</g>
			<path id="XMLID_1926_" class="st4" d="M201.8,134.6h-73.6c-6,0-10.9,4.9-10.9,10.9v158.2c0,6,4.9,10.9,10.9,10.9h73.6
				c6,0,10.9-4.9,10.9-10.9V145.5C212.7,139.5,207.8,134.6,201.8,134.6z"/>
			<g id="XMLID_1915_">
				<linearGradient id="XMLID_396_" gradientUnits="userSpaceOnUse" x1="112.0215" y1="224.6514" x2="207.4711" y2="224.6514">
					<stop  offset="0" style="stop-color:#69F0AE"/>
					<stop  offset="0.6601" style="stop-color:#30FBE7"/>
					<stop  offset="1" style="stop-color:#18FFFF"/>
				</linearGradient>
				<path id="XMLID_1925_" class="st5" d="M207.5,136.7v175.9c0,1.2-0.9,2.1-2.1,2.1h-91.3c-1.2,0-2.1-0.9-2.1-2.1V136.7
					c0-1.2,0.9-2.1,2.1-2.1h91.3C206.5,134.6,207.5,135.5,207.5,136.7z"/>
				<path id="XMLID_1924_" class="st103" d="M180.1,151.8h-41.8c0,7.6-6.2,13.8-13.8,13.8v116.8c7.6,0,13.8,6.2,13.8,13.8
					c0,0.4-0.1,0.9-0.1,1.3h41.9c0-7.6,6.2-13.8,13.8-13.8V165.6C186.3,165.6,180.1,159.4,180.1,151.8z"/>
				<linearGradient id="XMLID_397_" gradientUnits="userSpaceOnUse" x1="130.5696" y1="224.784" x2="187.6203" y2="224.784">
					<stop  offset="0" style="stop-color:#69F0AE"/>
					<stop  offset="0.6601" style="stop-color:#30FBE7"/>
					<stop  offset="1" style="stop-color:#18FFFF"/>
				</linearGradient>
				<path id="XMLID_1923_" class="st7" d="M159.1,196.3c15.8,0,28.5,12.8,28.5,28.5c0,15.8-12.8,28.5-28.5,28.5
					c-15.8,0-28.5-12.8-28.5-28.5C130.6,209,143.3,196.3,159.1,196.3z"/>
				<linearGradient id="XMLID_398_" gradientUnits="userSpaceOnUse" x1="151.5054" y1="277.0598" x2="166.6844" y2="277.0598">
					<stop  offset="0" style="stop-color:#69F0AE"/>
					<stop  offset="0.6601" style="stop-color:#30FBE7"/>
					<stop  offset="1" style="stop-color:#18FFFF"/>
				</linearGradient>
				<path id="XMLID_1922_" class="st10" d="M159.1,269.5c4.2,0,7.6,3.4,7.6,7.6c0,4.2-3.4,7.6-7.6,7.6c-4.2,0-7.6-3.4-7.6-7.6
					C151.5,272.9,154.9,269.5,159.1,269.5z"/>
				<linearGradient id="XMLID_399_" gradientUnits="userSpaceOnUse" x1="151.5054" y1="172.5078" x2="166.6844" y2="172.5078">
					<stop  offset="0" style="stop-color:#69F0AE"/>
					<stop  offset="0.6601" style="stop-color:#30FBE7"/>
					<stop  offset="1" style="stop-color:#18FFFF"/>
				</linearGradient>
				<path id="XMLID_1921_" class="st11" d="M159.1,164.9c4.2,0,7.6,3.4,7.6,7.6c0,4.2-3.4,7.6-7.6,7.6c-4.2,0-7.6-3.4-7.6-7.6
					C151.5,168.3,154.9,164.9,159.1,164.9z"/>
				<g id="XMLID_1916_">
					<g id="XMLID_1919_">
						<path id="XMLID_1920_" class="st20" d="M176.9,221.3v13c0,3-2.4,5.4-5.4,5.4h-2.8V232h0.5v-10.7c0-2.1-1.7-3.7-3.7-3.7
							c-1.3,0-2.4,1.1-2.4,2.4v9.5c0,5.6-4.5,10.1-10.1,10.1h-1.4c-6.3,0-11.4-5.1-11.4-11.4v-13c0-3,2.4-5.4,5.4-5.4h3.1v7.7h-0.9
							v10.7c0,2.1,1.7,3.7,3.7,3.7h1.4c1.3,0,2.4-1.1,2.4-2.4V220c0-5.6,4.5-10.1,10.1-10.1C171.8,209.9,176.9,215,176.9,221.3z"/>
					</g>
					<g id="XMLID_1917_">
						<rect id="XMLID_1918_" x="136.4" y="220.9" class="st20" width="45.3" height="7.7"/>
					</g>
				</g>
			</g>
			<path id="XMLID_1914_" class="st4" d="M173.8,239.1h-0.6h-8H65.8c-6.4,0-11.6,5.2-11.6,11.6v53.1c0,6.4,5.2,11.6,11.6,11.6h99.4
				h8h0.6c6.4,0,11.6-5.2,11.6-11.6v-0.6v-51.9v-0.6C185.4,244.3,180.2,239.1,173.8,239.1z"/>
			<g id="XMLID_1909_">
				<path id="XMLID_1913_" class="st37" d="M177.9,315.4H51.2c-1.2,0-2.2-1-2.2-2.2v-71.9c0-1.2,1-2.2,2.2-2.2h126.7
					c1.2,0,2.2,1,2.2,2.2v71.9C180.1,314.4,179.1,315.4,177.9,315.4z"/>
				<path id="XMLID_1912_" class="st44" d="M83,282.4H60.2c-0.3,0-0.6-0.3-0.6-0.6V259c0-0.3,0.3-0.6,0.6-0.6H83
					c0.3,0,0.6,0.3,0.6,0.6v22.8C83.6,282.2,83.3,282.4,83,282.4z"/>
				<rect id="XMLID_1911_" x="57.2" y="296.1" class="st3" width="28.8" height="7.3"/>
				<rect id="XMLID_1910_" x="93.1" y="296.1" class="st3" width="66.8" height="7.3"/>
			</g>
		</g>
		<path id="XMLID_1907_" class="st4" d="M291,140.4c-4.6-1.5-9.6-2.4-14.8-2.4c-26.3,0-47.7,21.4-47.7,47.7c0,6.9,1.5,13.5,4.2,19.4
			l-4.6,25.1l22.9-4.2c7.3,4.6,16,7.3,25.3,7.3c5.2,0,10.1-0.8,14.8-2.4V140.4z"/>
		<g id="XMLID_1901_">
			<linearGradient id="XMLID_400_" gradientUnits="userSpaceOnUse" x1="235.6132" y1="235.7274" x2="303.2042" y2="152.3652">
				<stop  offset="0" style="stop-color:#536DFE"/>
				<stop  offset="0.2091" style="stop-color:#4B73FD"/>
				<stop  offset="0.5386" style="stop-color:#3484FA"/>
				<stop  offset="0.9454" style="stop-color:#0FA0F6"/>
				<stop  offset="1" style="stop-color:#0AA4F5"/>
			</linearGradient>
			<path id="XMLID_1904_" class="st12" d="M232.5,224.7l4.6-25.1c-2.7-5.9-4.2-12.5-4.2-19.4c0-26.3,21.4-47.7,47.7-47.7
				c26.3,0,47.7,21.4,47.7,47.7c0,26.3-21.4,47.7-47.7,47.7c-9.3,0-18-2.7-25.3-7.3L232.5,224.7z"/>
			<g id="XMLID_1902_">
				<polygon id="XMLID_1903_" class="st3" points="271,202 252.2,183.2 262.9,172.5 271,180.5 293.4,158.2 304.1,168.9 				"/>
			</g>
		</g>
		<g id="XMLID_1865_">
			<g id="XMLID_1896_">
				<linearGradient id="XMLID_401_" gradientUnits="userSpaceOnUse" x1="236.4791" y1="308.1787" x2="292.1101" y2="308.1787">
					<stop  offset="0" style="stop-color:#FF9800"/>
					<stop  offset="0.296" style="stop-color:#FFBE00"/>
					<stop  offset="0.5766" style="stop-color:#FFDB00"/>
					<stop  offset="0.8204" style="stop-color:#FFEC00"/>
					<stop  offset="1" style="stop-color:#FFF200"/>
				</linearGradient>
				<path id="XMLID_1900_" class="st13" d="M291.6,315.4H237c-0.3,0-0.5-0.2-0.5-0.5v-13.4c0-0.3,0.2-0.5,0.5-0.5h54.6
					c0.3,0,0.5,0.2,0.5,0.5v13.4C292.1,315.2,291.9,315.4,291.6,315.4z"/>
				<path id="XMLID_1899_" class="st18" d="M290,313.3h-51.4c-1.2,0-2.1-0.9-2.1-2.1v2.1c0,1.2,0.9,2.1,2.1,2.1H290
					c1.2,0,2.1-0.9,2.1-2.1v-2.1C292.1,312.3,291.2,313.3,290,313.3z"/>
				<rect id="XMLID_1898_" x="265.6" y="301" class="st14" width="13.2" height="14.4"/>
				
					<rect id="XMLID_1897_" x="281.2" y="301" transform="matrix(-1 -1.224647e-16 1.224647e-16 -1 565.8771 616.3575)" class="st14" width="3.5" height="14.4"/>
			</g>
			<g id="XMLID_1891_">
				<linearGradient id="XMLID_402_" gradientUnits="userSpaceOnUse" x1="297.8486" y1="308.1787" x2="353.4796" y2="308.1787">
					<stop  offset="0" style="stop-color:#FF9800"/>
					<stop  offset="0.296" style="stop-color:#FFBE00"/>
					<stop  offset="0.5766" style="stop-color:#FFDB00"/>
					<stop  offset="0.8204" style="stop-color:#FFEC00"/>
					<stop  offset="1" style="stop-color:#FFF200"/>
				</linearGradient>
				<path id="XMLID_1895_" class="st15" d="M353,315.4h-54.6c-0.3,0-0.5-0.2-0.5-0.5v-13.4c0-0.3,0.2-0.5,0.5-0.5H353
					c0.3,0,0.5,0.2,0.5,0.5v13.4C353.5,315.2,353.3,315.4,353,315.4z"/>
				<path id="XMLID_1894_" class="st18" d="M351.4,313.3h-51.4c-1.2,0-2.1-0.9-2.1-2.1v2.1c0,1.2,0.9,2.1,2.1,2.1h51.4
					c1.2,0,2.1-0.9,2.1-2.1v-2.1C353.5,312.3,352.5,313.3,351.4,313.3z"/>
				<rect id="XMLID_1893_" x="327" y="301" class="st14" width="13.2" height="14.4"/>
				
					<rect id="XMLID_1892_" x="342.6" y="301" transform="matrix(-1 -1.224647e-16 1.224647e-16 -1 688.6161 616.3575)" class="st14" width="3.5" height="14.4"/>
			</g>
			<g id="XMLID_1886_">
				<linearGradient id="XMLID_403_" gradientUnits="userSpaceOnUse" x1="294.2429" y1="293.7722" x2="349.8739" y2="293.7722">
					<stop  offset="0" style="stop-color:#FF9800"/>
					<stop  offset="0.296" style="stop-color:#FFBE00"/>
					<stop  offset="0.5766" style="stop-color:#FFDB00"/>
					<stop  offset="0.8204" style="stop-color:#FFEC00"/>
					<stop  offset="1" style="stop-color:#FFF200"/>
				</linearGradient>
				<path id="XMLID_1890_" class="st16" d="M349.4,301h-54.6c-0.3,0-0.5-0.2-0.5-0.5v-13.4c0-0.3,0.2-0.5,0.5-0.5h54.6
					c0.3,0,0.5,0.2,0.5,0.5v13.4C349.9,300.8,349.7,301,349.4,301z"/>
				<path id="XMLID_1889_" class="st18" d="M347.8,298.9h-51.4c-1.2,0-2.1-0.9-2.1-2.1v2.1c0,1.2,0.9,2.1,2.1,2.1h51.4
					c1.2,0,2.1-0.9,2.1-2.1v-2.1C349.9,297.9,348.9,298.9,347.8,298.9z"/>
				<rect id="XMLID_1888_" x="323.4" y="286.6" class="st14" width="13.2" height="14.4"/>
				
					<rect id="XMLID_1887_" x="339" y="286.6" transform="matrix(-1 -1.224647e-16 1.224647e-16 -1 681.4049 587.5443)" class="st14" width="3.5" height="14.4"/>
			</g>
			<g id="XMLID_1881_">
				<linearGradient id="XMLID_404_" gradientUnits="userSpaceOnUse" x1="304.0999" y1="280.1128" x2="359.7309" y2="280.1128">
					<stop  offset="0" style="stop-color:#FF9800"/>
					<stop  offset="0.296" style="stop-color:#FFBE00"/>
					<stop  offset="0.5766" style="stop-color:#FFDB00"/>
					<stop  offset="0.8204" style="stop-color:#FFEC00"/>
					<stop  offset="1" style="stop-color:#FFF200"/>
				</linearGradient>
				<path id="XMLID_1885_" class="st17" d="M359.2,287.3h-54.6c-0.3,0-0.5-0.2-0.5-0.5v-13.4c0-0.3,0.2-0.5,0.5-0.5h54.6
					c0.3,0,0.5,0.2,0.5,0.5v13.4C359.7,287.1,359.5,287.3,359.2,287.3z"/>
				<path id="XMLID_1884_" class="st18" d="M357.6,285.2h-51.4c-1.2,0-2.1-0.9-2.1-2.1v2.1c0,1.2,0.9,2.1,2.1,2.1h51.4
					c1.2,0,2.1-0.9,2.1-2.1v-2.1C359.7,284.3,358.8,285.2,357.6,285.2z"/>
				<rect id="XMLID_1883_" x="333.2" y="272.9" class="st14" width="13.2" height="14.4"/>
				
					<rect id="XMLID_1882_" x="348.8" y="272.9" transform="matrix(-1 -1.224647e-16 1.224647e-16 -1 701.119 560.2256)" class="st14" width="3.5" height="14.4"/>
			</g>
			<g id="XMLID_1876_">
				<linearGradient id="XMLID_405_" gradientUnits="userSpaceOnUse" x1="295.571" y1="266.2681" x2="351.202" y2="266.2681">
					<stop  offset="0" style="stop-color:#FF9800"/>
					<stop  offset="0.296" style="stop-color:#FFBE00"/>
					<stop  offset="0.5766" style="stop-color:#FFDB00"/>
					<stop  offset="0.8204" style="stop-color:#FFEC00"/>
					<stop  offset="1" style="stop-color:#FFF200"/>
				</linearGradient>
				<path id="XMLID_1880_" class="st19" d="M350.7,273.5h-54.6c-0.3,0-0.5-0.2-0.5-0.5v-13.4c0-0.3,0.2-0.5,0.5-0.5h54.6
					c0.3,0,0.5,0.2,0.5,0.5V273C351.2,273.3,351,273.5,350.7,273.5z"/>
				<path id="XMLID_1879_" class="st18" d="M349.1,271.4h-51.4c-1.2,0-2.1-0.9-2.1-2.1v2.1c0,1.2,0.9,2.1,2.1,2.1h51.4
					c1.2,0,2.1-0.9,2.1-2.1v-2.1C351.2,270.4,350.3,271.4,349.1,271.4z"/>
				<rect id="XMLID_1878_" x="324.7" y="259.1" class="st14" width="13.2" height="14.4"/>
				
					<rect id="XMLID_1877_" x="340.3" y="259.1" transform="matrix(-1 -1.224647e-16 1.224647e-16 -1 684.061 532.5363)" class="st14" width="3.5" height="14.4"/>
			</g>
			<g id="XMLID_1871_">
				<linearGradient id="XMLID_406_" gradientUnits="userSpaceOnUse" x1="233.6069" y1="293.7722" x2="289.2379" y2="293.7722">
					<stop  offset="0" style="stop-color:#FF9800"/>
					<stop  offset="0.296" style="stop-color:#FFBE00"/>
					<stop  offset="0.5766" style="stop-color:#FFDB00"/>
					<stop  offset="0.8204" style="stop-color:#FFEC00"/>
					<stop  offset="1" style="stop-color:#FFF200"/>
				</linearGradient>
				<path id="XMLID_1875_" class="st21" d="M288.7,301h-54.6c-0.3,0-0.5-0.2-0.5-0.5v-13.4c0-0.3,0.2-0.5,0.5-0.5h54.6
					c0.3,0,0.5,0.2,0.5,0.5v13.4C289.2,300.8,289,301,288.7,301z"/>
				<path id="XMLID_1874_" class="st18" d="M287.1,298.9h-51.4c-1.2,0-2.1-0.9-2.1-2.1v2.1c0,1.2,0.9,2.1,2.1,2.1h51.4
					c1.2,0,2.1-0.9,2.1-2.1v-2.1C289.2,297.9,288.3,298.9,287.1,298.9z"/>
				<rect id="XMLID_1873_" x="262.8" y="286.6" class="st14" width="13.2" height="14.4"/>
				
					<rect id="XMLID_1872_" x="278.3" y="286.6" transform="matrix(-1 -1.224647e-16 1.224647e-16 -1 560.1329 587.5443)" class="st14" width="3.5" height="14.4"/>
			</g>
			<g id="XMLID_1866_">
				<linearGradient id="XMLID_407_" gradientUnits="userSpaceOnUse" x1="238.6118" y1="280.1128" x2="294.2429" y2="280.1128">
					<stop  offset="0" style="stop-color:#FF9800"/>
					<stop  offset="0.296" style="stop-color:#FFBE00"/>
					<stop  offset="0.5766" style="stop-color:#FFDB00"/>
					<stop  offset="0.8204" style="stop-color:#FFEC00"/>
					<stop  offset="1" style="stop-color:#FFF200"/>
				</linearGradient>
				<path id="XMLID_1870_" class="st22" d="M293.7,287.3h-54.6c-0.3,0-0.5-0.2-0.5-0.5v-13.4c0-0.3,0.2-0.5,0.5-0.5h54.6
					c0.3,0,0.5,0.2,0.5,0.5v13.4C294.2,287.1,294,287.3,293.7,287.3z"/>
				<path id="XMLID_1869_" class="st18" d="M292.1,285.2h-51.4c-1.2,0-2.1-0.9-2.1-2.1v2.1c0,1.2,0.9,2.1,2.1,2.1h51.4
					c1.2,0,2.1-0.9,2.1-2.1v-2.1C294.2,284.3,293.3,285.2,292.1,285.2z"/>
				<rect id="XMLID_1868_" x="267.8" y="272.9" class="st14" width="13.2" height="14.4"/>
				
					<rect id="XMLID_1867_" x="283.3" y="272.9" transform="matrix(-1 -1.224647e-16 1.224647e-16 -1 570.1428 560.2256)" class="st14" width="3.5" height="14.4"/>
			</g>
		</g>
	</g>
</g>
</svg>
