<?xml version="1.0" encoding="utf-8"?>
<!-- Generator: Adobe Illustrator 22.1.0, SVG Export Plug-In . SVG Version: 6.00 Build 0)  -->
<svg version="1.1" id="Layer_1" xmlns="http://www.w3.org/2000/svg" xmlns:xlink="http://www.w3.org/1999/xlink" x="0px" y="0px"
	 viewBox="0 0 400 326" style="enable-background:new 0 0 400 326;" xml:space="preserve">
<style type="text/css">
	.st0{fill:url(#XMLID_2_);}
	.st1{fill:url(#XMLID_3_);}
	.st2{fill:url(#XMLID_4_);}
	.st3{fill:#FFFFFF;}
	.st4{opacity:0.3;fill:#231F20;}
	.st5{fill:url(#XMLID_5_);}
	.st6{fill:#4D2C89;}
	.st7{fill:url(#XMLID_6_);}
	.st8{fill:#BDC3C7;}
	.st9{opacity:0.3;fill:#212121;}
	.st10{fill:url(#XMLID_7_);}
	.st11{fill:url(#XMLID_8_);}
	.st12{fill:url(#XMLID_9_);}
	.st13{fill:url(#XMLID_11_);}
	.st14{fill:#FFF186;}
	.st15{fill:url(#XMLID_12_);}
	.st16{fill:url(#XMLID_13_);}
	.st17{fill:url(#XMLID_14_);}
	.st18{fill:#FFA000;}
	.st19{fill:url(#XMLID_15_);}
	.st20{fill:#212121;}
	.st21{fill:url(#XMLID_17_);}
	.st22{fill:url(#XMLID_18_);}
</style>
<g>
	<linearGradient id="XMLID_2_" gradientUnits="userSpaceOnUse" x1="107.2578" y1="289.5802" x2="270.7033" y2="32.9302">
		<stop  offset="0" style="stop-color:#E040FB"/>
		<stop  offset="0.4073" style="stop-color:#ED7792"/>
		<stop  offset="0.8161" style="stop-color:#FAAC2F"/>
		<stop  offset="1" style="stop-color:#FFC107"/>
	</linearGradient>
	<circle id="XMLID_152_" class="st0" cx="188.3" cy="162.3" r="151.4"/>
	<g id="XMLID_10_">
		<g id="XMLID_97_">
			<g id="XMLID_208_">
				<linearGradient id="XMLID_3_" gradientUnits="userSpaceOnUse" x1="92.2072" y1="297.7598" x2="208.854" y2="297.7598">
					<stop  offset="0" style="stop-color:#E040FB"/>
					<stop  offset="5.434531e-02" style="stop-color:#D840F7"/>
					<stop  offset="0.5003" style="stop-color:#9B3DD4"/>
					<stop  offset="0.828" style="stop-color:#753BBF"/>
					<stop  offset="1" style="stop-color:#673AB7"/>
				</linearGradient>
				<rect id="XMLID_213_" x="92.2" y="284.5" class="st1" width="116.6" height="26.5"/>
				<linearGradient id="XMLID_4_" gradientUnits="userSpaceOnUse" x1="92.2072" y1="230.363" x2="208.854" y2="230.363">
					<stop  offset="0" style="stop-color:#E040FB"/>
					<stop  offset="5.434531e-02" style="stop-color:#D840F7"/>
					<stop  offset="0.5003" style="stop-color:#9B3DD4"/>
					<stop  offset="0.828" style="stop-color:#753BBF"/>
					<stop  offset="1" style="stop-color:#673AB7"/>
				</linearGradient>
				<path id="XMLID_301_" class="st2" d="M208.9,284.5H92.2l0,0c14.6-19.4,22.5-43,22.5-67.3v-41h71.6v41
					C186.3,241.5,194.2,265.1,208.9,284.5L208.9,284.5z"/>
				<rect id="XMLID_300_" x="103.5" y="284.5" class="st3" width="15.1" height="26.5"/>
				<path id="XMLID_299_" class="st3" d="M133.6,176.2H126v41c0,24.3-7.9,47.9-22.5,67.3h15.1c14.6-19.4,15-43,15-67.3V176.2z"/>
				<rect id="XMLID_297_" x="114.7" y="176.2" class="st4" width="71.6" height="11.2"/>
				<linearGradient id="XMLID_5_" gradientUnits="userSpaceOnUse" x1="100.8748" y1="151.7723" x2="201.9577" y2="151.7723">
					<stop  offset="0" style="stop-color:#E040FB"/>
					<stop  offset="5.434531e-02" style="stop-color:#D840F7"/>
					<stop  offset="0.5003" style="stop-color:#9B3DD4"/>
					<stop  offset="0.828" style="stop-color:#753BBF"/>
					<stop  offset="1" style="stop-color:#673AB7"/>
				</linearGradient>
				<path id="XMLID_210_" class="st5" d="M187.1,124v13.8h-25.6V124c0-1.3-1.1-2.4-2.4-2.4h-15.3c-1.3,0-2.4,1.1-2.4,2.4v13.8h-25.6
					V124c0-1.3-1.1-2.4-2.4-2.4h-10.1c-1.3,0-2.4,1.1-2.4,2.4v13.8v16.5V176c0,3.3,2.6,5.9,5.9,5.9h89.3c3.3,0,5.9-2.6,5.9-5.9
					v-21.7v-16.5V124c0-1.3-1.1-2.4-2.4-2.4h-10.1C188.1,121.6,187.1,122.7,187.1,124z"/>
				<path id="XMLID_209_" class="st6" d="M221.6,314.9H79.5c-0.3,0-0.5-0.2-0.5-0.5V304c0-0.3,0.2-0.5,0.5-0.5h142.1
					c0.3,0,0.5,0.2,0.5,0.5v10.4C222.1,314.7,221.9,314.9,221.6,314.9z"/>
				<linearGradient id="XMLID_6_" gradientUnits="userSpaceOnUse" x1="78.9553" y1="306.4818" x2="222.1056" y2="306.4818">
					<stop  offset="0" style="stop-color:#E040FB"/>
					<stop  offset="5.434531e-02" style="stop-color:#D840F7"/>
					<stop  offset="0.5003" style="stop-color:#9B3DD4"/>
					<stop  offset="0.828" style="stop-color:#753BBF"/>
					<stop  offset="1" style="stop-color:#673AB7"/>
				</linearGradient>
				<path id="XMLID_298_" class="st7" d="M219.3,303.5H81.7c-1.5,0-2.8,1.2-2.8,2.8v3.1h143.2v-3.1
					C222.1,304.8,220.9,303.5,219.3,303.5z"/>
			</g>
			<path id="XMLID_196_" class="st4" d="M222.1,312.2v-2.7v-3.1c0-1.5-1.2-2.8-2.8-2.8h-10.5v-19c-14.6-19.4-22.5-43-22.5-67.3
				v-29.8v-5.5h9.7c3.3,0,5.9-2.6,5.9-5.9v-21.7v-16.5v-5.1c-3.1,4.7-6.1,9.5-8.6,14.6l0,0c-2.8,5.5-5.1,11.2-7.2,17l0,0
				c-0.9,2.6-1.8,5.2-2.5,7.9v0c-0.5,1.7-1,3.4-1.4,5.1v0c-0.7,2.7-1.2,5.4-1.7,8.1c0,0,0,0,0,0c-0.3,1.6-0.7,3.3-0.9,4.9
				c-0.4,2.7-0.7,5.5-1,8.2c-0.2,2-0.3,3.9-0.4,5.9c-0.1,2.7-0.3,5.3-0.3,8v0.2v5.9v8.2v5.9v8.2v14.5l7.5,9l2.3,2.7H180
				c-1.4,0-2.5,1.1-2.5,2.5v3v3.4c0,1.4,1.1,2.5,2.5,2.5h8.8l-10.5,25.5h-9.6c-1.7,0-3,1.1-3,2.5v3v3.4c0,1,0.7,1.9,1.8,2.2h51.9
				C220.9,314.9,222.1,313.7,222.1,312.2z"/>
			<g id="XMLID_282_">
				<path id="XMLID_428_" class="st3" d="M274.2,267.9l10.2-11.7l-40.8-74c25.2-4.8,34.3,9.6,35.2,11.1c0,0.1,0.1,0.1,0.2,0
					l13.2-11.6v-10.7l-37.8-46.5h-14.7l4.5-18.1c-0.1-0.1-0.1-0.1-0.2-0.1l-33,21.3l0,0c-17.9,24.6-27.6,54.3-27.6,84.8v42.8
					l13.3,15.8h74.7L274.2,267.9z"/>
				<polygon id="XMLID_429_" class="st3" points="286.8,311 180.7,311 196.6,272.5 271,272.5 				"/>
				<g id="XMLID_154_">
					<path id="XMLID_182_" class="st8" d="M213.1,144.8l-10.3-4.8c-1.4,2.4-2.8,4.8-4,7.2l10.8,5L213.1,144.8z"/>
					<path id="XMLID_177_" class="st8" d="M202,175l1.8-8l-12.2-2.7c-0.9,2.6-1.8,5.2-2.5,7.9L202,175z"/>
					<path id="XMLID_168_" class="st8" d="M200.9,186.5l0.7-8.2l-13.9-1.1c-0.7,2.7-1.2,5.4-1.7,8.1L200.9,186.5z"/>
					<path id="XMLID_167_" class="st8" d="M205.1,164.5l2.4-7.9l-11.4-3.5c-1.1,2.5-2.2,5.1-3.2,7.6L205.1,164.5z"/>
					<rect id="XMLID_160_" x="183.3" y="232.4" class="st8" width="16.6" height="8.2"/>
					<rect id="XMLID_159_" x="183.3" y="218.3" class="st8" width="16.6" height="8.2"/>
					<path id="XMLID_157_" class="st8" d="M199.9,198.4v-8.2h-14.8c-0.4,2.7-0.7,5.5-1,8.2H199.9z"/>
					<path id="XMLID_156_" class="st8" d="M199.9,204.3h-16.3c-0.1,2.7-0.3,5.3-0.3,8v0.2h16.6V204.3z"/>
				</g>
				<polygon id="XMLID_153_" class="st4" points="190.9,264.1 196.6,270.9 271.3,270.9 274.2,267.9 277.5,264.1 				"/>
				<g id="XMLID_150_">
					<path id="XMLID_151_" class="st3" d="M283,278.2h-97.6c-1.4,0-2.5-1.1-2.5-2.5v-6.5c0-1.4,1.1-2.5,2.5-2.5H283
						c1.4,0,2.5,1.1,2.5,2.5v6.5C285.5,277.1,284.4,278.2,283,278.2z"/>
				</g>
				<path id="XMLID_149_" class="st8" d="M183,272.3v3.4c0,1.4,1.1,2.5,2.5,2.5H283c1.4,0,2.5-1.1,2.5-2.5v-3.4H183z"/>
				<polygon id="XMLID_138_" class="st4" points="180.7,311 286.8,311 282.7,301 184.9,301 				"/>
				<g id="XMLID_100_">
					<path id="XMLID_102_" class="st3" d="M294.3,315.1H174.2c-1.7,0-3-1.1-3-2.5v-6.5c0-1.4,1.4-2.5,3-2.5h120.1c1.7,0,3,1.1,3,2.5
						v6.5C297.3,314,295.9,315.1,294.3,315.1z"/>
				</g>
				<path id="XMLID_98_" class="st8" d="M171.2,309.2v3.4c0,1.4,1.4,2.5,3,2.5h120.1c1.7,0,3-1.1,3-2.5v-3.4H171.2z"/>
			</g>
		</g>
	</g>
	<g id="XMLID_158_">
		<path id="XMLID_164_" class="st9" d="M121.1,314.2v-19.8c0-0.5-0.4-0.9-0.9-0.9h-8.9c0-0.3,0-0.7-0.1-1c-0.1-0.3-0.2-0.6-0.3-0.9
			l0,0c-0.8-2.1-2.8-3.6-5.1-3.6h-4.9v-0.1c1.4-0.2,2.5-1.3,2.5-2.7v-0.6v0v0c0-1.5-1.1-2.8-2.5-3.2v-3.7c1.4-0.2,2.5-1.3,2.5-2.7
			v-0.6v0v0c0-1.5-1.1-2.8-2.5-3.2c-2.5,4.6-5.4,9-8.6,13.3v19H81.7h-1.6c-0.6,0-1.1,0.5-1.1,1.1v1.6v3.1v4.3c0,0.6,0.5,1.1,1.1,1.1
			h40.6C120.9,314.7,121.1,314.5,121.1,314.2z"/>
		<path id="XMLID_179_" class="st9" d="M114.7,217.2c0,16.4-3.6,32.4-10.4,47.1c0,0,0,0,0,0c0.1,0,0.1-0.1,0.2-0.1
			c4.6-2.3,8.5-5.8,11.1-10.3c0.2-0.1,0.5-0.2,0.7-0.3c5.3-2,9.7-5.9,12-11.1l10.9-24.7c1.4-3.2,1.1-6.8-0.8-9.8
			c-2.1-3.2-5.7-5.1-9.8-5.1h-3.9h-2.2l0.2-2.2h2.4v-3.9h-10.5V217.2z M119.4,242.2l3-35.7h2.1h4.3c2.8,0,5.3,1.3,6.7,3.5
			c1.3,1.9,1.5,4.3,0.5,6.4l-10.9,24.7c-1.4,3.1-3.6,5.6-6.4,7.4c-0.2,0.1-0.5,0.3-0.7,0.4c0,0-0.1,0-0.1,0
			C118.7,246.8,119.2,244.6,119.4,242.2z"/>
	</g>
	<g id="XMLID_16_">
		<g id="XMLID_38_">
			<g id="XMLID_588_">
				<linearGradient id="XMLID_7_" gradientUnits="userSpaceOnUse" x1="39.7002" y1="229.054" x2="71.7393" y2="229.054">
					<stop  offset="0" style="stop-color:#FF9800"/>
					<stop  offset="0.296" style="stop-color:#FFBE00"/>
					<stop  offset="0.5766" style="stop-color:#FFDB00"/>
					<stop  offset="0.8204" style="stop-color:#FFEC00"/>
					<stop  offset="1" style="stop-color:#FFF200"/>
				</linearGradient>
				<path id="XMLID_589_" class="st10" d="M71.7,255.2c-8.9,0-16.8-5-20.2-12.6l-10.9-24.7c-1.4-3.2-1.1-6.8,0.8-9.8
					c2.1-3.2,5.7-5.1,9.8-5.1h18.2v3.6H51.2c-2.8,0-5.3,1.3-6.7,3.5c-1.3,1.9-1.5,4.3-0.5,6.4l10.9,24.7c2.8,6.4,9.5,10.5,16.9,10.5
					V255.2z"/>
			</g>
			<linearGradient id="XMLID_8_" gradientUnits="userSpaceOnUse" x1="78.7324" y1="274.4486" x2="95.1442" y2="274.4486">
				<stop  offset="0" style="stop-color:#FF9800"/>
				<stop  offset="0.296" style="stop-color:#FFBE00"/>
				<stop  offset="0.5766" style="stop-color:#FFDB00"/>
				<stop  offset="0.8204" style="stop-color:#FFEC00"/>
				<stop  offset="1" style="stop-color:#FFF200"/>
			</linearGradient>
			<rect id="XMLID_587_" x="78.7" y="257.8" class="st11" width="16.4" height="33.2"/>
			<polygon id="XMLID_586_" class="st4" points="95.1,267.3 78.7,269.7 78.7,257.8 95.1,257.8 			"/>
			<g id="XMLID_583_">
				<polygon id="XMLID_585_" class="st4" points="69.3,202.9 55.1,202.9 55.4,206.5 69.3,206.5 				"/>
				<path id="XMLID_584_" class="st4" d="M61.9,253c3,1.4,6.3,2.2,9.8,2.2v-3.6c-4.6,0-8.9-1.6-12.1-4.3
					C60.2,249.3,60.9,251.2,61.9,253z"/>
			</g>
			<g id="XMLID_581_">
				<linearGradient id="XMLID_9_" gradientUnits="userSpaceOnUse" x1="102.5549" y1="229.054" x2="134.5939" y2="229.054">
					<stop  offset="0" style="stop-color:#FF9800"/>
					<stop  offset="0.296" style="stop-color:#FFBE00"/>
					<stop  offset="0.5766" style="stop-color:#FFDB00"/>
					<stop  offset="0.8204" style="stop-color:#FFEC00"/>
					<stop  offset="1" style="stop-color:#FFF200"/>
				</linearGradient>
				<path id="XMLID_582_" class="st12" d="M102.6,255.2c8.9,0,16.8-5,20.2-12.6l10.9-24.7c1.4-3.2,1.1-6.8-0.8-9.8
					c-2.1-3.2-5.7-5.1-9.8-5.1H105v3.6h18.2c2.8,0,5.3,1.3,6.7,3.5c1.3,1.9,1.5,4.3,0.5,6.4l-10.9,24.7c-2.8,6.4-9.5,10.5-16.9,10.5
					V255.2z"/>
			</g>
			<g id="XMLID_578_">
				<polygon id="XMLID_580_" class="st4" points="105,202.9 119.2,202.9 118.9,206.5 105,206.5 				"/>
				<path id="XMLID_579_" class="st4" d="M112.4,253c-3,1.4-6.3,2.2-9.8,2.2v-3.6c4.6,0,8.9-1.6,12.1-4.3
					C114.1,249.3,113.4,251.2,112.4,253z"/>
			</g>
			<linearGradient id="XMLID_11_" gradientUnits="userSpaceOnUse" x1="56.4729" y1="232.731" x2="117.404" y2="232.731">
				<stop  offset="0" style="stop-color:#FF9800"/>
				<stop  offset="0.296" style="stop-color:#FFBE00"/>
				<stop  offset="0.5766" style="stop-color:#FFDB00"/>
				<stop  offset="0.8204" style="stop-color:#FFEC00"/>
				<stop  offset="1" style="stop-color:#FFF200"/>
			</linearGradient>
			<path id="XMLID_577_" class="st13" d="M87.1,267L87.1,267c-13.9,0-25.5-10.7-26.6-24.5l-3.9-42.6l-0.1-1.4h60.9l-3.7,43.7
				C112.7,256.2,101.1,267,87.1,267z"/>
			<path id="XMLID_574_" class="st14" d="M91.1,266.6c3.6-0.5,7-1.8,10.1-3.7c0.1-1,0.2-2.1,0.3-3.2l3.1-60.2H93.9
				C93.9,199.6,92.1,243.3,91.1,266.6z"/>
			<linearGradient id="XMLID_12_" gradientUnits="userSpaceOnUse" x1="76.2392" y1="274.4486" x2="97.6372" y2="274.4486">
				<stop  offset="0" style="stop-color:#FF9800"/>
				<stop  offset="0.296" style="stop-color:#FFBE00"/>
				<stop  offset="0.5766" style="stop-color:#FFDB00"/>
				<stop  offset="0.8204" style="stop-color:#FFEC00"/>
				<stop  offset="1" style="stop-color:#FFF200"/>
			</linearGradient>
			<path id="XMLID_573_" class="st15" d="M96.1,277.8H77.7c-0.8,0-1.5-0.7-1.5-1.5v-3.7c0-0.8,0.7-1.5,1.5-1.5h18.4
				c0.8,0,1.5,0.7,1.5,1.5v3.7C97.6,277.1,97,277.8,96.1,277.8z"/>
			<linearGradient id="XMLID_13_" gradientUnits="userSpaceOnUse" x1="76.2392" y1="284.6282" x2="97.6372" y2="284.6282">
				<stop  offset="0" style="stop-color:#FF9800"/>
				<stop  offset="0.296" style="stop-color:#FFBE00"/>
				<stop  offset="0.5766" style="stop-color:#FFDB00"/>
				<stop  offset="0.8204" style="stop-color:#FFEC00"/>
				<stop  offset="1" style="stop-color:#FFF200"/>
			</linearGradient>
			<path id="XMLID_572_" class="st16" d="M96.1,288H77.7c-0.8,0-1.5-0.7-1.5-1.5v-3.7c0-0.8,0.7-1.5,1.5-1.5h18.4
				c0.8,0,1.5,0.7,1.5,1.5v3.7C97.6,287.3,97,288,96.1,288z"/>
			<linearGradient id="XMLID_14_" gradientUnits="userSpaceOnUse" x1="68.2822" y1="290.7539" x2="105.5943" y2="290.7539">
				<stop  offset="0" style="stop-color:#FF9800"/>
				<stop  offset="0.296" style="stop-color:#FFBE00"/>
				<stop  offset="0.5766" style="stop-color:#FFDB00"/>
				<stop  offset="0.8204" style="stop-color:#FFEC00"/>
				<stop  offset="1" style="stop-color:#FFF200"/>
			</linearGradient>
			<path id="XMLID_571_" class="st17" d="M105.6,293.5L105.6,293.5c0-3-2.5-5.5-5.5-5.5H73.8c-3,0-5.5,2.5-5.5,5.5l0,0H105.6z"/>
			<path id="XMLID_570_" class="st18" d="M68.3,293.5h37.3c0-0.7-0.1-1.3-0.4-1.9H68.6C68.4,292.2,68.3,292.8,68.3,293.5z"/>
			<path id="XMLID_569_" class="st18" d="M76.2,274.4v0.6c0,1.5,1.3,2.8,2.8,2.8h15.8c1.5,0,2.8-1.3,2.8-2.8v-0.6H76.2z"/>
			<path id="XMLID_568_" class="st18" d="M76.2,284.6v0.6c0,1.5,1.3,2.8,2.8,2.8h15.8c1.5,0,2.8-1.3,2.8-2.8v-0.6H76.2z"/>
			<polygon id="XMLID_567_" class="st4" points="56.6,199.9 57,204 117.1,201.9 117.4,198.5 56.5,198.5 			"/>
			<linearGradient id="XMLID_15_" gradientUnits="userSpaceOnUse" x1="54.2449" y1="198.7433" x2="119.6316" y2="198.7433">
				<stop  offset="0" style="stop-color:#FF9800"/>
				<stop  offset="0.296" style="stop-color:#FFBE00"/>
				<stop  offset="0.5766" style="stop-color:#FFDB00"/>
				<stop  offset="0.8204" style="stop-color:#FFEC00"/>
				<stop  offset="1" style="stop-color:#FFF200"/>
			</linearGradient>
			<rect id="XMLID_566_" x="54.2" y="196.8" class="st19" width="65.4" height="3.9"/>
			<rect id="XMLID_565_" x="92.8" y="196.8" class="st14" width="13" height="3.9"/>
			<g id="XMLID_960_">
				<path id="XMLID_560_" class="st20" d="M115,315.1H59.5c-0.2,0-0.4-0.2-0.4-0.4v-20.8c0-0.2,0.2-0.4,0.4-0.4H115
					c0.2,0,0.4,0.2,0.4,0.4v20.8C115.4,314.9,115.3,315.1,115,315.1z"/>
			</g>
			<rect id="XMLID_559_" x="73.2" y="296.4" class="st3" width="27.4" height="15.8"/>
			<g id="XMLID_555_">
				<path id="XMLID_557_" class="st20" d="M84.8,306.9h1.4v-6.1h-1.4v-1.6h3.1v7.7h1.3v1.5h-4.3V306.9z"/>
			</g>
		</g>
	</g>
	<g id="XMLID_170_">
		<linearGradient id="XMLID_17_" gradientUnits="userSpaceOnUse" x1="30.9059" y1="98.207" x2="98.5744" y2="98.207">
			<stop  offset="0" style="stop-color:#FF9800"/>
			<stop  offset="0.296" style="stop-color:#FFBE00"/>
			<stop  offset="0.5766" style="stop-color:#FFDB00"/>
			<stop  offset="0.8204" style="stop-color:#FFEC00"/>
			<stop  offset="1" style="stop-color:#FFF200"/>
		</linearGradient>
		<path id="XMLID_174_" class="st21" d="M53.9,105.1L43.1,95.1l-9.9,9.2c-0.6,0.5-1.4,0.5-2-0.1c-0.5-0.6-0.5-1.4,0.1-2l11.8-11
			l10.8,10.1l10.8-10.1l10.8,10.1l10.8-10.1l11.8,11c0.6,0.5,0.6,1.4,0.1,2c-0.5,0.6-1.4,0.6-2,0.1l-9.9-9.2l-10.8,10.1L64.7,95.1
			L53.9,105.1z"/>
	</g>
	<g id="XMLID_200_">
		<path id="XMLID_201_" class="st3" d="M259.6,102.3l-9.9-9.2l-9,8.4c-0.5,0.5-1.3,0.4-1.8-0.1c-0.5-0.5-0.5-1.3,0.1-1.8l10.7-10
			l9.9,9.2l9.9-9.2l9.9,9.2l9.9-9.2l10.7,10c0.5,0.5,0.5,1.3,0.1,1.8c-0.5,0.5-1.3,0.5-1.8,0.1l-9-8.4l-9.9,9.2l-9.9-9.2
			L259.6,102.3z"/>
	</g>
	<g id="XMLID_175_">
		<linearGradient id="XMLID_18_" gradientUnits="userSpaceOnUse" x1="285.9973" y1="132.7097" x2="369.1362" y2="132.7097">
			<stop  offset="0" style="stop-color:#18FFFF"/>
			<stop  offset="0.3064" style="stop-color:#14E7FC"/>
			<stop  offset="0.9516" style="stop-color:#0BA9F6"/>
			<stop  offset="1" style="stop-color:#0AA4F5"/>
		</linearGradient>
		<path id="XMLID_180_" class="st22" d="M314.3,141.2L301,128.9l-12.1,11.3c-0.7,0.6-1.8,0.6-2.4-0.1c-0.6-0.7-0.6-1.8,0.1-2.4
			l14.5-13.5l13.3,12.4l13.3-12.4l13.3,12.4l13.3-12.4l14.5,13.5c0.7,0.6,0.7,1.7,0.1,2.4c-0.6,0.7-1.7,0.7-2.4,0.1l-12.1-11.3
			l-13.3,12.4l-13.3-12.4L314.3,141.2z"/>
	</g>
	<g id="XMLID_173_">
		<path id="XMLID_176_" class="st3" d="M131.4,76.7L119,63.9c-0.6-0.6-0.5-1.5,0-2.1c0.6-0.6,1.5-0.5,2.1,0l10.3,10.6l11.4-11.7
			l11.4,11.7l11.4-11.7l11.4,11.7l11.4-11.7l11.4,11.7l11.4-11.7l12.4,12.8c0.6,0.6,0.5,1.5,0,2.1c-0.6,0.6-1.5,0.6-2.1,0L210.9,65
			l-11.4,11.7L188.2,65l-11.4,11.7L165.5,65l-11.4,11.7L142.7,65L131.4,76.7z"/>
	</g>
	<g id="XMLID_186_">
		<path id="XMLID_191_" class="st3" d="M82.3,163.5c-2.5,0-4.6-2.1-4.6-4.6c0-2.6,2.1-4.6,4.6-4.6c2.5,0,4.6,2.1,4.6,4.6
			C86.9,161.4,84.8,163.5,82.3,163.5z M82.3,156.5c-1.3,0-2.4,1.1-2.4,2.4c0,1.3,1.1,2.4,2.4,2.4c1.3,0,2.4-1.1,2.4-2.4
			C84.6,157.6,83.6,156.5,82.3,156.5z"/>
	</g>
	<g id="XMLID_440_">
		<path id="XMLID_441_" class="st3" d="M277.5,73.4c-2.5,0-4.6-2.1-4.6-4.6c0-2.5,2.1-4.6,4.6-4.6c2.5,0,4.6,2.1,4.6,4.6
			C282.1,71.3,280,73.4,277.5,73.4z M277.5,66.4c-1.3,0-2.4,1.1-2.4,2.4s1.1,2.4,2.4,2.4c1.3,0,2.4-1.1,2.4-2.4
			S278.8,66.4,277.5,66.4z"/>
	</g>
	<g id="XMLID_461_">
		<path id="XMLID_462_" class="st3" d="M91.1,68.8c-2.5,0-4.6-2.1-4.6-4.6c0-2.5,2.1-4.6,4.6-4.6c2.5,0,4.6,2.1,4.6,4.6
			C95.7,66.7,93.7,68.8,91.1,68.8z M91.1,61.8c-1.3,0-2.4,1.1-2.4,2.4c0,1.3,1.1,2.4,2.4,2.4c1.3,0,2.4-1.1,2.4-2.4
			C93.5,62.8,92.4,61.8,91.1,61.8z"/>
	</g>
	<g id="XMLID_202_">
		<path id="XMLID_203_" class="st3" d="M201.6,102.9c-1.9,0-3.4-1.5-3.4-3.4c0-1.9,1.5-3.4,3.4-3.4c1.9,0,3.4,1.5,3.4,3.4
			C205,101.4,203.5,102.9,201.6,102.9z M201.6,97.8c-0.9,0-1.7,0.8-1.7,1.7c0,0.9,0.8,1.7,1.7,1.7c0.9,0,1.7-0.8,1.7-1.7
			C203.3,98.6,202.6,97.8,201.6,97.8z"/>
	</g>
	<g id="XMLID_251_">
		<path id="XMLID_252_" class="st3" d="M158.6,38c-1.9,0-3.4-1.5-3.4-3.4c0-1.9,1.5-3.4,3.4-3.4s3.4,1.5,3.4,3.4
			C161.9,36.5,160.4,38,158.6,38z M158.6,32.9c-0.9,0-1.7,0.8-1.7,1.7s0.8,1.7,1.7,1.7s1.7-0.8,1.7-1.7S159.5,32.9,158.6,32.9z"/>
	</g>
	<g id="XMLID_183_">
		<path id="XMLID_188_" class="st3" d="M56.8,132.7l-7.1-12.3h14.2L56.8,132.7z M54.5,123.2l2.3,4l2.3-4H54.5z"/>
	</g>
	<g id="XMLID_444_">
		<path id="XMLID_445_" class="st3" d="M218.6,37.4l-7.1-12.3h14.2L218.6,37.4z M216.3,27.9l2.3,4l2.3-4H216.3z"/>
	</g>
	<g id="XMLID_309_">
		<path id="XMLID_436_" class="st3" d="M316.3,181.1l-7.1-12.3h14.2L316.3,181.1z M314,171.6l2.3,4l2.3-4H314z"/>
	</g>
	<g id="XMLID_187_">
		<path id="XMLID_197_" class="st3" d="M140.1,105.3h-11l5.5-9.5L140.1,105.3z M136.4,103.2l-1.8-3.1l-1.8,3.1H136.4z"/>
	</g>
	<g id="XMLID_465_">
		<path id="XMLID_466_" class="st3" d="M281.6,123.9h-11l5.5-9.5L281.6,123.9z M277.9,121.8l-1.8-3.1l-1.8,3.1H277.9z"/>
	</g>
</g>
</svg>
