<?xml version="1.0" encoding="utf-8"?>
<!-- Generator: Adobe Illustrator 22.1.0, SVG Export Plug-In . SVG Version: 6.00 Build 0)  -->
<svg version="1.1" id="Layer_1" xmlns="http://www.w3.org/2000/svg" xmlns:xlink="http://www.w3.org/1999/xlink" x="0px" y="0px"
	 viewBox="0 0 400 326" style="enable-background:new 0 0 400 326;" xml:space="preserve">
<style type="text/css">
	.st0{fill:url(#XMLID_393_);}
	.st1{fill:url(#XMLID_394_);}
	.st2{fill:url(#XMLID_395_);}
	.st3{fill:#FFFFFF;}
	.st4{opacity:0.3;fill:#231F20;}
	.st5{fill:url(#XMLID_396_);}
	.st6{fill:#4D2C89;}
	.st7{fill:url(#XMLID_397_);}
	.st8{fill:#BDC3C7;}
	.st9{opacity:0.3;fill:#212121;}
	.st10{fill:url(#XMLID_398_);}
	.st11{fill:url(#XMLID_399_);}
	.st12{fill:url(#XMLID_400_);}
	.st13{fill:url(#XMLID_401_);}
	.st14{fill:#FFF186;}
	.st15{fill:url(#XMLID_402_);}
	.st16{fill:url(#XMLID_403_);}
	.st17{fill:url(#XMLID_404_);}
	.st18{fill:#FFA000;}
	.st19{fill:url(#XMLID_405_);}
	.st20{fill:#212121;}
	.st21{fill:url(#XMLID_406_);}
	.st22{fill:url(#XMLID_407_);}
	.st23{fill:url(#XMLID_408_);}
	.st24{fill:url(#XMLID_409_);}
	.st25{fill:url(#XMLID_410_);}
	.st26{fill:url(#XMLID_411_);}
	.st27{fill:url(#XMLID_412_);}
	.st28{fill:url(#XMLID_413_);}
	.st29{fill:url(#XMLID_414_);}
	.st30{fill:#ECECEC;}
	.st31{fill:#D8D8D8;}
	.st32{fill:#FAFAFA;}
	.st33{fill:#C5C5C5;}
	.st34{fill:#373737;}
	.st35{fill:url(#XMLID_416_);}
	.st36{fill:#58595B;}
	.st37{fill:#414042;}
	.st38{fill:url(#XMLID_417_);}
	.st39{opacity:0.3;fill:#414042;}
	.st40{fill:#231F20;}
	.st41{fill:url(#XMLID_418_);}
	.st42{fill:url(#XMLID_419_);}
	.st43{fill:url(#XMLID_420_);}
	.st44{fill:#FFC107;}
	.st45{fill:url(#XMLID_421_);}
	.st46{fill:url(#XMLID_422_);}
	.st47{fill:url(#XMLID_423_);}
	.st48{fill:url(#XMLID_424_);}
	.st49{fill:url(#XMLID_425_);}
	.st50{fill:url(#XMLID_426_);}
	.st51{fill:url(#XMLID_427_);}
	.st52{fill:url(#XMLID_431_);}
	.st53{fill:url(#XMLID_432_);}
	.st54{fill:url(#XMLID_439_);}
	.st55{fill:url(#XMLID_448_);}
	.st56{fill:url(#XMLID_449_);}
	.st57{opacity:0.2;}
	.st58{opacity:0.35;}
	.st59{fill:#FF5722;}
	.st60{fill:#E6E7E8;}
	.st61{fill:url(#XMLID_450_);}
	.st62{fill:url(#XMLID_451_);}
	.st63{fill:url(#XMLID_452_);}
	.st64{fill:url(#XMLID_453_);}
	.st65{fill:url(#XMLID_454_);}
	.st66{fill:url(#XMLID_455_);}
	.st67{fill:#D1D3D4;}
	.st68{fill:url(#XMLID_456_);}
	.st69{fill:url(#XMLID_457_);}
	.st70{fill:#00ACBF;}
	.st71{fill:url(#XMLID_458_);}
	.st72{fill:url(#XMLID_459_);}
	.st73{fill:url(#XMLID_460_);}
	.st74{fill:url(#XMLID_469_);}
	.st75{fill:url(#XMLID_470_);}
	.st76{fill:url(#XMLID_471_);}
	.st77{fill:url(#XMLID_472_);}
	.st78{fill:url(#XMLID_473_);}
	.st79{fill:url(#XMLID_474_);}
	.st80{fill:url(#XMLID_475_);}
	.st81{fill:url(#XMLID_476_);}
	.st82{fill:url(#XMLID_477_);}
	.st83{fill:url(#XMLID_478_);}
	.st84{fill:url(#XMLID_479_);}
	.st85{fill:url(#XMLID_480_);}
	.st86{fill:url(#XMLID_481_);}
	.st87{fill:url(#XMLID_482_);}
	.st88{fill:url(#XMLID_483_);}
	.st89{fill:#00BEFF;}
	.st90{fill:url(#XMLID_484_);}
	.st91{opacity:0.1;}
	.st92{fill:url(#XMLID_485_);}
	.st93{fill:url(#XMLID_486_);}
	.st94{fill:url(#XMLID_491_);}
	.st95{fill:url(#XMLID_492_);}
	.st96{fill:url(#XMLID_493_);}
	.st97{fill:url(#XMLID_494_);}
	.st98{fill:url(#XMLID_496_);}
	.st99{fill:url(#XMLID_500_);}
	.st100{fill:url(#XMLID_501_);}
	.st101{fill:url(#XMLID_502_);}
	.st102{fill:url(#XMLID_503_);}
	.st103{opacity:0.25;fill:#212121;}
	.st104{fill:url(#XMLID_504_);}
	.st105{fill:url(#XMLID_505_);}
	.st106{fill:url(#XMLID_506_);}
	.st107{fill:url(#XMLID_507_);}
	.st108{fill:url(#XMLID_508_);}
	.st109{fill:url(#XMLID_509_);}
	.st110{fill:url(#XMLID_510_);}
	.st111{fill:url(#XMLID_511_);}
	.st112{fill:url(#XMLID_512_);}
	.st113{fill:url(#XMLID_513_);}
	.st114{fill:url(#XMLID_515_);}
	.st115{fill:url(#XMLID_517_);}
	.st116{fill:url(#XMLID_518_);}
	.st117{fill:url(#XMLID_519_);}
	.st118{fill:#E91E63;}
	.st119{fill:#ED4B82;}
	.st120{fill:#F278A1;}
	.st121{fill:#AF174A;}
	.st122{fill:url(#XMLID_520_);}
	.st123{fill:url(#XMLID_521_);}
	.st124{fill:url(#XMLID_522_);}
	.st125{fill:url(#XMLID_523_);}
	.st126{opacity:0.3;}
	.st127{fill:url(#XMLID_524_);}
	.st128{fill:url(#XMLID_525_);}
	.st129{fill:url(#XMLID_526_);}
	.st130{fill:url(#XMLID_527_);}
	.st131{fill:url(#XMLID_528_);}
	.st132{fill:url(#XMLID_529_);}
	.st133{fill:url(#XMLID_530_);}
	.st134{fill:url(#XMLID_531_);}
	.st135{fill:url(#XMLID_532_);}
	.st136{fill:url(#XMLID_533_);}
	.st137{fill:url(#XMLID_534_);}
	.st138{fill:url(#XMLID_535_);}
	.st139{fill:url(#XMLID_536_);}
	.st140{fill:url(#XMLID_537_);}
	.st141{fill:url(#XMLID_538_);}
	.st142{fill:url(#XMLID_539_);}
	.st143{fill:url(#XMLID_540_);}
	.st144{fill:url(#XMLID_541_);}
	.st145{fill:none;stroke:#FFFFFF;stroke-width:2;stroke-miterlimit:10;}
	.st146{opacity:0.31;fill:#231F20;}
	.st147{fill:url(#XMLID_553_);}
	.st148{fill:url(#XMLID_554_);}
	.st149{fill:url(#XMLID_556_);}
	.st150{fill:#F1F2F2;}
	.st151{fill:#40C4FF;}
	.st152{opacity:0.2;fill:#231F20;}
	.st153{fill:url(#XMLID_561_);}
	.st154{opacity:0.1;fill:#231F20;}
	.st155{fill:url(#XMLID_562_);}
	.st156{fill:url(#XMLID_575_);}
	.st157{fill:url(#XMLID_576_);}
	.st158{fill:url(#XMLID_590_);}
	.st159{fill:url(#XMLID_591_);}
	.st160{fill:url(#XMLID_592_);}
	.st161{fill:#FFCD39;}
	.st162{fill:url(#XMLID_593_);}
	.st163{fill:url(#XMLID_594_);}
	.st164{fill:url(#XMLID_595_);}
	.st165{fill:url(#XMLID_596_);}
</style>
<g id="XMLID_1546_">
	<linearGradient id="XMLID_393_" gradientUnits="userSpaceOnUse" x1="66.2066" y1="287.7087" x2="392.32" y2="21.4223">
		<stop  offset="0" style="stop-color:#0AA4F5"/>
		<stop  offset="4.839605e-02" style="stop-color:#0BA9F6"/>
		<stop  offset="0.6936" style="stop-color:#14E7FC"/>
		<stop  offset="1" style="stop-color:#18FFFF"/>
	</linearGradient>
	<circle id="XMLID_1666_" class="st0" cx="219.3" cy="162.7" r="151.4"/>
	<g id="XMLID_1630_">
		<g id="XMLID_1659_">
			<polygon id="XMLID_1665_" class="st32" points="297.6,304.9 196.6,304.9 203.7,261.3 291.1,261.3 			"/>
			<polygon id="XMLID_1664_" class="st33" points="203.7,261.3 198.3,294 294.9,287 291.1,261.3 			"/>
			<path id="XMLID_1663_" class="st34" d="M364.4,123.9c0-2.4-1.9-4.3-4.3-4.3h-226c-2.4,0-4.3,1.9-4.3,4.3v131.6
				c0,2.4,1.9,4.3,4.3,4.3h226c2.4,0,4.3-1.9,4.3-4.3V123.9z"/>
			<path id="XMLID_1662_" class="st150" d="M364.4,252.1V270c0,6.3-5.1,11.5-11.5,11.5H141.3c-6.3,0-11.5-5.1-11.5-11.5v-17.9H364.4
				z"/>
			<rect id="XMLID_1661_" x="139.9" y="129.5" class="st151" width="214.5" height="112.9"/>
			<path id="XMLID_1660_" class="st30" d="M305.2,314.7H188.3c-2.7,0-4.9-2.2-4.9-4.9l0,0c0-2.7,2.2-4.9,4.9-4.9h116.9
				c2.7,0,4.9,2.2,4.9,4.9l0,0C310.1,312.5,307.9,314.7,305.2,314.7z"/>
		</g>
		<polygon id="XMLID_1658_" class="st152" points="333.1,242.9 161.1,242.9 155.9,119.6 338.4,119.6 		"/>
		<g id="XMLID_1631_">
			<path id="XMLID_1657_" class="st3" d="M333.4,242.9H161.6c-0.5,0-0.9-0.4-0.9-0.9V65.2c0-1.4,1.1-2.5,2.5-2.5h168.5
				c1.4,0,2.5,1.1,2.5,2.5V242C334.3,242.5,333.9,242.9,333.4,242.9z"/>
			<path id="XMLID_1656_" class="st67" d="M334.3,86.3V68.6c0-3.3-2.7-6-6-6H166.7c-3.3,0-6,2.7-6,6v17.7H334.3z"/>
			<path id="XMLID_1655_" class="st3" d="M179.7,72.7c0,1.4-1.1,2.6-2.6,2.6c-1.4,0-2.6-1.1-2.6-2.6c0-1.4,1.1-2.6,2.6-2.6
				C178.5,70.1,179.7,71.2,179.7,72.7z"/>
			<path id="XMLID_1654_" class="st3" d="M189.5,72.7c0,1.4-1.1,2.6-2.6,2.6c-1.4,0-2.6-1.1-2.6-2.6c0-1.4,1.1-2.6,2.6-2.6
				C188.3,70.1,189.5,71.2,189.5,72.7z"/>
			<path id="XMLID_1653_" class="st3" d="M199.3,72.7c0,1.4-1.1,2.6-2.6,2.6c-1.4,0-2.6-1.1-2.6-2.6c0-1.4,1.1-2.6,2.6-2.6
				C198.1,70.1,199.3,71.2,199.3,72.7z"/>
			<g id="XMLID_1632_">
				<linearGradient id="XMLID_394_" gradientUnits="userSpaceOnUse" x1="247.9782" y1="245.6454" x2="247.9782" y2="52.4661">
					<stop  offset="0" style="stop-color:#0AA4F5"/>
					<stop  offset="0.1697" style="stop-color:#27BBDF"/>
					<stop  offset="0.3816" style="stop-color:#44D2CA"/>
					<stop  offset="0.5926" style="stop-color:#58E3BA"/>
					<stop  offset="0.8" style="stop-color:#65EDB1"/>
					<stop  offset="1" style="stop-color:#69F0AE"/>
				</linearGradient>
				<path id="XMLID_1644_" class="st1" d="M186.9,242.9h-11.8V170l11.8-12.3V242.9z M206,138.6l-11.8,11.3v93.1H206V138.6z
					 M225.2,138.6l-11.8-10.2v114.6h11.8V138.6z M244.3,141.7l-5.9,6.1l-5.9-4.1v99.2h11.8V141.7z M263.4,123.2l-11.8,12.3v107.4
					h11.8V123.2z M282.6,124.3l-11.8-9.2v127.9h11.8V124.3z M301.7,129.4l-11.8,4.1v109.5h11.8V129.4z M320.8,108.9L309,120.2v122.8
					h11.8V108.9z"/>
				<path id="XMLID_1635_" class="st154" d="M297.3,130.9l4.4-1.5v4.4l-2.1,2.1c0.2,0.7,0.4,1.4,0.4,2.1c0,3.8-3.1,6.8-6.8,6.8
					c-1.2,0-2.3-0.4-3.3-1v-10.3l5.4-1.9c0.3,0.1,0.6,0.2,0.9,0.4L297.3,130.9z M270.8,124.9c0.2,0,0.4,0.1,0.7,0.1
					c1.3,0,2.5-0.5,3.6-1.2l7.5,7.5v-7l-11.8-9.2V124.9z M236.4,146.4c-0.4,0.1-0.7,0.2-1,0.3l-2.8-2.8v13.3
					c1.2,1.6,3.1,2.7,5.3,2.7c3.2,0,5.8-2.3,6.5-5.3v-3.4c-0.2-0.6-0.5-1.1-0.8-1.6l0.8-0.8v-7.1l-5.9,6.1L236.4,146.4z M309,120.2
					v6.3l11.8-11.8v-5.8L309,120.2z M194.3,157.9l11.8-11.8v-7.3l-11.8,11.8V157.9z M251.7,141.5l11.8-11.8v-6.5l-11.8,12.3V141.5z
					 M175.1,170v7.1l11.8-11.8v-7.3l-5,5L175.1,170z M213.4,138.7l0.2-0.2c0.9,0.5,1.9,0.8,3,0.8c1.2,0,2.2-0.4,3.1-0.9l5.4,5.4
					v-5.2l-11.8-10.2V138.7z"/>
				<path id="XMLID_1634_" class="st67" d="M334.3,90.7l-38.1,38.2c-0.9-0.5-1.9-0.8-3-0.8c-1,0-2,0.3-2.9,0.7L278,116.4
					c0.1-0.5,0.3-0.9,0.3-1.4c0-3.8-3.1-6.8-6.8-6.8s-6.8,3.1-6.8,6.8c0,0.9,0.2,1.8,0.5,2.6l-25.8,25.8c-0.5-0.1-1-0.3-1.5-0.3
					c-0.9,0-1.7,0.2-2.5,0.5L223,131.4c0.2-0.6,0.4-1.3,0.4-2c0-3.8-3.1-6.8-6.8-6.8c-3.8,0-6.8,3.1-6.8,6.8c0,0.8,0.2,1.5,0.4,2.2
					l-49.5,49.5v7.4l52.9-53.1c0.9,0.5,1.9,0.8,3,0.8c1.2,0,2.2-0.4,3.1-0.9l11.9,11.9c-0.4,0.9-0.6,1.8-0.6,2.8
					c0,3.8,3.1,6.8,6.8,6.8c3.8,0,6.8-3.1,6.8-6.8c0-1.3-0.5-2.4-1.1-3.5l25.2-25.2c0.8,0.4,1.7,0.6,2.7,0.6c1.3,0,2.5-0.5,3.6-1.2
					l11.9,11.9c-0.3,0.7-0.5,1.5-0.5,2.3c0,3.8,3.1,6.8,6.8,6.8c3.8,0,6.8-3.1,6.8-6.8c0-0.8-0.2-1.5-0.4-2.1l34.7-34.7V90.7z"/>
				<linearGradient id="XMLID_395_" gradientUnits="userSpaceOnUse" x1="255.7702" y1="123.6669" x2="322.2917" y2="123.6669">
					<stop  offset="0.2953" style="stop-color:#BE1E2D"/>
					<stop  offset="0.7086" style="stop-color:#E74226"/>
					<stop  offset="1" style="stop-color:#FF5722"/>
				</linearGradient>
				<path id="XMLID_1633_" class="st2" d="M255.8,127l9.1-9.1c-0.3-0.8-0.5-1.7-0.5-2.6c0-3.8,3.1-6.9,6.9-6.9s6.9,3.1,6.9,6.9
					c0,0.5-0.2,0.9-0.3,1.4l12.5,12.5c0.9-0.4,1.9-0.7,2.9-0.7c1.1,0,2.1,0.3,3,0.8l24-24.1l1.9,5.5l-22.5,22.5
					c0.2,0.7,0.4,1.4,0.4,2.2c0,3.8-3.1,6.9-6.9,6.9c-3.8,0-6.9-3.1-6.9-6.9c0-0.8,0.2-1.6,0.5-2.4l-12-12c-1.1,0.7-2.3,1.2-3.6,1.2
					c-1,0-1.9-0.2-2.7-0.6l-11.3,11.3L255.8,127z"/>
			</g>
		</g>
	</g>
	<path id="XMLID_1627_" class="st4" d="M359.9,219.8c1.2,1.2,2.9,1.7,4.5,1.4V195l-31.8-31.8l-3.3,3.3l-2.3-2.3
		c10.4-12.7,12.8-29.8,7.5-44.6h-0.1v-0.2c-2.2-6.1-5.7-11.8-10.6-16.7c-17.9-17.9-47.1-17.9-65.1,0c-17.9,17.9-17.9,47.1,0,65.1
		c16.4,16.4,42.1,17.8,60.1,4.2l2.5,2.5l-3.3,3.3L359.9,219.8z M313.1,157.1c-12.1,12.1-31.8,12.1-43.9,0
		c-12.1-12.1-12.1-31.8,0-43.9c12.1-12.1,31.8-12.1,43.9,0C325.2,125.3,325.2,145,313.1,157.1z"/>
	<g id="XMLID_1618_">
		
			<rect id="XMLID_1626_" x="324.3" y="161.3" transform="matrix(0.7071 -0.7071 0.7071 0.7071 -22.2309 282.5521)" class="st40" width="11.3" height="13.6"/>
		<linearGradient id="XMLID_396_" gradientUnits="userSpaceOnUse" x1="251.794" y1="132.79" x2="340.0071" y2="132.79">
			<stop  offset="0" style="stop-color:#FFF200"/>
			<stop  offset="0.1796" style="stop-color:#FFEC00"/>
			<stop  offset="0.4234" style="stop-color:#FFDB00"/>
			<stop  offset="0.704" style="stop-color:#FFBE00"/>
			<stop  offset="1" style="stop-color:#FF9800"/>
		</linearGradient>
		<path id="XMLID_1623_" class="st5" d="M264.7,101.6c-17.2,17.2-17.2,45.2,0,62.4c17.2,17.2,45.2,17.2,62.4,0
			c17.2-17.2,17.2-45.2,0-62.4C309.9,84.4,281.9,84.4,264.7,101.6z M317.8,154.7c-12.1,12.1-31.8,12.1-43.9,0
			c-12.1-12.1-12.1-31.8,0-43.9c12.1-12.1,31.8-12.1,43.9,0C329.9,123,329.9,142.6,317.8,154.7z"/>
		<linearGradient id="XMLID_397_" gradientUnits="userSpaceOnUse" x1="249.8983" y1="132.79" x2="341.903" y2="132.79">
			<stop  offset="0" style="stop-color:#FF9800"/>
			<stop  offset="0.296" style="stop-color:#FFBE00"/>
			<stop  offset="0.5766" style="stop-color:#FFDB00"/>
			<stop  offset="0.8204" style="stop-color:#FFEC00"/>
			<stop  offset="1" style="stop-color:#FFF200"/>
		</linearGradient>
		<path id="XMLID_1620_" class="st7" d="M328.4,100.2c-17.9-17.9-47.1-17.9-65.1,0c-17.9,17.9-17.9,47.1,0,65.1
			c17.9,17.9,47.1,17.9,65.1,0C346.4,147.4,346.4,118.2,328.4,100.2z M323.1,159.9c-15,15-39.3,15-54.3,0c-15-15-15-39.3,0-54.3
			c15-15,39.3-15,54.3,0C338,120.6,338,145,323.1,159.9z"/>
		<linearGradient id="XMLID_398_" gradientUnits="userSpaceOnUse" x1="345.1837" y1="198.5481" x2="360.0052" y2="183.7266">
			<stop  offset="0" style="stop-color:#7C4DFF"/>
			<stop  offset="1" style="stop-color:#E040FB"/>
		</linearGradient>
		<path id="XMLID_1619_" class="st10" d="M381.4,208l-11.6,11.6c-0.9,0.9-2.2,0.9-3.1,0l-44.1-44.1l14.7-14.7l44.1,44.1
			C382.3,205.7,382.3,207.1,381.4,208z"/>
	</g>
	<path id="XMLID_1617_" class="st4" d="M207.6,308.1v-74v-6.1h1.4c2.2,0,3.5-2.5,2.2-4.4l-3.7-5H192l0-5.6c0-2.3-1.9-4.1-4.2-4.1
		l-8.9,0c-1.5,0-2.7-0.9-3.2-2.3c-0.3-0.8-0.7-1.6-1-2.4c-0.6-1.3-0.4-2.9,0.6-3.9l6.3-6.3c1.6-1.6,1.6-4.2,0-5.9l-10.2-10.2
		c-1.6-1.6-4.2-1.6-5.9,0l-6.3,6.3c-1,1-2.5,1.3-3.8,0.7c-0.9-0.4-1.9-0.8-2.7-1.1c-1.3-0.5-2.2-1.8-2.2-3.2v-8.9
		c0-2.3-1.9-4.1-4.1-4.1H132c-0.8,0-1.5,0.2-2.2,0.6v34c5-2.6,11-3.1,16.8-0.9c6.2,2.4,10.7,7.8,12.4,14h-0.1
		c0.3,1.1,0.5,2.3,0.6,3.4h-29.7v33.5v3.4V270c0,6.3,5.1,11.5,11.5,11.5h59.1l-2,12.6h0l-1.8,10.9h-8.3c-2.7,0-4.9,2.2-4.9,4.9
		c0,2.7,2.2,4.9,4.9,4.9h12.6C204.6,314.7,207.6,311.7,207.6,308.1z"/>
	<g id="XMLID_1605_">
		<linearGradient id="XMLID_399_" gradientUnits="userSpaceOnUse" x1="135.3042" y1="281.3254" x2="134.0651" y2="155.7635">
			<stop  offset="0" style="stop-color:#BE1E2D"/>
			<stop  offset="0.5865" style="stop-color:#E74226"/>
			<stop  offset="1" style="stop-color:#FF5722"/>
		</linearGradient>
		<path id="XMLID_1614_" class="st11" d="M172,231.6l11.3,0c2.3,0,4.1-1.9,4.1-4.2l0-14.4c0-2.3-1.9-4.1-4.2-4.1l-8.9,0
			c-1.5,0-2.7-0.9-3.2-2.3c-0.3-0.8-0.7-1.6-1-2.4c-0.6-1.3-0.4-2.9,0.6-3.9l6.3-6.3c1.6-1.6,1.6-4.2,0-5.9l-10.2-10.2
			c-1.6-1.6-4.2-1.6-5.9,0l-6.3,6.3c-1,1-2.5,1.3-3.8,0.7c-0.9-0.4-1.9-0.8-2.7-1.1c-1.3-0.5-2.2-1.8-2.2-3.2v-8.9
			c0-2.3-1.9-4.1-4.1-4.1h-14.4c-2.3,0-4.1,1.9-4.1,4.1v8.9c0,1.5-0.9,2.7-2.3,3.2c-0.9,0.3-1.7,0.7-2.6,1.1
			c-1.3,0.6-2.9,0.4-3.9-0.6l-6.3-6.3c-1.6-1.6-4.3-1.6-5.9,0l-10.2,10.2c-1.6,1.6-1.6,4.3,0,5.9l6.3,6.3c1,1,1.3,2.5,0.7,3.8
			c-0.4,0.9-0.8,1.9-1.1,2.7c-0.5,1.3-1.8,2.2-3.2,2.2l-8.9,0c-2.3,0-4.1,1.9-4.1,4.2l0,14.4c0,2.3,1.9,4.1,4.2,4.1l8.9,0
			c1.5,0,2.7,0.9,3.2,2.3c0.3,0.8,0.7,1.6,1,2.4c0.6,1.3,0.4,2.9-0.6,3.9l-6.3,6.3c-1.6,1.6-1.6,4.3,0,5.9l10.2,10.2
			c1.6,1.6,4.3,1.6,5.9,0l6.3-6.3c1-1,2.5-1.3,3.8-0.7c0.9,0.4,1.9,0.8,2.7,1.1c1.3,0.5,2.2,1.8,2.2,3.2l0,8.9
			c0,2.3,1.9,4.1,4.2,4.1l14.4,0c2.3,0,4.1-1.9,4.1-4.2l0-8.9c0-1.5,0.9-2.7,2.3-3.2c0.8-0.3,1.6-0.7,2.4-1c1.3-0.6,2.9-0.4,3.9,0.6
			l6.3,6.3c1.6,1.6,4.2,1.6,5.9,0l10.2-10.2c1.6-1.6,1.6-4.2,0-5.9l-6.3-6.3c-1-1-1.3-2.5-0.7-3.8C171,234.4,172,231.8,172,231.6z
			 M114.6,216.6c2.4-12.8,15.6-20,27.5-15.4c9,3.5,14.5,13.2,12.7,22.8c-2.4,12.8-15.6,20-27.5,15.4
			C118.3,235.9,112.8,226.1,114.6,216.6z"/>
		<path id="XMLID_1613_" class="st39" d="M81.9,227.7c0,2.3,1.9,4.1,4.2,4.1l8.9,0c1.5,0,2.7,0.9,3.2,2.3c0.3,0.8,0.7,1.6,1,2.4
			c0.6,1.3,0.4,2.9-0.6,3.9l-6.3,6.3c-1.6,1.6-1.6,4.3,0,5.9l10.2,10.2c1.6,1.6,4.3,1.6,5.9,0l6.3-6.3c1-1,2.5-1.3,3.8-0.7
			c0.9,0.4,1.9,0.8,2.7,1.1c1.3,0.5,2.2,1.8,2.2,3.2l0,8.9c0,2.3,1.9,4.1,4.2,4.1l14.4,0c2.3,0,4.1-1.9,4.1-4.2l0-8.9
			c0-1.5,0.9-2.7,2.3-3.2c0.8-0.3,1.6-0.7,2.4-1c1.3-0.6,2.9-0.4,3.9,0.6l6.3,6.3c1.6,1.6,4.2,1.6,5.9,0l10.2-10.2
			c1.6-1.6,1.6-4.2,0-5.9l-6.3-6.3c-1-1-1.3-2.5-0.7-3.8c0.9-2.2,1.9-4.7,1.9-4.9l11.3,0c2.3,0,4.1-1.9,4.1-4.2l0-12.3h-33.1
			c0.8,2.8,1,5.8,0.4,8.8c-2.4,12.8-15.6,20-27.5,15.4c-9-3.5-14.5-13.2-12.7-22.8c0.1-0.5,0.2-0.9,0.4-1.4h-33L81.9,227.7z"/>
		<g id="XMLID_1606_">
			<linearGradient id="XMLID_400_" gradientUnits="userSpaceOnUse" x1="78.5798" y1="266.6624" x2="203.0798" y2="266.6624">
				<stop  offset="0.1811" style="stop-color:#FFC107"/>
				<stop  offset="0.7863" style="stop-color:#FFA402"/>
				<stop  offset="1" style="stop-color:#FF9800"/>
			</linearGradient>
			<path id="XMLID_1612_" class="st12" d="M200.1,314.7H78.6v-96.1h124.5v93.2C203.1,313.4,201.8,314.7,200.1,314.7z"/>
			<path id="XMLID_1611_" class="st18" d="M68.8,314.7h9.8v-96.1H65.8v93.2C65.8,313.4,67.1,314.7,68.8,314.7z"/>
			<polygon id="XMLID_1610_" class="st152" points="65.8,234.1 74,234.1 78.6,218.6 65.8,221.7 			"/>
			<path id="XMLID_1609_" class="st161" d="M65.6,227.9h6.7c1,0,2-0.6,2.5-1.5l3.8-7.8H65.8l-2.6,5.4
				C62.3,225.8,63.6,227.9,65.6,227.9z"/>
			<polygon id="XMLID_1608_" class="st152" points="203.1,234.1 203.1,221.7 78.6,218.6 85.4,234.1 			"/>
			<path id="XMLID_1607_" class="st161" d="M204.5,227.9H86.8c-0.9,0-1.7-0.4-2.2-1.1l-6-8.2h124.5l3.7,5
				C208.1,225.4,206.8,227.9,204.5,227.9z"/>
		</g>
	</g>
	<g id="XMLID_1593_">
		<path id="XMLID_1604_" class="st3" d="M143.7,101H117c-1.8,0-3.2-1.4-3.2-3.2l0,0c0-1.8,1.4-3.2,3.2-3.2h26.7
			c1.8,0,3.2,1.4,3.2,3.2l0,0C146.9,99.6,145.5,101,143.7,101z"/>
		<path id="XMLID_1603_" class="st3" d="M143.7,138.4H82.4c-1.8,0-3.2-1.4-3.2-3.2l0,0c0-1.8,1.4-3.2,3.2-3.2h61.3
			c1.8,0,3.2,1.4,3.2,3.2l0,0C146.9,137,145.5,138.4,143.7,138.4z"/>
		<path id="XMLID_1602_" class="st3" d="M143.7,125.9H82.4c-1.8,0-3.2-1.4-3.2-3.2l0,0c0-1.8,1.4-3.2,3.2-3.2h61.3
			c1.8,0,3.2,1.4,3.2,3.2l0,0C146.9,124.5,145.5,125.9,143.7,125.9z"/>
		<path id="XMLID_1601_" class="st3" d="M143.7,113.5H82.4c-1.8,0-3.2-1.4-3.2-3.2l0,0c0-1.8,1.4-3.2,3.2-3.2h61.3
			c1.8,0,3.2,1.4,3.2,3.2l0,0C146.9,112,145.5,113.5,143.7,113.5z"/>
		<g id="XMLID_1594_">
			<linearGradient id="XMLID_401_" gradientUnits="userSpaceOnUse" x1="72.8058" y1="101.2908" x2="118.1594" y2="79.0586">
				<stop  offset="0.2953" style="stop-color:#BE1E2D"/>
				<stop  offset="0.7086" style="stop-color:#E74226"/>
				<stop  offset="1" style="stop-color:#FF5722"/>
			</linearGradient>
			<path id="XMLID_1598_" class="st13" d="M93.9,100.4l-1.6-3.7H85l-1.6,3.7h-4.1L86.8,83h3.7l7.5,17.3H93.9z M88.7,88.2l-2.2,5h4.3
				L88.7,88.2z"/>
			<linearGradient id="XMLID_402_" gradientUnits="userSpaceOnUse" x1="76.3545" y1="108.53" x2="121.7082" y2="86.2978">
				<stop  offset="0.2953" style="stop-color:#BE1E2D"/>
				<stop  offset="0.7086" style="stop-color:#E74226"/>
				<stop  offset="1" style="stop-color:#FF5722"/>
			</linearGradient>
			<path id="XMLID_1595_" class="st15" d="M110.8,100.4h-3.5v-1.6c-1,1.2-2.1,1.8-3.6,1.8c-1.4,0-2.6-0.4-3.6-1.2
				c-1-0.8-1.4-1.9-1.4-3.3c0-1.4,0.5-2.4,1.5-3.1c1-0.7,2.3-1,4.1-1h2.8v-0.1c0-1.4-0.8-2.1-2.3-2.1c-0.6,0-1.3,0.1-2,0.4
				c-0.7,0.3-1.3,0.6-1.8,1l-1.7-2.4c1.8-1.3,3.7-1.9,6-1.9c1.6,0,2.9,0.4,4,1.2c1,0.8,1.5,2.1,1.5,3.8V100.4z M107.1,95.3v-0.6
				h-2.3c-1.5,0-2.2,0.5-2.2,1.4c0,0.5,0.2,0.8,0.5,1.1c0.4,0.3,0.9,0.4,1.5,0.4c0.7,0,1.2-0.2,1.7-0.6
				C106.8,96.5,107.1,96,107.1,95.3z"/>
		</g>
	</g>
	<g id="XMLID_1591_">
		<linearGradient id="XMLID_403_" gradientUnits="userSpaceOnUse" x1="279.2587" y1="50.4547" x2="370.8296" y2="50.4547">
			<stop  offset="0" style="stop-color:#E040FB"/>
			<stop  offset="5.434531e-02" style="stop-color:#D840F7"/>
			<stop  offset="0.5003" style="stop-color:#9B3DD4"/>
			<stop  offset="0.828" style="stop-color:#753BBF"/>
			<stop  offset="1" style="stop-color:#673AB7"/>
		</linearGradient>
		<path id="XMLID_1592_" class="st16" d="M289,57l-9.2-9.5c-0.7-0.7-0.6-1.8,0-2.4c0.7-0.7,1.8-0.6,2.4,0l6.8,7l8-8.3l8,8.3l8-8.3
			l8,8.3l8-8.3l8,8.3l8-8.3l8,8.3l8-8.3l9.2,9.5c0.7,0.7,0.6,1.8,0,2.4c-0.7,0.7-1.8,0.6-2.4,0l-6.8-7l-8,8.3l-8-8.3l-8,8.3l-8-8.3
			l-8,8.3l-8-8.3l-8,8.3l-8-8.3L289,57z"/>
	</g>
	<g id="XMLID_1589_">
		<linearGradient id="XMLID_404_" gradientUnits="userSpaceOnUse" x1="17.1187" y1="162.7412" x2="108.6895" y2="162.7412">
			<stop  offset="0" style="stop-color:#FF9800"/>
			<stop  offset="0.2137" style="stop-color:#FFA402"/>
			<stop  offset="0.8189" style="stop-color:#FFC107"/>
		</linearGradient>
		<path id="XMLID_1590_" class="st17" d="M26.8,169.3l-9.2-9.5c-0.7-0.7-0.6-1.8,0-2.4c0.7-0.7,1.8-0.6,2.4,0l6.8,7l8-8.3l8,8.3
			l8-8.3l8,8.3l8-8.3l8,8.3l8-8.3l8,8.3l8-8.3l9.2,9.5c0.7,0.7,0.6,1.8,0,2.4c-0.7,0.7-1.8,0.6-2.4,0l-6.8-7l-8,8.3l-8-8.3l-8,8.3
			l-8-8.3l-8,8.3l-8-8.3l-8,8.3l-8-8.3L26.8,169.3z"/>
	</g>
	<g id="XMLID_1585_">
		<path id="XMLID_1586_" class="st3" d="M168.8,46c-2.4,0-4.3-1.9-4.3-4.3c0-2.4,1.9-4.3,4.3-4.3c2.4,0,4.3,1.9,4.3,4.3
			C173.2,44.1,171.2,46,168.8,46z M168.8,38.9c-1.5,0-2.8,1.2-2.8,2.8c0,1.5,1.2,2.8,2.8,2.8c1.5,0,2.8-1.2,2.8-2.8
			C171.6,40.2,170.4,38.9,168.8,38.9z"/>
	</g>
	<g id="XMLID_1581_">
		<path id="XMLID_1582_" class="st3" d="M127.7,72.3c-1.9,0-3.4-1.5-3.4-3.4c0-1.9,1.5-3.4,3.4-3.4c1.9,0,3.4,1.5,3.4,3.4
			C131.1,70.8,129.6,72.3,127.7,72.3z M127.7,66.7c-1.2,0-2.2,1-2.2,2.2c0,1.2,1,2.2,2.2,2.2c1.2,0,2.2-1,2.2-2.2
			C129.9,67.7,128.9,66.7,127.7,66.7z"/>
	</g>
	<g id="XMLID_1577_">
		<path id="XMLID_1578_" class="st3" d="M245.8,54.8h-10.1l5.1-8.8L245.8,54.8z M239.1,52.9h3.3l-1.6-2.8L239.1,52.9z"/>
	</g>
	<g id="XMLID_1571_">
		<path id="XMLID_1574_" class="st3" d="M117,152.8h-10.1l5.1-8.8L117,152.8z M110.3,150.8h3.3l-1.6-2.8L110.3,150.8z"/>
	</g>
	<g id="XMLID_1549_">
		<path id="XMLID_1550_" class="st3" d="M260.5,37.4L254,26h13.1L260.5,37.4z M260.5,32.3l2.1-3.7h-4.3L260.5,32.3z"/>
	</g>
	<g id="XMLID_1547_">
		<path id="XMLID_1548_" class="st3" d="M210.5,29.1l-5.2-5.4c-0.3-0.3-0.3-0.8,0-1.1c0.3-0.3,0.8-0.3,1.1,0l4,4.2l4.6-4.8l4.6,4.8
			l4.6-4.8l4.6,4.8l4-4.2c0.3-0.3,0.8-0.3,1.1,0c0.3,0.3,0.3,0.8,0,1.1l-5.2,5.4l-4.6-4.8l-4.6,4.8l-4.6-4.8L210.5,29.1z"/>
	</g>
</g>
</svg>
