<?xml version="1.0" encoding="utf-8"?>
<!-- Generator: Adobe Illustrator 22.1.0, SVG Export Plug-In . SVG Version: 6.00 Build 0)  -->
<svg version="1.1" id="Layer_1" xmlns="http://www.w3.org/2000/svg" xmlns:xlink="http://www.w3.org/1999/xlink" x="0px" y="0px"
	 viewBox="0 0 400 326" style="enable-background:new 0 0 400 326;" xml:space="preserve">
<style type="text/css">
	.st0{fill:url(#XMLID_393_);}
	.st1{fill:url(#XMLID_394_);}
	.st2{fill:url(#XMLID_395_);}
	.st3{fill:#FFFFFF;}
	.st4{opacity:0.3;fill:#231F20;}
	.st5{fill:url(#XMLID_396_);}
	.st6{fill:#4D2C89;}
	.st7{fill:url(#XMLID_397_);}
	.st8{fill:#BDC3C7;}
	.st9{opacity:0.3;fill:#212121;}
	.st10{fill:url(#XMLID_398_);}
	.st11{fill:url(#XMLID_399_);}
	.st12{fill:url(#XMLID_400_);}
	.st13{fill:url(#XMLID_401_);}
	.st14{fill:#FFF186;}
	.st15{fill:url(#XMLID_402_);}
	.st16{fill:url(#XMLID_403_);}
	.st17{fill:url(#XMLID_404_);}
	.st18{fill:#FFA000;}
	.st19{fill:url(#XMLID_405_);}
	.st20{fill:#212121;}
	.st21{fill:url(#XMLID_406_);}
	.st22{fill:url(#XMLID_407_);}
	.st23{fill:url(#XMLID_408_);}
	.st24{fill:url(#XMLID_409_);}
	.st25{fill:url(#XMLID_410_);}
	.st26{fill:url(#XMLID_411_);}
	.st27{fill:url(#XMLID_412_);}
	.st28{fill:url(#XMLID_413_);}
	.st29{fill:url(#XMLID_414_);}
	.st30{fill:#ECECEC;}
	.st31{fill:#D8D8D8;}
	.st32{fill:#FAFAFA;}
	.st33{fill:#C5C5C5;}
	.st34{fill:#373737;}
	.st35{fill:url(#XMLID_416_);}
	.st36{fill:#58595B;}
	.st37{fill:#414042;}
	.st38{fill:url(#XMLID_417_);}
	.st39{opacity:0.3;fill:#414042;}
	.st40{fill:#231F20;}
	.st41{fill:url(#XMLID_418_);}
	.st42{fill:url(#XMLID_419_);}
	.st43{fill:url(#XMLID_420_);}
	.st44{fill:#FFC107;}
	.st45{fill:url(#XMLID_421_);}
	.st46{fill:url(#XMLID_422_);}
	.st47{fill:url(#XMLID_423_);}
	.st48{fill:url(#XMLID_424_);}
	.st49{fill:url(#XMLID_425_);}
	.st50{fill:url(#XMLID_426_);}
	.st51{fill:url(#XMLID_427_);}
	.st52{fill:url(#XMLID_431_);}
	.st53{fill:url(#XMLID_432_);}
	.st54{fill:url(#XMLID_439_);}
	.st55{fill:url(#XMLID_448_);}
	.st56{fill:url(#XMLID_449_);}
	.st57{opacity:0.2;}
	.st58{opacity:0.35;}
	.st59{fill:#FF5722;}
	.st60{fill:#E6E7E8;}
	.st61{fill:url(#XMLID_450_);}
	.st62{fill:url(#XMLID_451_);}
	.st63{fill:url(#XMLID_452_);}
	.st64{fill:url(#XMLID_453_);}
	.st65{fill:url(#XMLID_454_);}
	.st66{fill:url(#XMLID_455_);}
	.st67{fill:#D1D3D4;}
	.st68{fill:url(#XMLID_456_);}
	.st69{fill:url(#XMLID_457_);}
	.st70{fill:#00ACBF;}
	.st71{fill:url(#XMLID_458_);}
	.st72{fill:url(#XMLID_459_);}
	.st73{fill:url(#XMLID_460_);}
	.st74{fill:url(#XMLID_469_);}
	.st75{fill:url(#XMLID_470_);}
	.st76{fill:url(#XMLID_471_);}
	.st77{fill:url(#XMLID_472_);}
	.st78{fill:url(#XMLID_473_);}
	.st79{fill:url(#XMLID_474_);}
	.st80{fill:url(#XMLID_475_);}
	.st81{fill:url(#XMLID_476_);}
	.st82{fill:url(#XMLID_477_);}
	.st83{fill:url(#XMLID_478_);}
	.st84{fill:url(#XMLID_479_);}
	.st85{fill:url(#XMLID_480_);}
	.st86{fill:url(#XMLID_481_);}
	.st87{fill:url(#XMLID_482_);}
	.st88{fill:url(#XMLID_483_);}
	.st89{fill:#00BEFF;}
	.st90{fill:url(#XMLID_484_);}
	.st91{opacity:0.1;}
	.st92{fill:url(#XMLID_485_);}
	.st93{fill:url(#XMLID_486_);}
	.st94{fill:url(#XMLID_491_);}
	.st95{fill:url(#XMLID_492_);}
	.st96{fill:url(#XMLID_493_);}
	.st97{fill:url(#XMLID_494_);}
	.st98{fill:url(#XMLID_496_);}
	.st99{fill:url(#XMLID_500_);}
	.st100{fill:url(#XMLID_501_);}
	.st101{fill:url(#XMLID_502_);}
	.st102{fill:url(#XMLID_503_);}
	.st103{opacity:0.25;fill:#212121;}
	.st104{fill:url(#XMLID_504_);}
	.st105{fill:url(#XMLID_505_);}
	.st106{fill:url(#XMLID_506_);}
	.st107{fill:url(#XMLID_507_);}
	.st108{fill:url(#XMLID_508_);}
	.st109{fill:url(#XMLID_509_);}
	.st110{fill:url(#XMLID_510_);}
	.st111{fill:url(#XMLID_511_);}
	.st112{fill:url(#XMLID_512_);}
	.st113{fill:url(#XMLID_513_);}
	.st114{fill:url(#XMLID_515_);}
	.st115{fill:url(#XMLID_517_);}
	.st116{fill:url(#XMLID_518_);}
	.st117{fill:url(#XMLID_519_);}
	.st118{fill:#E91E63;}
	.st119{fill:#ED4B82;}
	.st120{fill:#F278A1;}
	.st121{fill:#AF174A;}
	.st122{fill:url(#XMLID_520_);}
	.st123{fill:url(#XMLID_521_);}
	.st124{fill:url(#XMLID_522_);}
	.st125{fill:url(#XMLID_523_);}
	.st126{opacity:0.3;}
	.st127{fill:url(#XMLID_524_);}
	.st128{fill:url(#XMLID_525_);}
	.st129{fill:url(#XMLID_526_);}
	.st130{fill:url(#XMLID_527_);}
	.st131{fill:url(#XMLID_528_);}
	.st132{fill:url(#XMLID_529_);}
	.st133{fill:url(#XMLID_530_);}
</style>
<g id="XMLID_1112_">
	<linearGradient id="XMLID_393_" gradientUnits="userSpaceOnUse" x1="57.8685" y1="286.419" x2="383.9818" y2="20.1327">
		<stop  offset="0" style="stop-color:#0AA4F5"/>
		<stop  offset="4.839605e-02" style="stop-color:#0BA9F6"/>
		<stop  offset="0.6936" style="stop-color:#14E7FC"/>
		<stop  offset="1" style="stop-color:#18FFFF"/>
	</linearGradient>
	<circle id="XMLID_1219_" class="st0" cx="210.9" cy="161.5" r="151.4"/>
	<g id="XMLID_1217_">
		<linearGradient id="XMLID_394_" gradientUnits="userSpaceOnUse" x1="278.9178" y1="174.101" x2="376.643" y2="174.101">
			<stop  offset="0" style="stop-color:#FFF200"/>
			<stop  offset="0.1796" style="stop-color:#FFEC00"/>
			<stop  offset="0.4234" style="stop-color:#FFDB00"/>
			<stop  offset="0.704" style="stop-color:#FFBE00"/>
			<stop  offset="1" style="stop-color:#FF9800"/>
		</linearGradient>
		<path id="XMLID_1218_" class="st1" d="M289.3,181.1l-9.9-10.2c-0.7-0.7-0.7-1.9,0-2.6c0.7-0.7,1.9-0.7,2.6,0l7.2,7.5l8.5-8.8
			l8.5,8.8l8.6-8.8l8.6,8.8l8.6-8.8l8.6,8.8l8.5-8.8l8.6,8.8l8.6-8.8l9.9,10.2c0.7,0.7,0.7,1.9,0,2.6c-0.7,0.7-1.9,0.7-2.6,0
			l-7.3-7.5l-8.6,8.8l-8.6-8.8l-8.5,8.8l-8.6-8.8l-8.6,8.8l-8.6-8.8l-8.6,8.8l-8.5-8.8L289.3,181.1z"/>
	</g>
	<g id="XMLID_1215_">
		<linearGradient id="XMLID_395_" gradientUnits="userSpaceOnUse" x1="65.12" y1="43.5618" x2="166.5046" y2="43.5618">
			<stop  offset="0" style="stop-color:#E040FB"/>
			<stop  offset="5.434531e-02" style="stop-color:#D840F7"/>
			<stop  offset="0.5003" style="stop-color:#9B3DD4"/>
			<stop  offset="0.828" style="stop-color:#753BBF"/>
			<stop  offset="1" style="stop-color:#673AB7"/>
		</linearGradient>
		<path id="XMLID_1216_" class="st2" d="M75.9,50.9L65.7,40.3c-0.7-0.7-0.7-1.9,0-2.7c0.8-0.7,1.9-0.7,2.7,0l7.5,7.7l8.9-9.1
			l8.9,9.1l8.9-9.1l8.9,9.1l8.9-9.1l8.9,9.1l8.9-9.1l8.9,9.1l8.9-9.1L166,46.8c0.7,0.7,0.7,1.9,0,2.7c-0.7,0.7-1.9,0.7-2.7,0
			l-7.5-7.8l-8.9,9.1l-8.9-9.1l-8.9,9.1l-8.9-9.1l-8.9,9.1l-8.9-9.1l-8.9,9.1l-8.9-9.1L75.9,50.9z"/>
	</g>
	<g id="XMLID_1213_">
		<path id="XMLID_1214_" class="st3" d="M236.8,80.1l-6.8-7c-0.5-0.5-0.5-1.3,0-1.8c0.5-0.5,1.3-0.5,1.8,0l5,5.2l5.9-6.1l5.9,6.1
			l5.9-6.1l5.9,6.1l5.9-6.1l5.9,6.1l5.9-6.1l5.9,6.1l5.9-6.1l6.8,7c0.5,0.5,0.5,1.3,0,1.8c-0.5,0.5-1.3,0.5-1.8,0l-5-5.2l-5.9,6.1
			l-5.9-6.1l-5.9,6.1l-5.9-6.1l-5.9,6.1l-5.9-6.1l-5.9,6.1l-5.9-6.1L236.8,80.1z"/>
	</g>
	<g id="XMLID_1209_">
		<path id="XMLID_1210_" class="st3" d="M332.5,94.4h-10.1l5.1-8.8L332.5,94.4z M325.8,92.4h3.3l-1.6-2.8L325.8,92.4z"/>
	</g>
	<g id="XMLID_1205_">
		<path id="XMLID_1206_" class="st3" d="M122.9,87.5h-10.1l5.1-8.8L122.9,87.5z M116.2,85.5h3.3l-1.6-2.8L116.2,85.5z"/>
	</g>
	<g id="XMLID_1201_">
		<path id="XMLID_1202_" class="st3" d="M284,142.8l-5.1-8.8H289L284,142.8z M284,138.8l1.6-2.8h-3.3L284,138.8z"/>
	</g>
	<g id="XMLID_1197_">
		<path id="XMLID_1198_" class="st3" d="M185.4,78.8l-6.6-11.4H192L185.4,78.8z M185.4,73.7l2.1-3.7h-4.3L185.4,73.7z"/>
	</g>
	<g id="XMLID_1191_">
		<path id="XMLID_1192_" class="st3" d="M223.1,42c-3.3,0-5.9-2.7-5.9-5.9c0-3.3,2.6-5.9,5.9-5.9c3.3,0,5.9,2.7,5.9,5.9
			C229,39.3,226.3,42,223.1,42z M223.1,33c-1.7,0-3,1.4-3,3c0,1.7,1.4,3,3,3c1.7,0,3-1.4,3-3C226.1,34.4,224.7,33,223.1,33z"/>
	</g>
	<g id="XMLID_1187_">
		<path id="XMLID_1188_" class="st3" d="M160.4,128.5c-1.9,0-3.4-1.5-3.4-3.4c0-1.9,1.5-3.4,3.4-3.4c1.9,0,3.4,1.5,3.4,3.4
			C163.8,126.9,162.3,128.5,160.4,128.5z M160.4,123.3c-1,0-1.7,0.8-1.7,1.7c0,1,0.8,1.7,1.7,1.7c1,0,1.7-0.8,1.7-1.7
			C162.2,124.1,161.4,123.3,160.4,123.3z"/>
	</g>
	<g id="XMLID_1183_">
		<path id="XMLID_1184_" class="st3" d="M331.4,151c-1.9,0-3.4-1.5-3.4-3.4c0-1.9,1.5-3.4,3.4-3.4c1.9,0,3.4,1.5,3.4,3.4
			C334.8,149.5,333.2,151,331.4,151z M331.4,145.9c-1,0-1.7,0.8-1.7,1.7c0,1,0.8,1.7,1.7,1.7c1,0,1.7-0.8,1.7-1.7
			C333.1,146.7,332.3,145.9,331.4,145.9z"/>
	</g>
	<g id="XMLID_1158_">
		<g id="XMLID_1168_">
			<path id="XMLID_1182_" class="st118" d="M291.8,224.1c10.8,0,19.8-7.7,21.8-17.9c0.1-0.7,1.1-0.7,1.2,0c1.2,8.7,1,27.8-23,27.8
				V224.1z"/>
			<path id="XMLID_1181_" class="st119" d="M152,216.9c14.8,0,26.9-12,26.9-26.9c0-14.8-12-26.9-26.9-26.9V216.9z"/>
			<path id="XMLID_1180_" class="st118" d="M197.6,316H160c-0.6,0-1-0.4-1-1v-35.8c0-0.6,0.4-1,1-1h37.7c0.6,0,1,0.4,1,1V315
				C198.6,315.6,198.2,316,197.6,316z"/>
			<path id="XMLID_1179_" class="st118" d="M270,316h-37.7c-0.6,0-1-0.4-1-1v-43.5c0-0.6,0.4-1,1-1H270c0.6,0,1,0.4,1,1V315
				C271,315.6,270.5,316,270,316z"/>
			<ellipse id="XMLID_1178_" class="st119" cx="216.4" cy="234" rx="80.9" ry="67.9"/>
			<g id="XMLID_1176_">
				<path id="XMLID_1177_" class="st20" d="M250.2,187.7c-0.6,0-1.1-0.1-1.7-0.3c-18.9-6.7-40.7-6.7-59.6,0c-2.6,0.9-5.5-0.4-6.4-3
					c-0.9-2.6,0.4-5.5,3-6.4c21-7.5,45.3-7.5,66.3,0c2.6,0.9,4,3.8,3,6.4C254.2,186.4,252.3,187.7,250.2,187.7z"/>
			</g>
			<path id="XMLID_1175_" class="st118" d="M216.4,281.9c-40.6,0-74.1-25.2-79.9-57.9c-0.6,3.3-1,6.6-1,10
				c0,37.5,36.2,67.9,80.9,67.9c44.7,0,80.9-30.4,80.9-67.9c0-3.4-0.4-6.7-1-10C290.5,256.7,257,281.9,216.4,281.9z"/>
			<path id="XMLID_1174_" class="st119" d="M160.4,220.6v33.6c0,1.3-1,2.3-2.3,2.3h-40.9c-1.3,0-2.3-1-2.3-2.3v-33.6
				c0-1.3,1-2.3,2.3-2.3h40.9C159.4,218.3,160.4,219.4,160.4,220.6z"/>
			<path id="XMLID_1173_" class="st118" d="M154.9,250.6v7.4h-38c-1.1,0-2-0.9-2-2v-8h37.4C153.7,248,154.9,249.2,154.9,250.6z"/>
			<path id="XMLID_1172_" class="st120" d="M124.2,223v30.3c0,2.6-2.1,4.7-4.7,4.7l0,0c-2.6,0-4.7-2.1-4.7-4.7V223
				c0-2.6,2.1-4.7,4.7-4.7l0,0C122.1,218.3,124.2,220.4,124.2,223z"/>
			<ellipse id="XMLID_1171_" class="st121" cx="116.7" cy="238.2" rx="1.2" ry="5.5"/>
			<path id="XMLID_1170_" class="st121" d="M122.5,238.2c0,3.1-0.5,5.5-1.2,5.5c-0.6,0-1.2-2.5-1.2-5.5c0-3.1,0.5-5.5,1.2-5.5
				C122,232.6,122.5,235.1,122.5,238.2z"/>
			<path id="XMLID_1169_" class="st20" d="M157.9,210.5c0,2.7-1.3,4.9-2.9,4.9s-2.9-2.2-2.9-4.9s1.3-4.9,2.9-4.9
				S157.9,207.8,157.9,210.5z"/>
		</g>
		<g id="XMLID_1159_">
			<linearGradient id="XMLID_396_" gradientUnits="userSpaceOnUse" x1="174.2065" y1="139.825" x2="262.1881" y2="139.825">
				<stop  offset="0" style="stop-color:#FF9800"/>
				<stop  offset="0.296" style="stop-color:#FFBE00"/>
				<stop  offset="0.5766" style="stop-color:#FFDB00"/>
				<stop  offset="0.8204" style="stop-color:#FFEC00"/>
				<stop  offset="1" style="stop-color:#FFF200"/>
			</linearGradient>
			<circle id="XMLID_1167_" class="st5" cx="218.2" cy="139.8" r="44"/>
			<linearGradient id="XMLID_397_" gradientUnits="userSpaceOnUse" x1="179.014" y1="139.825" x2="257.3804" y2="139.825">
				<stop  offset="0" style="stop-color:#FFF200"/>
				<stop  offset="0.1796" style="stop-color:#FFEC00"/>
				<stop  offset="0.4234" style="stop-color:#FFDB00"/>
				<stop  offset="0.704" style="stop-color:#FFBE00"/>
				<stop  offset="1" style="stop-color:#FF9800"/>
			</linearGradient>
			<circle id="XMLID_1166_" class="st7" cx="218.2" cy="139.8" r="39.2"/>
			<linearGradient id="XMLID_398_" gradientUnits="userSpaceOnUse" x1="180.9822" y1="139.825" x2="255.4124" y2="139.825">
				<stop  offset="0" style="stop-color:#FF9800"/>
				<stop  offset="0.296" style="stop-color:#FFBE00"/>
				<stop  offset="0.5766" style="stop-color:#FFDB00"/>
				<stop  offset="0.8204" style="stop-color:#FFEC00"/>
				<stop  offset="1" style="stop-color:#FFF200"/>
			</linearGradient>
			<circle id="XMLID_1165_" class="st10" cx="218.2" cy="139.8" r="37.2"/>
			<g id="XMLID_1160_">
				<g id="XMLID_1163_">
					<path id="XMLID_1164_" class="st20" d="M222.7,157.5h-12.8c-2.9,0-5.3-2.4-5.3-5.3v-2.7h7.6v0.5h10.6c2,0,3.7-1.7,3.7-3.7
						c0-1.3-1.1-2.4-2.4-2.4h-9.4c-5.5,0-10-4.5-10-10v-1.4c0-6.2,5.1-11.3,11.3-11.3h12.8c2.9,0,5.3,2.4,5.3,5.3v3.1h-7.6v-0.8
						h-10.6c-2,0-3.7,1.7-3.7,3.7v1.4c0,1.3,1.1,2.4,2.4,2.4h9.4c5.5,0,10,4.5,10,10C234,152.4,228.9,157.5,222.7,157.5z"/>
				</g>
				<g id="XMLID_1161_">
					<rect id="XMLID_1162_" x="215.5" y="117.4" class="st20" width="7.6" height="44.8"/>
				</g>
			</g>
		</g>
	</g>
	<g id="XMLID_1152_">
		<linearGradient id="XMLID_399_" gradientUnits="userSpaceOnUse" x1="140.5679" y1="192.4481" x2="34.6755" y2="109.0861">
			<stop  offset="0" style="stop-color:#E040FB"/>
			<stop  offset="0.4073" style="stop-color:#ED7792"/>
			<stop  offset="0.8161" style="stop-color:#FAAC2F"/>
			<stop  offset="1" style="stop-color:#FFC107"/>
		</linearGradient>
		<path id="XMLID_1155_" class="st11" d="M109.4,192.1c-8.6,5.4-18.8,8.6-29.8,8.6c-31,0-56.2-25.2-56.2-56.2
			c0-31,25.2-56.2,56.2-56.2c31,0,56.2,25.2,56.2,56.2c0,8.2-1.8,15.9-4.9,22.9l5.5,29.6L109.4,192.1z"/>
		<g id="XMLID_1153_">
			<polygon id="XMLID_1154_" class="st3" points="68.7,170.3 46.6,148.2 59.2,135.5 68.7,145 95.1,118.6 107.8,131.3 			"/>
		</g>
	</g>
	<g id="XMLID_1149_" class="st126">
		<path id="XMLID_1151_" class="st20" d="M287.7,260.8v5.2c1.3-2,2.5-4.1,3.5-6.3h-2.4C288.2,259.7,287.7,260.2,287.7,260.8z"/>
		<path id="XMLID_1150_" class="st20" d="M271,313.7V284c4.1-3.2,7.8-6.7,11.1-10.5h-3.1h-3.5h-2.3h-13.2h-28
			c-0.6,0-1.1,0.5-1.1,1.1v9.1v2.1v1c0,0.1,0,0.2,0.1,0.4h-4c-0.6,0-1.1,0.5-1.1,1.1v9.1v2.1v1c0,0.4,0.2,0.7,0.4,0.9
			c1.7-0.2,3.4-0.4,5.1-0.6v13c0,1.2,1,2.3,2.3,2.3h24.2h11C270,316,271,315,271,313.7z"/>
	</g>
	<g id="XMLID_1113_">
		<g id="XMLID_1144_">
			<linearGradient id="XMLID_400_" gradientUnits="userSpaceOnUse" x1="234.2458" y1="308.7901" x2="289.8768" y2="308.7901">
				<stop  offset="0" style="stop-color:#FF9800"/>
				<stop  offset="0.296" style="stop-color:#FFBE00"/>
				<stop  offset="0.5766" style="stop-color:#FFDB00"/>
				<stop  offset="0.8204" style="stop-color:#FFEC00"/>
				<stop  offset="1" style="stop-color:#FFF200"/>
			</linearGradient>
			<path id="XMLID_1148_" class="st12" d="M289.4,316h-54.6c-0.3,0-0.5-0.2-0.5-0.5v-13.4c0-0.3,0.2-0.5,0.5-0.5h54.6
				c0.3,0,0.5,0.2,0.5,0.5v13.4C289.9,315.8,289.7,316,289.4,316z"/>
			<path id="XMLID_1147_" class="st18" d="M287.8,313.9h-51.4c-1.2,0-2.1-0.9-2.1-2.1v2.1c0,1.2,0.9,2.1,2.1,2.1h51.4
				c1.2,0,2.1-0.9,2.1-2.1v-2.1C289.9,312.9,288.9,313.9,287.8,313.9z"/>
			<rect id="XMLID_1146_" x="263.4" y="301.6" class="st14" width="13.2" height="14.4"/>
			
				<rect id="XMLID_1145_" x="279" y="301.6" transform="matrix(-1 -1.224647e-16 1.224647e-16 -1 561.4105 617.5802)" class="st14" width="3.5" height="14.4"/>
		</g>
		<g id="XMLID_1139_">
			<linearGradient id="XMLID_401_" gradientUnits="userSpaceOnUse" x1="295.6153" y1="308.7901" x2="351.2463" y2="308.7901">
				<stop  offset="0" style="stop-color:#FF9800"/>
				<stop  offset="0.296" style="stop-color:#FFBE00"/>
				<stop  offset="0.5766" style="stop-color:#FFDB00"/>
				<stop  offset="0.8204" style="stop-color:#FFEC00"/>
				<stop  offset="1" style="stop-color:#FFF200"/>
			</linearGradient>
			<path id="XMLID_1143_" class="st13" d="M350.7,316h-54.6c-0.3,0-0.5-0.2-0.5-0.5v-13.4c0-0.3,0.2-0.5,0.5-0.5h54.6
				c0.3,0,0.5,0.2,0.5,0.5v13.4C351.2,315.8,351,316,350.7,316z"/>
			<path id="XMLID_1142_" class="st18" d="M349.1,313.9h-51.4c-1.2,0-2.1-0.9-2.1-2.1v2.1c0,1.2,0.9,2.1,2.1,2.1h51.4
				c1.2,0,2.1-0.9,2.1-2.1v-2.1C351.2,312.9,350.3,313.9,349.1,313.9z"/>
			<rect id="XMLID_1141_" x="324.8" y="301.6" class="st14" width="13.2" height="14.4"/>
			
				<rect id="XMLID_1140_" x="340.3" y="301.6" transform="matrix(-1 -1.224647e-16 1.224647e-16 -1 684.1495 617.5802)" class="st14" width="3.5" height="14.4"/>
		</g>
		<g id="XMLID_1134_">
			<linearGradient id="XMLID_402_" gradientUnits="userSpaceOnUse" x1="292.0095" y1="294.3835" x2="347.6406" y2="294.3835">
				<stop  offset="0" style="stop-color:#FF9800"/>
				<stop  offset="0.296" style="stop-color:#FFBE00"/>
				<stop  offset="0.5766" style="stop-color:#FFDB00"/>
				<stop  offset="0.8204" style="stop-color:#FFEC00"/>
				<stop  offset="1" style="stop-color:#FFF200"/>
			</linearGradient>
			<path id="XMLID_1138_" class="st15" d="M347.1,301.6h-54.6c-0.3,0-0.5-0.2-0.5-0.5v-13.4c0-0.3,0.2-0.5,0.5-0.5h54.6
				c0.3,0,0.5,0.2,0.5,0.5v13.4C347.6,301.4,347.4,301.6,347.1,301.6z"/>
			<path id="XMLID_1137_" class="st18" d="M345.5,299.5h-51.4c-1.2,0-2.1-0.9-2.1-2.1v2.1c0,1.2,0.9,2.1,2.1,2.1h51.4
				c1.2,0,2.1-0.9,2.1-2.1v-2.1C347.6,298.5,346.7,299.5,345.5,299.5z"/>
			<rect id="XMLID_1136_" x="321.2" y="287.2" class="st14" width="13.2" height="14.4"/>
			
				<rect id="XMLID_1135_" x="336.7" y="287.2" transform="matrix(-1 -1.224647e-16 1.224647e-16 -1 676.9382 588.767)" class="st14" width="3.5" height="14.4"/>
		</g>
		<g id="XMLID_1129_">
			<linearGradient id="XMLID_403_" gradientUnits="userSpaceOnUse" x1="301.8665" y1="280.7242" x2="357.4976" y2="280.7242">
				<stop  offset="0" style="stop-color:#FF9800"/>
				<stop  offset="0.296" style="stop-color:#FFBE00"/>
				<stop  offset="0.5766" style="stop-color:#FFDB00"/>
				<stop  offset="0.8204" style="stop-color:#FFEC00"/>
				<stop  offset="1" style="stop-color:#FFF200"/>
			</linearGradient>
			<path id="XMLID_1133_" class="st16" d="M357,287.9h-54.6c-0.3,0-0.5-0.2-0.5-0.5V274c0-0.3,0.2-0.5,0.5-0.5H357
				c0.3,0,0.5,0.2,0.5,0.5v13.4C357.5,287.7,357.3,287.9,357,287.9z"/>
			<path id="XMLID_1132_" class="st18" d="M355.4,285.8H304c-1.2,0-2.1-0.9-2.1-2.1v2.1c0,1.2,0.9,2.1,2.1,2.1h51.4
				c1.2,0,2.1-0.9,2.1-2.1v-2.1C357.5,284.9,356.6,285.8,355.4,285.8z"/>
			<rect id="XMLID_1131_" x="331" y="273.5" class="st14" width="13.2" height="14.4"/>
			
				<rect id="XMLID_1130_" x="346.6" y="273.5" transform="matrix(-1 -1.224647e-16 1.224647e-16 -1 696.6523 561.4483)" class="st14" width="3.5" height="14.4"/>
		</g>
		<g id="XMLID_1124_">
			<linearGradient id="XMLID_404_" gradientUnits="userSpaceOnUse" x1="293.3377" y1="266.8795" x2="348.9688" y2="266.8795">
				<stop  offset="0" style="stop-color:#FF9800"/>
				<stop  offset="0.296" style="stop-color:#FFBE00"/>
				<stop  offset="0.5766" style="stop-color:#FFDB00"/>
				<stop  offset="0.8204" style="stop-color:#FFEC00"/>
				<stop  offset="1" style="stop-color:#FFF200"/>
			</linearGradient>
			<path id="XMLID_1128_" class="st17" d="M348.5,274.1h-54.6c-0.3,0-0.5-0.2-0.5-0.5v-13.4c0-0.3,0.2-0.5,0.5-0.5h54.6
				c0.3,0,0.5,0.2,0.5,0.5v13.4C349,273.9,348.7,274.1,348.5,274.1z"/>
			<path id="XMLID_1127_" class="st18" d="M346.9,272h-51.4c-1.2,0-2.1-0.9-2.1-2.1v2.1c0,1.2,0.9,2.1,2.1,2.1h51.4
				c1.2,0,2.1-0.9,2.1-2.1v-2.1C349,271,348,272,346.9,272z"/>
			<rect id="XMLID_1126_" x="322.5" y="259.7" class="st14" width="13.2" height="14.4"/>
			
				<rect id="XMLID_1125_" x="338.1" y="259.7" transform="matrix(-1 -1.224647e-16 1.224647e-16 -1 679.5944 533.759)" class="st14" width="3.5" height="14.4"/>
		</g>
		<g id="XMLID_1119_">
			<linearGradient id="XMLID_405_" gradientUnits="userSpaceOnUse" x1="231.3736" y1="294.3835" x2="287.0046" y2="294.3835">
				<stop  offset="0" style="stop-color:#FF9800"/>
				<stop  offset="0.296" style="stop-color:#FFBE00"/>
				<stop  offset="0.5766" style="stop-color:#FFDB00"/>
				<stop  offset="0.8204" style="stop-color:#FFEC00"/>
				<stop  offset="1" style="stop-color:#FFF200"/>
			</linearGradient>
			<path id="XMLID_1123_" class="st19" d="M286.5,301.6h-54.6c-0.3,0-0.5-0.2-0.5-0.5v-13.4c0-0.3,0.2-0.5,0.5-0.5h54.6
				c0.3,0,0.5,0.2,0.5,0.5v13.4C287,301.4,286.8,301.6,286.5,301.6z"/>
			<path id="XMLID_1122_" class="st18" d="M284.9,299.5h-51.4c-1.2,0-2.1-0.9-2.1-2.1v2.1c0,1.2,0.9,2.1,2.1,2.1h51.4
				c1.2,0,2.1-0.9,2.1-2.1v-2.1C287,298.5,286.1,299.5,284.9,299.5z"/>
			<rect id="XMLID_1121_" x="260.5" y="287.2" class="st14" width="13.2" height="14.4"/>
			
				<rect id="XMLID_1120_" x="276.1" y="287.2" transform="matrix(-1 -1.224647e-16 1.224647e-16 -1 555.6662 588.767)" class="st14" width="3.5" height="14.4"/>
		</g>
		<g id="XMLID_1114_">
			<linearGradient id="XMLID_406_" gradientUnits="userSpaceOnUse" x1="236.3785" y1="280.7242" x2="292.0095" y2="280.7242">
				<stop  offset="0" style="stop-color:#FF9800"/>
				<stop  offset="0.296" style="stop-color:#FFBE00"/>
				<stop  offset="0.5766" style="stop-color:#FFDB00"/>
				<stop  offset="0.8204" style="stop-color:#FFEC00"/>
				<stop  offset="1" style="stop-color:#FFF200"/>
			</linearGradient>
			<path id="XMLID_1118_" class="st21" d="M291.5,287.9h-54.6c-0.3,0-0.5-0.2-0.5-0.5V274c0-0.3,0.2-0.5,0.5-0.5h54.6
				c0.3,0,0.5,0.2,0.5,0.5v13.4C292,287.7,291.8,287.9,291.5,287.9z"/>
			<path id="XMLID_1117_" class="st18" d="M289.9,285.8h-51.4c-1.2,0-2.1-0.9-2.1-2.1v2.1c0,1.2,0.9,2.1,2.1,2.1h51.4
				c1.2,0,2.1-0.9,2.1-2.1v-2.1C292,284.9,291.1,285.8,289.9,285.8z"/>
			<rect id="XMLID_1116_" x="265.5" y="273.5" class="st14" width="13.2" height="14.4"/>
			
				<rect id="XMLID_1115_" x="281.1" y="273.5" transform="matrix(-1 -1.224647e-16 1.224647e-16 -1 565.6762 561.4483)" class="st14" width="3.5" height="14.4"/>
		</g>
	</g>
</g>
</svg>
