<?xml version="1.0" encoding="utf-8"?>
<!-- Generator: Adobe Illustrator 22.1.0, SVG Export Plug-In . SVG Version: 6.00 Build 0)  -->
<svg version="1.1" id="Layer_1" xmlns="http://www.w3.org/2000/svg" xmlns:xlink="http://www.w3.org/1999/xlink" x="0px" y="0px"
	 viewBox="0 0 400 326" style="enable-background:new 0 0 400 326;" xml:space="preserve">
<style type="text/css">
	.st0{fill:url(#XMLID_393_);}
	.st1{fill:url(#XMLID_394_);}
	.st2{fill:url(#XMLID_395_);}
	.st3{fill:#FFFFFF;}
	.st4{opacity:0.3;fill:#231F20;}
	.st5{fill:url(#XMLID_396_);}
	.st6{fill:#4D2C89;}
	.st7{fill:url(#XMLID_397_);}
	.st8{fill:#BDC3C7;}
	.st9{opacity:0.3;fill:#212121;}
	.st10{fill:url(#XMLID_398_);}
	.st11{fill:url(#XMLID_399_);}
	.st12{fill:url(#XMLID_400_);}
	.st13{fill:url(#XMLID_401_);}
	.st14{fill:#FFF186;}
	.st15{fill:url(#XMLID_402_);}
	.st16{fill:url(#XMLID_403_);}
	.st17{fill:url(#XMLID_404_);}
	.st18{fill:#FFA000;}
	.st19{fill:url(#XMLID_405_);}
	.st20{fill:#212121;}
	.st21{fill:url(#XMLID_406_);}
	.st22{fill:url(#XMLID_407_);}
	.st23{fill:url(#XMLID_408_);}
	.st24{fill:url(#XMLID_409_);}
	.st25{fill:url(#XMLID_410_);}
	.st26{fill:url(#XMLID_411_);}
	.st27{fill:url(#XMLID_412_);}
	.st28{fill:url(#XMLID_413_);}
	.st29{fill:url(#XMLID_414_);}
	.st30{fill:#ECECEC;}
	.st31{fill:#D8D8D8;}
	.st32{fill:#FAFAFA;}
	.st33{fill:#C5C5C5;}
	.st34{fill:#373737;}
	.st35{fill:url(#XMLID_416_);}
	.st36{fill:#58595B;}
	.st37{fill:#414042;}
	.st38{fill:url(#XMLID_417_);}
	.st39{opacity:0.3;fill:#414042;}
	.st40{fill:#231F20;}
	.st41{fill:url(#XMLID_418_);}
	.st42{fill:url(#XMLID_419_);}
	.st43{fill:url(#XMLID_420_);}
	.st44{fill:#FFC107;}
	.st45{fill:url(#XMLID_421_);}
	.st46{fill:url(#XMLID_422_);}
	.st47{fill:url(#XMLID_423_);}
	.st48{fill:url(#XMLID_424_);}
	.st49{fill:url(#XMLID_425_);}
	.st50{fill:url(#XMLID_426_);}
	.st51{fill:url(#XMLID_427_);}
	.st52{fill:url(#XMLID_431_);}
	.st53{fill:url(#XMLID_432_);}
	.st54{fill:url(#XMLID_439_);}
	.st55{fill:url(#XMLID_448_);}
	.st56{fill:url(#XMLID_449_);}
	.st57{opacity:0.2;}
	.st58{opacity:0.35;}
	.st59{fill:#FF5722;}
	.st60{fill:#E6E7E8;}
	.st61{fill:url(#XMLID_450_);}
	.st62{fill:url(#XMLID_451_);}
	.st63{fill:url(#XMLID_452_);}
	.st64{fill:url(#XMLID_453_);}
	.st65{fill:url(#XMLID_454_);}
	.st66{fill:url(#XMLID_455_);}
	.st67{fill:#D1D3D4;}
	.st68{fill:url(#XMLID_456_);}
	.st69{fill:url(#XMLID_457_);}
	.st70{fill:#00ACBF;}
	.st71{fill:url(#XMLID_458_);}
	.st72{fill:url(#XMLID_459_);}
	.st73{fill:url(#XMLID_460_);}
	.st74{fill:url(#XMLID_469_);}
	.st75{fill:url(#XMLID_470_);}
	.st76{fill:url(#XMLID_471_);}
	.st77{fill:url(#XMLID_472_);}
	.st78{fill:url(#XMLID_473_);}
	.st79{fill:url(#XMLID_474_);}
	.st80{fill:url(#XMLID_475_);}
	.st81{fill:url(#XMLID_476_);}
	.st82{fill:url(#XMLID_477_);}
	.st83{fill:url(#XMLID_478_);}
	.st84{fill:url(#XMLID_479_);}
	.st85{fill:url(#XMLID_480_);}
	.st86{fill:url(#XMLID_481_);}
	.st87{fill:url(#XMLID_482_);}
	.st88{fill:url(#XMLID_483_);}
	.st89{fill:#00BEFF;}
	.st90{fill:url(#XMLID_484_);}
	.st91{opacity:0.1;}
	.st92{fill:url(#XMLID_485_);}
	.st93{fill:url(#XMLID_486_);}
	.st94{fill:url(#XMLID_491_);}
	.st95{fill:url(#XMLID_492_);}
	.st96{fill:url(#XMLID_493_);}
	.st97{fill:url(#XMLID_494_);}
	.st98{fill:url(#XMLID_496_);}
</style>
<g id="XMLID_711_">
	<linearGradient id="XMLID_393_" gradientUnits="userSpaceOnUse" x1="37.0502" y1="286.4136" x2="318.9706" y2="56.2128">
		<stop  offset="0.1132" style="stop-color:#0AA4F5"/>
		<stop  offset="0.3956" style="stop-color:#0EBDF8"/>
		<stop  offset="0.995" style="stop-color:#18FEFF"/>
		<stop  offset="1" style="stop-color:#18FFFF"/>
	</linearGradient>
	<circle id="XMLID_794_" class="st0" cx="190.1" cy="161.4" r="151.4"/>
	<g id="XMLID_785_">
		<g id="XMLID_786_">
			<g id="XMLID_793_">
				<path id="XMLID_801_" class="st3" d="M250.7,68.2h-1.8c3.3,0,6-3,5.4-6.5c-0.5-2.7-3-4.6-5.8-4.6h-13.4h-11.9
					c0,0,3.1-10,3.1-15.4c0-1.2-0.2-5-0.4-7c-0.3-2.5-2.3-4.3-4.8-4.3l0,0c-2.4,0-4.5,1.7-4.8,4.1c-0.6,4.2-1.8,10.3-3.5,12.7
					c-1.6,2.2-7.6,10-7.6,10h-9.4l-4.9,35.6h12c1.2,0,2.3,0.5,3.2,1.3l5.5,5.6c1,1,2.4,1.6,3.8,1.6h23.8c2.8,0,5.3-1.9,5.8-4.6
					c0.6-3.4-2.1-6.5-5.4-6.5h5.5c2.8,0,5.3-1.9,5.8-4.6c0.6-3.4-2.1-6.5-5.4-6.5h5.8c3.3,0,6-3,5.4-6.5
					C256.1,70.1,253.5,68.2,250.7,68.2z"/>
			</g>
			<g id="XMLID_791_">
				<g id="XMLID_792_">
					<path id="XMLID_800_" class="st31" d="M223,34.7c0.2,2.1,0.4,5.9,0.4,7c0,5.4-3.1,15.4-3.1,15.4h2.9c0,0,3.1-10,3.1-15.4
						c0-1.2-0.2-5-0.4-7c-0.3-2.5-2.3-4.3-4.8-4.3c-0.5,0-1,0.1-1.4,0.3C221.5,31.2,222.8,32.7,223,34.7z"/>
				</g>
			</g>
			<g id="XMLID_789_" class="st91">
				<path id="XMLID_790_" class="st37" d="M195.4,60.3v32.5h7.5c0.6,0,1.2,0.1,1.8,0.4v-36h-8.9L195.4,60.3z"/>
			</g>
			<g id="XMLID_787_">
				<linearGradient id="XMLID_394_" gradientUnits="userSpaceOnUse" x1="84.0913" y1="143.7189" x2="198.4107" y2="143.7189">
					<stop  offset="0" style="stop-color:#673AB7"/>
					<stop  offset="0.172" style="stop-color:#753BBF"/>
					<stop  offset="0.4997" style="stop-color:#9B3DD4"/>
					<stop  offset="0.9457" style="stop-color:#D840F7"/>
					<stop  offset="1" style="stop-color:#E040FB"/>
				</linearGradient>
				<path id="XMLID_788_" class="st1" d="M129.2,234.8H84.1v-87c0-52.5,42.7-95.2,95.2-95.2h19.2v45.1h-19.2
					c-27.6,0-50.1,22.5-50.1,50.1V234.8z"/>
			</g>
		</g>
	</g>
	<g id="XMLID_783_">
		<path id="XMLID_784_" class="st3" d="M248,48.3l-7.1-6.6l-6.4,6c-0.4,0.3-0.9,0.3-1.3,0c-0.3-0.4-0.3-0.9,0-1.3l7.7-7.1l7.1,6.6
			l7.1-6.6l7.1,6.6l7.1-6.6l7.7,7.1c0.4,0.3,0.4,0.9,0,1.3c-0.3,0.4-0.9,0.4-1.3,0l-6.4-6l-7.1,6.6l-7.1-6.6L248,48.3z"/>
	</g>
	<g id="XMLID_779_">
		<path id="XMLID_780_" class="st3" d="M293.6,79.8c-2.5,0-4.6-2.1-4.6-4.6c0-2.5,2.1-4.6,4.6-4.6c2.5,0,4.6,2.1,4.6,4.6
			C298.3,77.7,296.2,79.8,293.6,79.8z M293.6,72.8c-1.3,0-2.4,1.1-2.4,2.4c0,1.3,1.1,2.4,2.4,2.4c1.3,0,2.4-1.1,2.4-2.4
			C296,73.9,295,72.8,293.6,72.8z"/>
	</g>
	<g id="XMLID_775_">
		<path id="XMLID_776_" class="st3" d="M53,155.7c-2.1,0-3.8-1.7-3.8-3.8c0-2.1,1.7-3.8,3.8-3.8c2.1,0,3.8,1.7,3.8,3.8
			C56.8,154,55.1,155.7,53,155.7z M53,150c-1.1,0-1.9,0.9-1.9,1.9c0,1.1,0.9,1.9,1.9,1.9S55,153,55,152C55,150.9,54.1,150,53,150z"
			/>
	</g>
	<g id="XMLID_769_">
		<path id="XMLID_772_" class="st3" d="M178.8,32.7l-5.6-9.7h11.2L178.8,32.7z M177,25.1l1.8,3.1l1.8-3.1H177z"/>
	</g>
	<g id="XMLID_732_">
		<path id="XMLID_745_" class="st3" d="M325.1,137.5l-3.9-6.8h7.8L325.1,137.5z M323.9,132.3l1.3,2.2l1.3-2.2H323.9z"/>
	</g>
	<g id="XMLID_728_">
		<path id="XMLID_729_" class="st3" d="M89.7,93.7H78.5l5.6-9.7L89.7,93.7z M85.9,91.5l-1.8-3.1l-1.8,3.1H85.9z"/>
	</g>
	<g id="XMLID_726_">
		<linearGradient id="XMLID_395_" gradientUnits="userSpaceOnUse" x1="70.2247" y1="43.7424" x2="143.9164" y2="43.7424">
			<stop  offset="0" style="stop-color:#FFF200"/>
			<stop  offset="0.1796" style="stop-color:#FFEC00"/>
			<stop  offset="0.4234" style="stop-color:#FFDB00"/>
			<stop  offset="0.704" style="stop-color:#FFBE00"/>
			<stop  offset="1" style="stop-color:#FF9800"/>
		</linearGradient>
		<path id="XMLID_727_" class="st2" d="M78,49l-7.4-7.7c-0.5-0.5-0.5-1.4,0-1.9c0.5-0.5,1.4-0.5,1.9,0l5.5,5.6l6.4-6.6l6.4,6.6
			l6.4-6.6l6.4,6.6l6.4-6.6l6.4,6.6l6.4-6.6l6.5,6.6l6.5-6.6l7.4,7.7c0.5,0.5,0.5,1.4,0,1.9c-0.5,0.5-1.4,0.5-1.9,0l-5.5-5.6
			l-6.5,6.6l-6.5-6.6l-6.4,6.6l-6.4-6.6l-6.4,6.6l-6.4-6.6L90.9,49l-6.4-6.6L78,49z"/>
	</g>
	<g id="XMLID_724_">
		<linearGradient id="XMLID_396_" gradientUnits="userSpaceOnUse" x1="255.08" y1="108.1635" x2="361.3851" y2="108.1635">
			<stop  offset="0" style="stop-color:#FFF200"/>
			<stop  offset="0.1796" style="stop-color:#FFEC00"/>
			<stop  offset="0.4234" style="stop-color:#FFDB00"/>
			<stop  offset="0.704" style="stop-color:#FFBE00"/>
			<stop  offset="1" style="stop-color:#FF9800"/>
		</linearGradient>
		<path id="XMLID_725_" class="st5" d="M266.4,115.8l-10.7-11.1c-0.8-0.8-0.7-2,0-2.8c0.8-0.8,2-0.7,2.8,0l7.9,8.1l9.3-9.6l9.3,9.6
			l9.3-9.6l9.3,9.6l9.3-9.6l9.3,9.6l9.3-9.6l9.3,9.6l9.3-9.6l10.7,11.1c0.8,0.8,0.7,2,0,2.8c-0.8,0.8-2,0.7-2.8,0l-7.9-8.1l-9.3,9.6
			l-9.3-9.6l-9.3,9.6l-9.3-9.6l-9.3,9.6l-9.3-9.6l-9.3,9.6l-9.3-9.6L266.4,115.8z"/>
	</g>
	<path id="XMLID_723_" class="st9" d="M129.2,147.8c0-8.2,2-16,5.6-22.9h-18.5H115c-1.2,0-2.2,1-2.2,2.2v1.1v64.8H84.1v41.7h45.1
		V147.8z"/>
	<g id="XMLID_756_">
		<g id="XMLID_741_">
			<linearGradient id="XMLID_397_" gradientUnits="userSpaceOnUse" x1="120.7182" y1="219.2654" x2="171.6965" y2="219.2654">
				<stop  offset="0" style="stop-color:#FF9800"/>
				<stop  offset="0.296" style="stop-color:#FFBE00"/>
				<stop  offset="0.5766" style="stop-color:#FFDB00"/>
				<stop  offset="0.8204" style="stop-color:#FFEC00"/>
				<stop  offset="1" style="stop-color:#FFF200"/>
			</linearGradient>
			<path id="XMLID_755_" class="st7" d="M171.7,313.6h-51V126.4c0-0.8,0.7-1.5,1.5-1.5h49.5V313.6z"/>
			<linearGradient id="XMLID_398_" gradientUnits="userSpaceOnUse" x1="170.3438" y1="219.2654" x2="313.0523" y2="219.2654">
				<stop  offset="0" style="stop-color:#FF9800"/>
				<stop  offset="0.296" style="stop-color:#FFBE00"/>
				<stop  offset="0.5766" style="stop-color:#FFDB00"/>
				<stop  offset="0.8204" style="stop-color:#FFEC00"/>
				<stop  offset="1" style="stop-color:#FFF200"/>
			</linearGradient>
			<path id="XMLID_722_" class="st10" d="M170.3,313.6h141.7c0.5,0,1-0.4,1-1V125.9c0-0.5-0.4-1-1-1H170.3V313.6z"/>
			<path id="XMLID_750_" class="st44" d="M146.2,313.6h-25.5V125.9c0-0.5,0.4-1,1-1h24.5V313.6z"/>
			<linearGradient id="XMLID_399_" gradientUnits="userSpaceOnUse" x1="120.7182" y1="298.5661" x2="171.6965" y2="298.5661">
				<stop  offset="0" style="stop-color:#FFF200"/>
				<stop  offset="0.1796" style="stop-color:#FFEC00"/>
				<stop  offset="0.4234" style="stop-color:#FFDB00"/>
				<stop  offset="0.704" style="stop-color:#FFBE00"/>
				<stop  offset="1" style="stop-color:#FF9800"/>
			</linearGradient>
			<polygon id="XMLID_747_" class="st11" points="171.7,313.6 120.7,313.6 120.7,313.6 146.2,283.5 171.7,313.6 			"/>
			<path id="XMLID_721_" class="st18" d="M212.3,154.9c0,4.9-4,8.8-8.8,8.8c-4.9,0-8.8-4-8.8-8.8c0-4.9,4-8.8,8.8-8.8
				C208.4,146.1,212.3,150.1,212.3,154.9z"/>
			<path id="XMLID_720_" class="st18" d="M293.6,154.9c0,4.9-4,8.8-8.8,8.8c-4.9,0-8.8-4-8.8-8.8c0-4.9,4-8.8,8.8-8.8
				C289.7,146.1,293.6,150.1,293.6,154.9z"/>
			<g id="XMLID_719_">
				<path id="XMLID_743_" class="st20" d="M200.2,194.3v-39.2c0-1.1,0.9-2,2-2h2.6c1.1,0,2,0.9,2,2v39.2c0,20.6,16.8,37.3,37.3,37.3
					c20.6,0,37.3-16.8,37.3-37.3v-39.2c0-1.1,0.9-2,2-2h2.6c1.1,0,2,0.9,2,2v39.2c0,24.2-19.7,44-44,44
					C219.9,238.3,200.2,218.5,200.2,194.3z"/>
			</g>
		</g>
		<path id="XMLID_718_" class="st4" d="M258,200.1c0-3.9-3.2-7.1-7.1-7.1H120.7v120.6h25.5h24.1h1.4h87.1c3.4-1.5,6.6-3.5,9.3-6.2
			v-5.5H258V200.1z"/>
		<g id="XMLID_712_">
			<g id="XMLID_713_">
				<path id="XMLID_740_" class="st34" d="M252.3,302.5H78.2V194.3c0-0.7,0.6-1.2,1.2-1.2h171.6c0.7,0,1.3,0.6,1.3,1.3V302.5z"/>
				<rect id="XMLID_717_" x="87.1" y="202.9" class="st3" width="156.3" height="90.7"/>
				<path id="XMLID_716_" class="st31" d="M262.5,307.4H68.1l0,0c5.5,5.5,13,8.6,20.9,8.6h152.7C249.4,316,256.9,312.9,262.5,307.4
					L262.5,307.4z"/>
				<rect id="XMLID_715_" x="68.1" y="301.9" class="st30" width="194.4" height="5.5"/>
				<path id="XMLID_714_" class="st31" d="M177.3,306.2h-24.1c-0.8,0-1.5-0.7-1.5-1.5l0,0c0-0.8,0.7-1.5,1.5-1.5h24.1
					c0.8,0,1.5,0.7,1.5,1.5l0,0C178.8,305.5,178.1,306.2,177.3,306.2z"/>
			</g>
		</g>
		<linearGradient id="XMLID_400_" gradientUnits="userSpaceOnUse" x1="124.6195" y1="284.2334" x2="207.9251" y2="210.5866">
			<stop  offset="0" style="stop-color:#536DFE"/>
			<stop  offset="0.2091" style="stop-color:#4B73FD"/>
			<stop  offset="0.5386" style="stop-color:#3484FA"/>
			<stop  offset="0.9454" style="stop-color:#0FA0F6"/>
			<stop  offset="1" style="stop-color:#0AA4F5"/>
		</linearGradient>
		<path id="XMLID_759_" class="st12" d="M202.5,248.3c0,20.5-16.6,37.2-37.2,37.2c-20.5,0-37.2-16.6-37.2-37.2
			c0-20.5,16.6-37.2,37.2-37.2C185.8,211.1,202.5,227.8,202.5,248.3z"/>
		<g id="XMLID_757_">
			<polygon id="XMLID_758_" class="st3" points="159.3,266.7 143.5,250.9 152.5,241.9 159.3,248.7 178.1,229.9 187.1,238.9 			"/>
		</g>
	</g>
</g>
</svg>
