<?xml version="1.0" encoding="utf-8"?>
<!-- Generator: Adobe Illustrator 22.1.0, SVG Export Plug-In . SVG Version: 6.00 Build 0)  -->
<svg version="1.1" id="Layer_1" xmlns="http://www.w3.org/2000/svg" xmlns:xlink="http://www.w3.org/1999/xlink" x="0px" y="0px"
	 viewBox="0 0 400 326" style="enable-background:new 0 0 400 326;" xml:space="preserve">
<style type="text/css">
	.st0{fill:url(#XMLID_2_);}
	.st1{fill:url(#XMLID_6_);}
	.st2{fill:url(#XMLID_11_);}
	.st3{fill:#FFFFFF;}
	.st4{opacity:0.3;fill:#231F20;}
	.st5{fill:url(#XMLID_12_);}
	.st6{fill:#4D2C89;}
	.st7{fill:url(#XMLID_13_);}
	.st8{fill:#BDC3C7;}
	.st9{opacity:0.3;fill:#212121;}
	.st10{fill:url(#XMLID_14_);}
	.st11{fill:url(#XMLID_15_);}
	.st12{fill:url(#XMLID_17_);}
	.st13{fill:url(#XMLID_18_);}
	.st14{fill:#FFF186;}
	.st15{fill:url(#XMLID_19_);}
	.st16{fill:url(#XMLID_20_);}
	.st17{fill:url(#XMLID_21_);}
	.st18{fill:#FFA000;}
	.st19{fill:url(#XMLID_22_);}
	.st20{fill:#212121;}
	.st21{fill:url(#XMLID_23_);}
	.st22{fill:url(#XMLID_24_);}
	.st23{fill:url(#XMLID_25_);}
	.st24{fill:url(#XMLID_26_);}
	.st25{fill:url(#XMLID_27_);}
	.st26{fill:url(#XMLID_28_);}
	.st27{fill:url(#XMLID_29_);}
	.st28{fill:url(#XMLID_30_);}
	.st29{fill:url(#XMLID_31_);}
	.st30{fill:#ECECEC;}
	.st31{fill:#D8D8D8;}
	.st32{fill:#FAFAFA;}
	.st33{fill:#C5C5C5;}
	.st34{fill:#373737;}
	.st35{fill:url(#XMLID_32_);}
	.st36{fill:#58595B;}
	.st37{fill:#414042;}
	.st38{fill:url(#XMLID_41_);}
	.st39{opacity:0.3;fill:#414042;}
	.st40{fill:#231F20;}
	.st41{fill:url(#XMLID_42_);}
	.st42{fill:url(#XMLID_46_);}
</style>
<g id="XMLID_5_">
	<linearGradient id="XMLID_2_" gradientUnits="userSpaceOnUse" x1="40.3163" y1="287.7768" x2="366.4295" y2="21.4905">
		<stop  offset="0" style="stop-color:#E040FB"/>
		<stop  offset="0.4073" style="stop-color:#ED7792"/>
		<stop  offset="0.8161" style="stop-color:#FAAC2F"/>
		<stop  offset="1" style="stop-color:#FFC107"/>
	</linearGradient>
	<circle id="XMLID_3_" class="st0" cx="193.4" cy="162.8" r="151.4"/>
	<g id="XMLID_241_">
		<linearGradient id="XMLID_6_" gradientUnits="userSpaceOnUse" x1="290.431" y1="143.6981" x2="364.1227" y2="143.6981">
			<stop  offset="0" style="stop-color:#E040FB"/>
			<stop  offset="5.434531e-02" style="stop-color:#D840F7"/>
			<stop  offset="0.5003" style="stop-color:#9B3DD4"/>
			<stop  offset="0.828" style="stop-color:#753BBF"/>
			<stop  offset="1" style="stop-color:#673AB7"/>
		</linearGradient>
		<path id="XMLID_259_" class="st1" d="M298.3,149l-7.4-7.7c-0.5-0.5-0.5-1.4,0-1.9c0.5-0.5,1.4-0.5,1.9,0l5.5,5.6l6.4-6.6l6.4,6.6
			l6.4-6.6l6.4,6.6l6.4-6.6l6.4,6.6l6.4-6.6l6.5,6.6l6.5-6.6l7.4,7.7c0.5,0.5,0.5,1.4,0,1.9c-0.5,0.5-1.4,0.5-1.9,0l-5.5-5.6
			l-6.5,6.6l-6.5-6.6l-6.4,6.6l-6.4-6.6L324,149l-6.4-6.6l-6.4,6.6l-6.4-6.6L298.3,149z"/>
	</g>
	<g id="XMLID_145_">
		<linearGradient id="XMLID_11_" gradientUnits="userSpaceOnUse" x1="226.5183" y1="43.849" x2="292.0758" y2="43.849">
			<stop  offset="0" style="stop-color:#E040FB"/>
			<stop  offset="5.434531e-02" style="stop-color:#D840F7"/>
			<stop  offset="0.5003" style="stop-color:#9B3DD4"/>
			<stop  offset="0.828" style="stop-color:#753BBF"/>
			<stop  offset="1" style="stop-color:#673AB7"/>
		</linearGradient>
		<path id="XMLID_147_" class="st2" d="M233.5,48.6l-6.6-6.8c-0.5-0.5-0.5-1.3,0-1.7c0.5-0.5,1.3-0.5,1.7,0l4.9,5l5.7-5.9l5.7,5.9
			l5.7-5.9l5.7,5.9l5.7-5.9l5.7,5.9l5.7-5.9l5.7,5.9l5.7-5.9l6.6,6.8c0.5,0.5,0.5,1.3,0,1.7c-0.5,0.5-1.3,0.5-1.7,0l-4.9-5l-5.7,5.9
			l-5.7-5.9l-5.7,5.9l-5.7-5.9l-5.7,5.9l-5.7-5.9l-5.7,5.9l-5.7-5.9L233.5,48.6z"/>
	</g>
	<g id="XMLID_7_">
		<linearGradient id="XMLID_12_" gradientUnits="userSpaceOnUse" x1="17.9616" y1="98.1974" x2="91.6533" y2="98.1974">
			<stop  offset="0" style="stop-color:#E040FB"/>
			<stop  offset="5.434531e-02" style="stop-color:#D840F7"/>
			<stop  offset="0.5003" style="stop-color:#9B3DD4"/>
			<stop  offset="0.828" style="stop-color:#753BBF"/>
			<stop  offset="1" style="stop-color:#673AB7"/>
		</linearGradient>
		<path id="XMLID_8_" class="st5" d="M25.8,103.5l-7.4-7.7c-0.5-0.5-0.5-1.4,0-1.9c0.5-0.5,1.4-0.5,1.9,0l5.5,5.6l6.4-6.6l6.4,6.6
			l6.4-6.6l6.4,6.6l6.4-6.6l6.4,6.6l6.4-6.6l6.5,6.6l6.5-6.6l7.4,7.7c0.5,0.5,0.5,1.4,0,1.9c-0.5,0.5-1.4,0.5-1.9,0l-5.5-5.6
			l-6.5,6.6l-6.5-6.6l-6.4,6.6L58,96.8l-6.4,6.6l-6.4-6.6l-6.4,6.6l-6.4-6.6L25.8,103.5z"/>
	</g>
	<g id="XMLID_257_">
		<path id="XMLID_254_" class="st3" d="M246.6,102.1c-2.4,0-4.3-1.9-4.3-4.3c0-2.4,1.9-4.3,4.3-4.3c2.4,0,4.3,1.9,4.3,4.3
			C250.9,100.2,249,102.1,246.6,102.1z M246.6,95c-1.5,0-2.8,1.2-2.8,2.8s1.2,2.8,2.8,2.8s2.8-1.2,2.8-2.8S248.1,95,246.6,95z"/>
	</g>
	<g id="XMLID_130_">
		<path id="XMLID_135_" class="st3" d="M222.9,32.6c-2.4,0-4.3-1.9-4.3-4.3c0-2.4,1.9-4.3,4.3-4.3c2.4,0,4.3,1.9,4.3,4.3
			C227.3,30.7,225.3,32.6,222.9,32.6z M222.9,25.5c-1.5,0-2.8,1.2-2.8,2.8c0,1.5,1.2,2.8,2.8,2.8s2.8-1.2,2.8-2.8
			C225.7,26.7,224.5,25.5,222.9,25.5z"/>
	</g>
	<g id="XMLID_101_">
		<path id="XMLID_103_" class="st3" d="M160,116.8c-0.8,0-1.5-0.7-1.5-1.5c0-0.8,0.7-1.5,1.5-1.5c0.8,0,1.5,0.7,1.5,1.5
			C161.5,116.1,160.9,116.8,160,116.8z M160,114.3c-0.5,0-1,0.4-1,1s0.4,1,1,1c0.5,0,1-0.4,1-1S160.6,114.3,160,114.3z"/>
	</g>
	<g id="XMLID_141_">
		<path id="XMLID_142_" class="st3" d="M303.9,90.3c-1.3,0-2.3-1-2.3-2.3c0-1.3,1-2.3,2.3-2.3c1.3,0,2.3,1,2.3,2.3
			C306.2,89.3,305.2,90.3,303.9,90.3z M303.9,86.6c-0.8,0-1.5,0.7-1.5,1.5c0,0.8,0.7,1.5,1.5,1.5c0.8,0,1.5-0.7,1.5-1.5
			C305.4,87.2,304.7,86.6,303.9,86.6z"/>
	</g>
	<g id="XMLID_258_">
		<path id="XMLID_244_" class="st3" d="M276.3,165h-10.1l5.1-8.8L276.3,165z M269.6,163h3.3l-1.6-2.8L269.6,163z"/>
	</g>
	<g id="XMLID_126_">
		<path id="XMLID_127_" class="st3" d="M141.8,37.1h-10.1l5.1-8.8L141.8,37.1z M135.1,35.1h3.3l-1.6-2.8L135.1,35.1z"/>
	</g>
	<g id="XMLID_106_">
		<path id="XMLID_107_" class="st3" d="M130.7,116.2h-6.3l3.2-5.5L130.7,116.2z M126.5,115h2l-1-1.8L126.5,115z"/>
	</g>
	<g id="XMLID_51_">
		<path id="XMLID_59_" class="st3" d="M280,69h-10.1l5.1-8.8L280,69z M273.3,67h3.3l-1.6-2.8L273.3,67z"/>
	</g>
	<g id="XMLID_264_">
		<path id="XMLID_266_" class="st3" d="M292.1,117.6l-5.1-8.8h10.1L292.1,117.6z M292.1,113.7l1.6-2.8h-3.3L292.1,113.7z"/>
	</g>
	<g id="XMLID_115_">
		<path id="XMLID_122_" class="st3" d="M97.7,92.3l-3.4-5.8h6.7L97.7,92.3z M97.7,89.7l1.1-1.9h-2.2L97.7,89.7z"/>
	</g>
	<g id="XMLID_275_">
		<path id="XMLID_277_" class="st3" d="M318,182.9l-5.2-5.4c-0.3-0.3-0.3-0.8,0-1.1c0.3-0.3,0.8-0.3,1.1,0l4,4.2l4.6-4.8l4.6,4.8
			l4.6-4.8l4.6,4.8l4-4.2c0.3-0.3,0.8-0.3,1.1,0c0.3,0.3,0.3,0.8,0,1.1l-5.2,5.4l-4.6-4.8l-4.6,4.8l-4.6-4.8L318,182.9z"/>
	</g>
	<g id="XMLID_9_">
		<path id="XMLID_43_" class="st3" d="M107.9,74.9l-6.5-6.7c-0.4-0.4-0.4-1,0-1.4c0.4-0.4,1-0.4,1.4,0l5.1,5.2l5.8-6l5.8,6l5.8-6
			l5.8,6l5.1-5.2c0.4-0.4,1-0.4,1.4,0c0.4,0.4,0.4,1,0,1.4l-6.5,6.7l-5.8-6l-5.8,6l-5.8-6L107.9,74.9z"/>
	</g>
	<g id="XMLID_825_">
		<g id="XMLID_845_">
			<linearGradient id="XMLID_13_" gradientUnits="userSpaceOnUse" x1="275.655" y1="303.1621" x2="275.655" y2="191.5973">
				<stop  offset="0" style="stop-color:#FF9800"/>
				<stop  offset="0.296" style="stop-color:#FFBE00"/>
				<stop  offset="0.5766" style="stop-color:#FFDB00"/>
				<stop  offset="0.8204" style="stop-color:#FFEC00"/>
				<stop  offset="1" style="stop-color:#FFF200"/>
			</linearGradient>
			<path id="XMLID_849_" class="st7" d="M298.2,194.1l-0.5,106.7c0,1.3-1.1,2.4-2.4,2.4l-39.8-0.2c-1.3,0-2.4-1.1-2.4-2.4l0.5-106.7
				c0-1.3,1.1-2.4,2.4-2.4l39.8,0.2C297.1,191.8,298.2,192.8,298.2,194.1z"/>
		</g>
		<path id="XMLID_831_" class="st4" d="M290.2,303.1c2,0,3.9-0.8,5.2-2.1l1.9-3.1c0.2-0.7,0.4-1.4,0.4-2.2l0.2-46.7l0-1.8l0.2-36.1
			l-3.9,6.5l-6.5,10.7l-8.5,14h0l-12.1,20.3L257,278.9c-0.4,0.7-0.7,1.4-0.8,2.1l0,3.6c0.5,1.8,1.6,3.5,3.4,4.6l15.5,9.4
			L290.2,303.1z"/>
		<g id="XMLID_839_">
			<linearGradient id="XMLID_14_" gradientUnits="userSpaceOnUse" x1="251.214" y1="255.138" x2="349.4166" y2="255.138">
				<stop  offset="0.1575" style="stop-color:#0AA4F5"/>
				<stop  offset="0.1937" style="stop-color:#0BA9F6"/>
				<stop  offset="0.6764" style="stop-color:#14E7FC"/>
				<stop  offset="0.9055" style="stop-color:#18FFFF"/>
			</linearGradient>
			<path id="XMLID_844_" class="st10" d="M349,224l-60.8,87.7c-0.7,1.1-2.2,1.3-3.3,0.6l-32.7-22.7c-1.1-0.7-1.3-2.2-0.6-3.3
				l60.8-87.7c0.7-1.1,2.2-1.3,3.3-0.6l32.7,22.7C349.5,221.4,349.7,222.9,349,224z"/>
		</g>
		<path id="XMLID_827_" class="st4" d="M318.8,267.6l16.4-23.7l10.6-15.4l0,0l0.2-0.3c0.3-0.4,0.5-0.8,0.6-1.1
			c-0.4,0.1-0.8,0.3-1.2,0.5l-11,6l-6,3.3l-9.1,4.9l-16.3,8.9l-16,8.7l-9.3,5.1l-14.2,8.5c-0.3,0.1-0.5,0.3-0.7,0.5l-2.9,4.2
			c-0.5,1.8-0.3,3.7,0.7,5.5l8.4,15.5l11.7,10.7c1.6,1.1,3.5,1.5,5.3,1.2l4.5-2.5c0.2-0.2,0.4-0.4,0.6-0.7l24-34.7L318.8,267.6z"/>
		<g id="XMLID_824_">
			<linearGradient id="XMLID_15_" gradientUnits="userSpaceOnUse" x1="256.2015" y1="273.4044" x2="374.5911" y2="273.4044">
				<stop  offset="0" style="stop-color:#BE1E2D"/>
				<stop  offset="1" style="stop-color:#FF6636"/>
			</linearGradient>
			<path id="XMLID_823_" class="st11" d="M373.2,272.3l-97.6,43c-1.2,0.5-2.6,0-3.1-1.2l-16-36.4c-0.5-1.2,0-2.6,1.2-3.1l97.6-43
				c1.2-0.5,2.6,0,3.1,1.2l16,36.4C374.9,270.4,374.4,271.8,373.2,272.3z"/>
		</g>
		<path id="XMLID_828_" class="st4" d="M261.3,275.4v30.7c0.3,0,0.6,0.1,0.9,0.1l5.4-3.1l2.8,6.3c0.4,0.8,0.9,1.5,1.4,2.1h12.4
			l2.1-0.9c1.1-0.2,2.2-0.7,3.2-1.4l8.5-3.7l1.3-0.6l69.2-30.5c3.4-1.5,5.1-5.2,4.2-8.7l-104.8,3.2
			C264.2,268.8,261.3,271.8,261.3,275.4z"/>
		<path id="XMLID_815_" class="st30" d="M380,314.6H261.8c-1.1,0-2.1-0.9-2.1-2.1v-41.7c0-1.1,0.9-2.1,2.1-2.1H380
			c1.1,0,2.1,0.9,2.1,2.1v41.7C382.1,313.7,381.2,314.6,380,314.6z"/>
		<path id="XMLID_853_" class="st31" d="M375.5,268.8h-4.8c3.6,0,6.6,2.9,6.6,6.6v32.7c0,3.6-2.9,6.6-6.6,6.6h4.8
			c3.6,0,6.6-2.9,6.6-6.6v-32.7C382.1,271.8,379.1,268.8,375.5,268.8z"/>
		<path id="XMLID_822_" class="st3" d="M279.7,291c0,2.4-1.9,4.3-4.3,4.3c-2.4,0-4.3-1.9-4.3-4.3s1.9-4.3,4.3-4.3
			C277.8,286.7,279.7,288.6,279.7,291z"/>
	</g>
	<g id="XMLID_261_">
		<polygon id="XMLID_357_" class="st32" points="187.8,305.3 91.4,305.3 98.1,263.7 181.5,263.7 		"/>
		<polygon id="XMLID_355_" class="st33" points="98.1,263.7 93,294.9 185.2,288.2 181.5,263.7 		"/>
		<path id="XMLID_354_" class="st34" d="M251.4,132.6c0-2.3-1.8-4.1-4.1-4.1H31.8c-2.3,0-4.1,1.8-4.1,4.1v125.6
			c0,2.3,1.8,4.1,4.1,4.1h215.6c2.3,0,4.1-1.8,4.1-4.1V132.6z"/>
		<path id="XMLID_353_" class="st30" d="M251.4,254.9v17c0,6-4.9,10.9-10.9,10.9H38.6c-6,0-10.9-4.9-10.9-10.9v-17H251.4z"/>
		<linearGradient id="XMLID_17_" gradientUnits="userSpaceOnUse" x1="19.3278" y1="258.4632" x2="252.1424" y2="129.2887">
			<stop  offset="0" style="stop-color:#673AB7"/>
			<stop  offset="0.1004" style="stop-color:#763BBF"/>
			<stop  offset="0.5212" style="stop-color:#AF3EDF"/>
			<stop  offset="0.8333" style="stop-color:#D23FF3"/>
			<stop  offset="1" style="stop-color:#E040FB"/>
		</linearGradient>
		<rect id="XMLID_352_" x="37.3" y="137.9" class="st12" width="204.6" height="107.7"/>
		<path id="XMLID_330_" class="st30" d="M195,314.6H83.5c-2.6,0-4.7-2.1-4.7-4.7l0,0c0-2.6,2.1-4.7,4.7-4.7H195
			c2.6,0,4.7,2.1,4.7,4.7l0,0C199.7,312.6,197.6,314.6,195,314.6z"/>
	</g>
	<g id="XMLID_4_">
		<path id="XMLID_544_" class="st20" d="M171,167.3c2.8,0,5.1-2.3,5.1-5.1c0-2.8-2.3-5.1-5.1-5.1c-2.1,0-3.9,1.3-4.7,3.1h-17.9v0.1
			c-0.4,0-0.7-0.1-1.1-0.1h-1.4v-4.1h-12.1v4.1h-1h-20.4c-0.8-1.8-2.6-3.1-4.7-3.1c-2.8,0-5.1,2.3-5.1,5.1c0,2.8,2.3,5.1,5.1,5.1
			c2.1,0,3.9-1.3,4.7-3.1h8.1c-4.8,3.5-8.1,8.9-8.7,15.1h-4.2v12.1h12.1v-12.1h-3.9c1-8.5,8.2-15.1,16.9-15.1h1v4.1h12.1v-4.1h1.4
			c8.7,0,15.9,6.6,16.9,15.1h-3.9v12.1h12.1v-12.1h-4.2c-0.6-6.2-3.9-11.6-8.7-15.1h6.7C167.1,166.1,168.9,167.3,171,167.3z
			 M107.7,163.4c-0.6,0-1.1-0.5-1.1-1.1c0-0.6,0.5-1.1,1.1-1.1c0.6,0,1.1,0.5,1.1,1.1C108.8,162.9,108.3,163.4,107.7,163.4z
			 M115.8,187.4h-4.1v-4.1h4.1V187.4z M141.9,164.3h-4.1v-4.1h4.1V164.3z M168.4,187.4h-4.1v-4.1h4.1V187.4z M171,161.1
			c0.6,0,1.1,0.5,1.1,1.1c0,0.6-0.5,1.1-1.1,1.1c-0.6,0-1.1-0.5-1.1-1.1C169.9,161.6,170.4,161.1,171,161.1z"/>
		<path id="XMLID_551_" class="st20" d="M143.1,170.9H140v2h-1v-2h-3l-13.6,23.2l7.6,23.5h-5.6v14h4v-10h22.1v10h4v-14h-5.8
			l7.7-23.3L143.1,170.9z M139.3,195.2c1.4,0,2.6,1.2,2.6,2.6c0,1.4-1.2,2.6-2.6,2.6c-1.4,0-2.6-1.2-2.6-2.6
			C136.7,196.3,137.9,195.2,139.3,195.2z M134.1,217.6l-7.4-23l10.6-18.2v15.1c-2.7,0.8-4.6,3.3-4.6,6.3c0,3.6,3,6.6,6.6,6.6
			c3.6,0,6.6-3,6.6-6.6c0-2.9-1.9-5.4-4.6-6.3v-15.6l10.6,18.8l-7.6,22.9H134.1z"/>
	</g>
	<path id="XMLID_155_" class="st4" d="M199.7,310c0-2.6-2.1-4.7-4.7-4.7h-7.2l-2.6-17.1l0,0l-0.8-5.3h56.1c6,0,10.9-4.9,10.9-10.9
		v-13.8v-3.3v-22.4h-81.9c-3.1,0-5.7,2.5-5.7,5.7v6.5v1.7v1.8v1.7v1.8v1.7v1.8v1.7v1.8v1.7v1.8v1.7v19.3v1.7v1.8v1.7v1.8v1.7v1.8
		v1.7v1.8v1.7v1.8v1.7v6.5c0,3.1,2.5,5.7,5.7,5.7H195C197.6,314.6,199.7,312.6,199.7,310z"/>
	<g id="XMLID_262_">
		<g id="XMLID_762_">
			<path id="XMLID_818_" class="st34" d="M294.1,309c0,3.1-2.5,5.7-5.7,5.7H174c-3.1,0-5.7-2.5-5.7-5.7v-70.8c0-3.1,2.5-5.7,5.7-5.7
				h114.4c3.1,0,5.7,2.5,5.7,5.7V309z"/>
			<rect id="XMLID_343_" x="168.3" y="244.7" class="st36" width="26.5" height="1.7"/>
			<rect id="XMLID_333_" x="168.3" y="248.2" class="st36" width="26.5" height="1.7"/>
			<rect id="XMLID_311_" x="168.3" y="251.7" class="st36" width="26.5" height="1.7"/>
			<rect id="XMLID_306_" x="168.3" y="255.2" class="st36" width="26.5" height="1.7"/>
			<rect id="XMLID_276_" x="168.3" y="258.7" class="st36" width="26.5" height="1.7"/>
			<rect id="XMLID_273_" x="168.3" y="262.2" class="st36" width="26.5" height="1.7"/>
			<rect id="XMLID_272_" x="168.3" y="283.2" class="st36" width="26.5" height="1.7"/>
			<rect id="XMLID_274_" x="168.3" y="286.7" class="st36" width="26.5" height="1.7"/>
			<rect id="XMLID_271_" x="168.3" y="290.2" class="st36" width="26.5" height="1.7"/>
			<rect id="XMLID_278_" x="168.3" y="293.7" class="st36" width="26.5" height="1.7"/>
			<rect id="XMLID_279_" x="168.3" y="297.2" class="st36" width="26.5" height="1.7"/>
			<rect id="XMLID_280_" x="168.3" y="300.7" class="st36" width="26.5" height="1.7"/>
			<path id="XMLID_816_" class="st36" d="M191.2,273.6c0,5-4,9-9,9c-5,0-9-4-9-9c0-5,4-9,9-9C187.1,264.6,191.2,268.6,191.2,273.6z"
				/>
			<path id="XMLID_814_" class="st37" d="M187,273.6c0,2.7-2.2,4.8-4.8,4.8c-2.7,0-4.8-2.2-4.8-4.8c0-2.7,2.2-4.8,4.8-4.8
				C184.8,268.7,187,270.9,187,273.6z"/>
			<linearGradient id="XMLID_18_" gradientUnits="userSpaceOnUse" x1="191.7679" y1="305.2917" x2="280.0118" y2="243.3331">
				<stop  offset="0.1575" style="stop-color:#0AA4F5"/>
				<stop  offset="0.1937" style="stop-color:#0BA9F6"/>
				<stop  offset="0.6764" style="stop-color:#14E7FC"/>
				<stop  offset="0.9055" style="stop-color:#18FFFF"/>
			</linearGradient>
			<rect id="XMLID_611_" x="193.9" y="244.7" class="st13" width="86.1" height="57.8"/>
			<g id="XMLID_770_">
				<polygon id="XMLID_771_" class="st20" points="197.2,250.1 197.1,250.1 197.1,247.7 199.4,247.7 199.4,247.8 197.2,247.8 				
					"/>
			</g>
			<g id="XMLID_768_">
				<polygon id="XMLID_270_" class="st20" points="197.2,297.1 197.1,297.1 197.1,299.5 199.4,299.5 199.4,299.3 197.2,299.3 				
					"/>
			</g>
			<g id="XMLID_766_">
				<polygon id="XMLID_767_" class="st20" points="277.1,250 277.3,250 277.3,247.6 274.9,247.6 274.9,247.8 277.1,247.8 				"/>
			</g>
			<g id="XMLID_764_">
				<polygon id="XMLID_765_" class="st20" points="277.1,297.1 277.3,297.1 277.3,299.5 274.9,299.5 274.9,299.3 277.1,299.3 				
					"/>
			</g>
		</g>
		<path id="XMLID_269_" class="st39" d="M288.4,232.5h-8.6l-50.9,36.8l-3.7,6.9l7.7-1.4l57.8-41.8
			C290,232.7,289.2,232.5,288.4,232.5z"/>
		<g id="XMLID_612_">
			<path id="XMLID_761_" class="st36" d="M288.6,210l2.7,2.7l-4.7,6.8c-0.1,0.1-0.2,0.3-0.3,0.4l-53.7,53.7l-7.3,2.5l2.6-7.3
				l53.7-53.7c0.1-0.1,0.3-0.3,0.4-0.4L288.6,210z"/>
			<path id="XMLID_263_" class="st37" d="M291.3,212.6l-1.3-1.3l-64.7,64.7l7.2-2.5l53.7-53.7c0.1-0.1,0.2-0.3,0.3-0.4L291.3,212.6z
				"/>
			<polygon id="XMLID_760_" class="st40" points="232.5,273.6 225.2,276.2 227.7,268.8 			"/>
		</g>
	</g>
	<g id="XMLID_33_">
		
			<linearGradient id="XMLID_19_" gradientUnits="userSpaceOnUse" x1="171.4959" y1="-166.4382" x2="195.9346" y2="-166.4382" gradientTransform="matrix(0 1 -1 0 -2.3851 118.7107)">
			<stop  offset="0" style="stop-color:#FFC107"/>
			<stop  offset="0.3242" style="stop-color:#FFBD06"/>
			<stop  offset="0.6217" style="stop-color:#FFB204"/>
			<stop  offset="0.9079" style="stop-color:#FFA001"/>
			<stop  offset="1" style="stop-color:#FF9800"/>
		</linearGradient>
		<path id="XMLID_123_" class="st15" d="M235.7,290.6v23.6c0,0.2-0.2,0.4-0.4,0.4H92.8c-0.2,0-0.4-0.2-0.4-0.4v-23.6
			c0-0.2,0.2-0.4,0.4-0.4h142.4C235.5,290.2,235.7,290.4,235.7,290.6z"/>
		
			<rect id="XMLID_121_" x="99.7" y="290.9" transform="matrix(6.123234e-17 -1 1 6.123234e-17 -190.465 393.0085)" class="st37" width="3.1" height="1.6"/>
		
			<rect id="XMLID_120_" x="106.1" y="290.9" transform="matrix(6.123234e-17 -1 1 6.123234e-17 -184.1022 399.3713)" class="st37" width="3.1" height="1.6"/>
		
			<rect id="XMLID_119_" x="112.5" y="290.9" transform="matrix(6.123234e-17 -1 1 6.123234e-17 -177.7398 405.7338)" class="st37" width="3.1" height="1.6"/>
		
			<rect id="XMLID_118_" x="118.8" y="290.9" transform="matrix(6.123234e-17 -1 1 6.123234e-17 -171.3773 412.0962)" class="st37" width="3.1" height="1.6"/>
		
			<rect id="XMLID_117_" x="123.7" y="292.5" transform="matrix(6.123234e-17 -1 1 6.123234e-17 -166.5447 419.9892)" class="st37" width="6.1" height="1.6"/>
		
			<rect id="XMLID_110_" x="131.6" y="290.9" transform="matrix(6.123234e-17 -1 1 6.123234e-17 -158.6517 424.8218)" class="st37" width="3.1" height="1.6"/>
		
			<rect id="XMLID_94_" x="137.9" y="290.9" transform="matrix(6.123234e-17 -1 1 6.123234e-17 -152.2892 431.1844)" class="st37" width="3.1" height="1.6"/>
		
			<rect id="XMLID_62_" x="144.3" y="290.9" transform="matrix(6.123234e-17 -1 1 6.123234e-17 -145.9269 437.5466)" class="st37" width="3.1" height="1.6"/>
		
			<rect id="XMLID_57_" x="150.6" y="290.9" transform="matrix(6.123234e-17 -1 1 6.123234e-17 -139.5643 443.9093)" class="st37" width="3.1" height="1.6"/>
		
			<rect id="XMLID_53_" x="155.5" y="292.5" transform="matrix(6.123234e-17 -1 1 6.123234e-17 -134.7316 451.8022)" class="st37" width="6.1" height="1.6"/>
		
			<rect id="XMLID_50_" x="163.4" y="290.9" transform="matrix(6.123234e-17 -1 1 6.123234e-17 -126.839 456.6345)" class="st37" width="3.1" height="1.6"/>
		
			<rect id="XMLID_49_" x="169.7" y="290.9" transform="matrix(6.123234e-17 -1 1 6.123234e-17 -120.4759 462.9977)" class="st37" width="3.1" height="1.6"/>
		
			<rect id="XMLID_48_" x="176.1" y="290.9" transform="matrix(6.123234e-17 -1 1 6.123234e-17 -114.1138 469.3598)" class="st37" width="3.1" height="1.6"/>
		
			<rect id="XMLID_45_" x="182.5" y="290.9" transform="matrix(6.123234e-17 -1 1 6.123234e-17 -107.751 475.7226)" class="st37" width="3.1" height="1.6"/>
		
			<rect id="XMLID_44_" x="187.3" y="292.5" transform="matrix(6.123234e-17 -1 1 6.123234e-17 -102.9183 483.6155)" class="st37" width="6.1" height="1.6"/>
		
			<rect id="XMLID_40_" x="195.2" y="290.9" transform="matrix(6.123234e-17 -1 1 6.123234e-17 -95.0263 488.4473)" class="st37" width="3.1" height="1.6"/>
		
			<rect id="XMLID_39_" x="201.5" y="290.9" transform="matrix(6.123234e-17 -1 1 6.123234e-17 -88.6631 494.8104)" class="st37" width="3.1" height="1.6"/>
		
			<rect id="XMLID_37_" x="207.9" y="290.9" transform="matrix(6.123234e-17 -1 1 6.123234e-17 -82.3007 501.1729)" class="st37" width="3.1" height="1.6"/>
		
			<rect id="XMLID_36_" x="214.3" y="290.9" transform="matrix(6.123234e-17 -1 1 6.123234e-17 -75.9379 507.5356)" class="st37" width="3.1" height="1.6"/>
		
			<rect id="XMLID_35_" x="219.1" y="292.5" transform="matrix(6.123234e-17 -1 1 6.123234e-17 -71.1056 515.4283)" class="st37" width="6.1" height="1.6"/>
		
			<rect id="XMLID_34_" x="227" y="290.9" transform="matrix(6.123234e-17 -1 1 6.123234e-17 -63.213 520.2606)" class="st37" width="3.1" height="1.6"/>
	</g>
	<g id="XMLID_919_">
		<linearGradient id="XMLID_20_" gradientUnits="userSpaceOnUse" x1="155.4034" y1="75.6645" x2="226.4873" y2="75.6645">
			<stop  offset="0.1575" style="stop-color:#0AA4F5"/>
			<stop  offset="0.1937" style="stop-color:#0BA9F6"/>
			<stop  offset="0.6764" style="stop-color:#14E7FC"/>
			<stop  offset="0.9055" style="stop-color:#18FFFF"/>
		</linearGradient>
		<path id="XMLID_882_" class="st16" d="M216.1,83.3l7.6,0c1.5,0,2.8-1.3,2.8-2.8l0-9.7c0-1.5-1.3-2.8-2.8-2.8l-6,0
			c-1,0-1.8-0.6-2.2-1.6c-0.2-0.6-0.4-1.1-0.7-1.6c-0.4-0.9-0.3-2,0.4-2.7l4.2-4.2c1.1-1.1,1.1-2.9,0-3.9l-6.9-6.9
			c-1.1-1.1-2.9-1.1-3.9,0l-4.2,4.3c-0.7,0.7-1.7,0.9-2.5,0.5c-0.6-0.3-1.3-0.5-1.8-0.7c-0.9-0.3-1.5-1.2-1.5-2.1v-6
			c0-1.5-1.3-2.8-2.8-2.8h-9.7c-1.5,0-2.8,1.3-2.8,2.8v6c0,1-0.6,1.8-1.6,2.2c-0.6,0.2-1.2,0.5-1.7,0.7c-0.9,0.4-2,0.3-2.7-0.4
			l-4.2-4.2c-1.1-1.1-2.9-1.1-3.9,0l-6.9,6.9c-1.1,1.1-1.1,2.9,0,3.9l4.3,4.2c0.7,0.7,0.9,1.7,0.5,2.5c-0.3,0.6-0.5,1.3-0.7,1.8
			c-0.3,0.9-1.2,1.5-2.1,1.5l-6,0c-1.5,0-2.8,1.3-2.8,2.8l0,9.7c0,1.5,1.3,2.8,2.8,2.8l6,0c1,0,1.8,0.6,2.2,1.6
			c0.2,0.6,0.4,1.1,0.7,1.6c0.4,0.9,0.3,2-0.4,2.7l-4.2,4.2c-1.1,1.1-1.1,2.9,0,4l6.9,6.9c1.1,1.1,2.9,1.1,3.9,0l4.2-4.3
			c0.7-0.7,1.7-0.9,2.5-0.5c0.6,0.3,1.3,0.5,1.8,0.7c0.9,0.3,1.5,1.2,1.5,2.1l0,6c0,1.5,1.3,2.8,2.8,2.8l9.7,0
			c1.5,0,2.8-1.3,2.8-2.8l0-6c0-1,0.6-1.8,1.6-2.2c0.6-0.2,1.1-0.4,1.6-0.7c0.9-0.4,2-0.3,2.7,0.4l4.2,4.2c1.1,1.1,2.9,1.1,3.9,0
			l6.9-6.9c1.1-1.1,1.1-2.9,0-3.9l-4.3-4.2c-0.7-0.7-0.9-1.7-0.5-2.5C215.4,85.1,216,83.4,216.1,83.3z M177.4,73.2
			c1.6-8.6,10.5-13.4,18.5-10.4c6.1,2.3,9.8,8.9,8.6,15.3c-1.6,8.6-10.5,13.4-18.5,10.4C179.9,86.2,176.2,79.6,177.4,73.2z"/>
		
			<ellipse id="XMLID_906_" transform="matrix(0.7071 -0.7071 0.7071 0.7071 2.4238 157.1804)" class="st30" cx="190.9" cy="75.7" rx="17.4" ry="17.4"/>
		<path id="XMLID_907_" class="st20" d="M198.9,75.7c0,4.4-3.6,7.9-7.9,7.9c-4.4,0-7.9-3.6-7.9-7.9c0-4.4,3.6-7.9,7.9-7.9
			C195.3,67.7,198.9,71.3,198.9,75.7z"/>
		<path id="XMLID_908_" class="st3" d="M200.1,69.6c0,2.1-1.7,3.9-3.9,3.9c-2.1,0-3.9-1.7-3.9-3.9s1.7-3.9,3.9-3.9
			C198.3,65.7,200.1,67.4,200.1,69.6z"/>
		<g id="XMLID_918_">
			<path id="XMLID_925_" class="st40" d="M228.1,113.7H221c-0.8,0-1.5-0.7-1.5-1.5c0-0.8,0.7-1.5,1.5-1.5h4.2v-4.7
				c0-0.8,0.7-1.5,1.5-1.5c0.8,0,1.5,0.7,1.5,1.5V113.7z"/>
		</g>
		<g id="XMLID_923_">
			<path id="XMLID_924_" class="st40" d="M155.7,44.5c-0.8,0-1.5-0.7-1.5-1.5v-7.6h7.1c0.8,0,1.5,0.7,1.5,1.5s-0.7,1.5-1.5,1.5h-4.2
				v4.7C157.1,43.9,156.5,44.5,155.7,44.5z"/>
		</g>
	</g>
</g>
</svg>
